<svg width="117" height="109" viewBox="0 0 117 109" fill="none" xmlns="http://www.w3.org/2000/svg">
<path d="M55.1673 3.63407C54.6068 3.10523 54.0338 3.25584 53.548 3.7156L23.537 32.1118L2.87631 51.674C2.16969 52.3433 1.4291 52.6298 0.603573 52.0036C0.0770052 51.6038 -0.320469 50.3944 0.363503 49.7444L18.893 32.1593L41.2614 11.0049L51.6569 1.2311C53.3963 -0.404088 55.977 0.074919 57.5794 1.59008L65.556 9.13075L84.3868 26.7838L108.733 49.6923C109.362 50.2834 109.112 51.3185 108.676 51.8213C108.196 52.375 107.204 52.5539 106.592 51.9798L99.9924 45.7787L64.0646 12.0263L55.1685 3.63407H55.1673Z" fill="#036B53"/>
<path d="M109.409 22.9318L100.627 30.913C99.889 31.5833 98.7724 31.8993 97.9469 31.1587L89.7947 23.8445C88.0519 22.2806 86.5028 20.6681 85.0273 18.8687C81.4568 14.5135 80.3573 9.08361 83.3695 4.16445C84.8778 1.84868 87.2491 0.437703 89.9872 0.0866574C93.4965 -0.362907 96.8915 0.946152 99.1405 3.79415C101.21 1.11601 104.356 -0.17606 107.691 0.0300372C111.026 0.236135 114.011 2.13744 115.478 5.20852C117.005 8.43248 116.949 12.0822 115.445 15.3277C114.716 16.9017 113.82 18.3104 112.625 19.5629L109.41 22.9318H109.409ZM109.52 18.5177C110.785 17.2947 111.762 15.9709 112.554 14.4637C113.76 12.1649 113.996 9.5411 113.078 7.14154C111.669 3.46009 107.56 1.88378 104.005 3.60164C102.563 4.2992 101.349 5.50408 100.634 6.96601C100.294 7.66018 99.8346 8.09955 99.068 8.07577C98.3013 8.05199 97.9163 7.56505 97.5732 6.86863C97.1293 5.96837 96.4193 5.14964 95.6391 4.49284C93.8702 3.006 91.5975 2.53605 89.2715 3.2472C87.4223 3.81227 85.8041 5.34101 85.0749 7.39519C84.2278 9.78004 84.5007 12.303 85.7305 14.5395C86.5085 15.9539 87.4314 17.2256 88.5672 18.3784L90.8467 20.6919L99.1382 28.2054L104.899 22.9907L109.522 18.5188L109.52 18.5177Z" fill="#036B53"/>
<path d="M16.5014 84.5287C16.5003 85.7042 17.3167 86.5636 18.3698 86.6905L20.0175 86.7109L20.0152 72.4029C20.0152 71.6238 20.5622 71.0871 21.2586 71.0316C21.8701 70.9829 22.6764 71.4211 22.6775 72.2104L22.7002 107.338C22.7002 108.228 22.4374 108.84 21.5451 108.985C20.8679 109.095 19.9733 108.566 19.9745 107.698L19.9858 100.313L20.0186 89.4898L17.8874 89.4026C15.7098 89.1184 13.8606 87.3133 13.8629 84.9636L13.8833 68.7147C13.8889 64.2575 17.9611 59.6566 22.9516 59.6611L35.1487 59.6736C40.0667 59.6781 44.0437 64.0979 44.0505 68.8936L44.063 77.6199C44.0641 78.4171 43.7017 79.0751 42.8751 79.1532C42.1968 79.2166 41.4392 78.7512 41.4358 77.9019L41.3962 69.4179C41.3792 65.852 38.5719 62.4049 34.7942 62.4072L23.1905 62.4117C19.4864 62.4129 16.5229 65.8282 16.5184 69.4666L16.4991 84.531L16.5014 84.5287Z" fill="#036B53"/>
<path d="M88.1469 86.6501C89.217 86.6195 89.9916 85.5505 89.9905 84.4623L89.978 69.4194C89.9746 65.9577 87.079 62.3883 83.5595 62.3895L71.393 62.3963C69.7929 62.3963 68.3729 63.1799 67.262 64.2398C65.7796 65.6542 64.9994 67.6178 64.9994 69.6867V77.6656C64.9983 78.4628 64.6212 79.0664 63.7991 79.1536C63.2136 79.2158 62.3824 78.8116 62.3824 78.0098L62.379 68.9868C62.3779 64.19 66.4172 59.6604 71.2175 59.6513L83.5097 59.6298C88.5919 59.6207 92.6323 64.1118 92.6335 68.8974L92.638 84.7816C92.638 87.2593 90.6891 89.1742 88.3303 89.3996L86.6691 89.4505L86.6668 107.674C86.6668 108.512 85.8617 108.981 85.2276 108.936C84.3409 108.871 83.9649 108.233 83.9649 107.338L83.9695 72.1791C83.9695 71.3445 84.8018 70.9414 85.4099 70.9889C86.1652 71.0478 86.668 71.5948 86.668 72.4056L86.6702 86.692L88.1469 86.6501Z" fill="#036B53"/>
<path d="M38.2164 48.866C38.2164 53.8361 34.1873 57.8652 29.2171 57.8652C24.247 57.8652 20.2179 53.8361 20.2179 48.866C20.2179 43.8959 24.247 39.8668 29.2171 39.8668C34.1873 39.8668 38.2164 43.8959 38.2164 48.866ZM35.451 48.8785C35.451 45.4348 32.6596 42.6435 29.216 42.6435C25.7724 42.6435 22.981 45.4348 22.981 48.8785C22.981 52.3221 25.7724 55.1135 29.216 55.1135C32.6596 55.1135 35.451 52.3221 35.451 48.8785Z" fill="#036B53"/>
<path d="M86.3651 48.8625C86.3651 53.827 82.3405 57.8504 77.3772 57.8504C72.4139 57.8504 68.3893 53.8259 68.3893 48.8625C68.3893 43.8992 72.4139 39.8746 77.3772 39.8746C82.3405 39.8746 86.3651 43.8992 86.3651 48.8625ZM83.5884 48.8716C83.5884 45.4325 80.8005 42.6456 77.3625 42.6456C73.9245 42.6456 71.1365 45.4336 71.1365 48.8716C71.1365 52.3096 73.9245 55.0975 77.3625 55.0975C80.8005 55.0975 83.5884 52.3096 83.5884 48.8716Z" fill="#036B53"/>
<path d="M38.3462 107.51C38.3462 108.367 37.8547 108.843 37.1889 108.93C36.5853 109.009 35.7077 108.616 35.7077 107.808L35.6964 72.4086C35.6964 71.5695 36.2207 71.0271 36.9862 70.9954C37.7506 70.9637 38.3462 71.5321 38.3462 72.4132V107.511V107.51Z" fill="#036B53"/>
<path d="M70.6541 107.626C70.6541 108.467 70.0788 108.845 69.4673 108.926C68.9373 108.998 68.0246 108.654 68.0246 107.889L68.0201 72.189C68.0201 71.4031 68.7482 70.9808 69.3688 70.9955C70.0244 71.0113 70.6574 71.5017 70.6574 72.2898L70.6552 107.626H70.6541Z" fill="#036B53"/>
<path d="M60.0107 72.3489C60.0107 76.1254 56.9487 79.1875 53.1721 79.1875C49.3955 79.1875 46.3335 76.1254 46.3335 72.3489C46.3335 68.5723 49.3955 65.5103 53.1721 65.5103C56.9487 65.5103 60.0107 68.5723 60.0107 72.3489ZM57.2703 72.3715C57.2703 70.0999 55.429 68.2575 53.1562 68.2575C50.8835 68.2575 49.0422 70.0988 49.0422 72.3715C49.0422 74.6443 50.8835 76.4855 53.1562 76.4855C55.429 76.4855 57.2703 74.6443 57.2703 72.3715Z" fill="#036B53"/>
<path d="M56.7086 82.5251L50.0648 82.5002C48.014 82.4923 46.1772 83.208 44.8036 84.7435C43.8366 85.8238 43.1843 87.117 42.908 88.5654C42.771 89.2867 42.2455 89.7567 41.5434 89.7567C40.8719 89.7567 40.1653 89.2459 40.2332 88.4544C40.351 87.0808 40.8561 85.834 41.5197 84.6189C43.0835 81.754 45.97 79.8459 49.2721 79.8379L56.8694 79.8198C61.6912 79.8085 65.1665 83.4763 66.0328 88.1147C66.1755 88.8779 65.7893 89.5222 65.0793 89.7136C64.4406 89.8857 63.6174 89.5687 63.4532 88.8043C63.1293 87.2971 62.5359 85.9178 61.5077 84.7673C60.2847 83.3993 58.6337 82.5342 56.7086 82.5274V82.5251Z" fill="#036B53"/>
<path d="M46.9644 107.763C46.9644 108.564 46.2328 108.942 45.6598 108.97C45.0676 108.999 44.3134 108.551 44.3134 107.797V89.7887C44.3123 89.0062 45.054 88.5781 45.6587 88.611C46.3257 88.6472 46.9678 89.1036 46.9666 89.8815L46.9644 107.763Z" fill="#036B53"/>
<path d="M61.5549 107.516C61.5549 108.433 60.9139 108.959 60.213 108.936C59.3603 108.908 58.9073 108.325 58.9084 107.463L58.9107 90.0034C58.9107 89.1734 59.4475 88.631 60.2096 88.6117C60.983 88.5913 61.5571 89.1349 61.5571 90.0159V107.517L61.5549 107.516Z" fill="#036B53"/>
<path d="M78.4105 107.646C78.4105 108.515 77.6925 108.961 77.012 108.923C76.337 108.884 75.7742 108.369 75.7742 107.573V90.014C75.7742 89.1998 76.3155 88.6393 77.0267 88.6133C77.8126 88.5838 78.4127 89.1398 78.4127 90.005L78.4093 107.646H78.4105Z" fill="#036B53"/>
<path d="M30.5113 107.405C30.5113 108.293 30.1161 108.852 29.337 108.936C28.6814 109.007 27.874 108.529 27.874 107.693L27.8717 89.8935C27.8717 89.1484 28.5274 88.6796 29.1162 88.6422C29.8024 88.5992 30.5023 89.0861 30.5023 89.8856L30.5102 107.404L30.5113 107.405Z" fill="#036B53"/>
<path d="M54.4196 107.651C54.4196 108.438 53.765 108.922 53.1671 108.94C52.4899 108.962 51.7595 108.491 51.7595 107.717V99.9613C51.7595 99.1799 52.4628 98.6726 53.1569 98.6941C53.8726 98.7167 54.4241 99.3011 54.4241 100.086L54.4196 107.65V107.651Z" fill="#036B53"/>
</svg>
