<svg width="39" height="39" viewBox="0 0 39 39" fill="none" xmlns="http://www.w3.org/2000/svg">
<circle cx="19.5" cy="19.5" r="19.5" fill="#036B53"/>
<path d="M28.8174 18.2535V19.6314C28.8174 23.9615 28.8174 26.1266 27.4722 27.4718C26.127 28.817 23.962 28.817 19.6319 28.817C15.3017 28.817 13.1367 28.817 11.7915 27.4718C10.4463 26.1266 10.4463 23.9615 10.4463 19.6314C10.4463 15.3012 10.4463 13.1362 11.7915 11.791C13.1367 10.4458 15.3017 10.4458 19.6319 10.4458H21.0097" stroke="#A3E60C" stroke-width="1.0581" stroke-linecap="round"/>
<path d="M15.0392 21.4694L16.6897 19.4888C17.3438 18.7039 17.6708 18.3115 18.101 18.3115C18.5312 18.3115 18.8583 18.7039 19.5123 19.4888L19.7516 19.7758C20.4056 20.5607 20.7327 20.9531 21.1629 20.9531C21.5931 20.9531 21.9201 20.5607 22.5742 19.7758L24.2247 17.7952" stroke="#A3E60C" stroke-width="1.0581" stroke-linecap="round"/>
<circle cx="26.0624" cy="13.2014" r="2.75568" stroke="#A3E60C" stroke-width="1.0581"/>
</svg>
