<svg width="39" height="39" viewBox="0 0 39 39" fill="none" xmlns="http://www.w3.org/2000/svg">
<circle cx="19.5" cy="19.5" r="19.5" fill="#036B53"/>
<path d="M12.738 15.3264H17.1189" stroke="#A3E60C" stroke-width="1.0581" stroke-linecap="round" stroke-linejoin="round"/>
<path d="M30.2585 18.0639C30.2585 17.9792 30.2611 17.4805 30.2585 17.4447C30.2198 16.8962 29.7494 16.4594 29.1588 16.4234C29.1202 16.4211 29.0746 16.4211 28.9833 16.4211H26.133C24.1788 16.4211 22.5946 17.8921 22.5946 19.7067C22.5946 21.5213 24.1788 22.9923 26.133 22.9923H28.9833C29.0746 22.9923 29.1202 22.9923 29.1588 22.99C29.7494 22.954 30.2198 22.5172 30.2585 21.9688C30.2611 21.933 30.2611 21.4343 30.2611 21.3495" stroke="#A3E60C" stroke-width="1.0581" stroke-linecap="round"/>
<circle cx="25.8803" cy="19.7078" r="0.566156" stroke="#A3E60C" stroke-width="1.0581"/>
<path d="M17.1187 28.4687H20.4044C24.5346 28.4687 26.5998 28.4687 27.8829 27.1856C28.768 26.3005 29.0426 25.0433 29.1277 22.9927M29.1277 16.4215C29.0426 14.3709 28.768 13.1137 27.8829 12.2285C26.5998 10.9454 24.5346 10.9454 20.4044 10.9454H17.1187C12.9885 10.9454 10.9233 10.9454 9.64022 12.2285C8.35711 13.5117 8.35711 15.5768 8.35711 19.7071C8.35711 23.8374 8.35711 25.9025 9.64022 27.1856C10.3556 27.901 11.314 28.2175 12.7379 28.3576" stroke="#A3E60C" stroke-width="1.0581" stroke-linecap="round"/>
<path d="M12.738 10.9458L16.8292 8.23317C17.9813 7.46925 19.5421 7.46925 20.6942 8.23317L24.7853 10.9458" stroke="#A3E60C" stroke-width="1.0581" stroke-linecap="round"/>
</svg>
