<svg width="39" height="39" viewBox="0 0 39 39" fill="none" xmlns="http://www.w3.org/2000/svg">
<circle cx="19.5" cy="19.5" r="19.5" fill="#036B53"/>
<circle cx="19.8482" cy="19.7641" r="3.21319" stroke="#B7FE1A" stroke-width="1.0581"/>
<path d="M21.7389 9.21606C21.3452 9.053 20.8462 9.053 19.8481 9.053C18.85 9.053 18.3509 9.053 17.9573 9.21606C17.4324 9.43347 17.0154 9.85049 16.798 10.3754C16.6987 10.615 16.6599 10.8936 16.6447 11.3001C16.6223 11.8974 16.316 12.4503 15.7984 12.7492C15.2807 13.048 14.6487 13.0369 14.1203 12.7576C13.7607 12.5675 13.4999 12.4618 13.2428 12.4279C12.6795 12.3538 12.1099 12.5064 11.6591 12.8523C11.3211 13.1117 11.0716 13.5439 10.5725 14.4082C10.0735 15.2726 9.82393 15.7048 9.76832 16.1273C9.69416 16.6905 9.8468 17.2602 10.1927 17.7109C10.3505 17.9166 10.5724 18.0896 10.9167 18.3059C11.4229 18.624 11.7486 19.1658 11.7486 19.7637C11.7485 20.3614 11.4228 20.9032 10.9167 21.2212C10.5723 21.4376 10.3504 21.6105 10.1925 21.8163C9.84669 22.267 9.69406 22.8367 9.76821 23.3999C9.82383 23.8224 10.0734 24.2546 10.5724 25.119C11.0715 25.9833 11.321 26.4155 11.659 26.6749C12.1098 27.0208 12.6794 27.1734 13.2427 27.0993C13.4998 27.0654 13.7605 26.9597 14.1201 26.7697C14.6486 26.4904 15.2806 26.4792 15.7983 26.7781C16.316 27.077 16.6223 27.6299 16.6447 28.2273C16.6599 28.6337 16.6987 28.9123 16.798 29.1519C17.0154 29.6768 17.4324 30.0938 17.9573 30.3112C18.3509 30.4743 18.85 30.4743 19.8481 30.4743C20.8462 30.4743 21.3452 30.4743 21.7389 30.3112C22.2638 30.0938 22.6808 29.6768 22.8982 29.1519C22.9975 28.9123 23.0363 28.6336 23.0515 28.2272C23.0738 27.6299 23.3801 27.077 23.8978 26.7781C24.4155 26.4791 25.0475 26.4903 25.576 26.7696C25.9356 26.9597 26.1963 27.0653 26.4534 27.0992C27.0167 27.1733 27.5863 27.0207 28.037 26.6749C28.3751 26.4155 28.6246 25.9833 29.1237 25.1189C29.6227 24.2545 29.8722 23.8223 29.9279 23.3999C30.002 22.8366 29.8494 22.2669 29.5035 21.8162C29.3457 21.6105 29.1238 21.4375 28.7794 21.2211C28.2733 20.9031 27.9476 20.3613 27.9476 19.7635C27.9476 19.1658 28.2733 18.6241 28.7794 18.3061C29.1238 18.0897 29.3457 17.9168 29.5036 17.711C29.8495 17.2603 30.0021 16.6906 29.928 16.1273C29.8724 15.7049 29.6228 15.2727 29.1238 14.4083C28.6247 13.5439 28.3752 13.1117 28.0371 12.8524C27.5864 12.5065 27.0168 12.3539 26.4535 12.428C26.1964 12.4619 25.9357 12.5675 25.5761 12.7576C25.0476 13.0369 24.4156 13.0481 23.8979 12.7492C23.3802 12.4503 23.0738 11.8974 23.0515 11.3C23.0363 10.8936 22.9975 10.615 22.8982 10.3754C22.6808 9.85049 22.2638 9.43347 21.7389 9.21606Z" stroke="#B7FE1A" stroke-width="1.0581"/>
</svg>
