<svg width="39" height="39" viewBox="0 0 39 39" fill="none" xmlns="http://www.w3.org/2000/svg">
<circle cx="19.5" cy="19.5" r="19.5" fill="#036B53"/>
<path d="M11.8395 12.8572V26.2405C11.8395 27.9462 13.2223 29.3289 14.928 29.3289H25.2228C26.9285 29.3289 28.3112 27.9462 28.3112 26.2405V15.9456C28.3112 14.2399 26.9285 12.8572 25.2228 12.8572H11.8395ZM11.8395 12.8572V11.8277" stroke="#B7FE1A" stroke-width="1.0581"/>
<path d="M26.2523 12.8563V13.3891H26.7851V12.8563H26.2523ZM23.9021 9.07408L23.8268 8.54658V8.54658L23.9021 9.07408ZM12.7862 10.6621L12.7109 10.1346H12.7109L12.7862 10.6621ZM12.9422 12.8563V13.3891H26.2523V12.8563V12.3234H12.9422V12.8563ZM26.2523 12.8563H26.7851V11.1124H26.2523H25.7194V12.8563H26.2523ZM23.9021 9.07408L23.8268 8.54658L12.7109 10.1346L12.7862 10.6621L12.8616 11.1896L23.9775 9.60158L23.9021 9.07408ZM12.7862 10.6621L12.7109 10.1346C11.9051 10.2497 11.3067 10.9397 11.3067 11.7536H11.8395H12.3724C12.3724 11.4701 12.5809 11.2297 12.8616 11.1896L12.7862 10.6621ZM26.2523 11.1124H26.7851C26.7851 9.5351 25.3882 8.32352 23.8268 8.54658L23.9021 9.07408L23.9775 9.60158C24.8969 9.47024 25.7194 10.1836 25.7194 11.1124H26.2523ZM12.9422 12.8563V12.3234C12.6275 12.3234 12.3724 12.0683 12.3724 11.7536H11.8395H11.3067C11.3067 12.6569 12.0389 13.3891 12.9422 13.3891V12.8563Z" fill="#B7FE1A"/>
<path d="M15.9573 19.0335H24.1932" stroke="#B7FE1A" stroke-width="1.0581" stroke-linecap="round"/>
<path d="M15.9573 22.6364H21.6195" stroke="#B7FE1A" stroke-width="1.0581" stroke-linecap="round"/>
</svg>
