<svg width="116" height="15" viewBox="0 0 116 15" fill="none" xmlns="http://www.w3.org/2000/svg">
<g clip-path="url(#clip0_4502_2822)">
<path d="M13.925 9.11465L9.62728 9.08094C8.74341 9.0742 8.0725 8.24656 8.06516 7.54337C8.05729 6.79455 8.71823 5.95239 9.61522 5.94876L16.0153 5.92231C16.7523 5.95913 17.5591 6.46889 17.5607 7.26956L17.5733 14.9107L6.68977 14.8542C3.81258 14.8392 1.05761 12.8997 0.340538 10.1606C-0.114252 8.42235 -0.112678 6.49533 0.34421 4.75396C1.04082 2.09731 3.72026 0.227337 6.51509 0.105472C9.7301 -0.0345428 12.7925 0.0401318 15.9854 0.0634676C16.8562 0.0696905 17.5061 0.930522 17.5108 1.60622C17.5156 2.28711 16.8803 3.19202 15.9923 3.19824L6.76426 3.26151C5.44447 3.27033 4.02922 4.41378 3.85192 5.66821C3.67357 6.92731 3.64734 8.17759 3.88444 9.40661C4.12993 10.6792 5.61128 11.692 6.90431 11.6992L13.925 11.7381V9.11465Z" fill="#CF0A2C"/>
<path d="M77.7482 7.36224C77.7849 9.73679 77.3039 11.7328 75.4569 13.2086C74.0327 14.3469 72.2907 14.9355 70.3865 14.9355H60.9639L60.9587 0.0233867L70.3907 0.00886664C72.3951 0.0057552 74.3113 0.649305 75.7244 1.98982C77.381 3.34952 77.7156 5.25268 77.7476 7.36172L77.7482 7.36224ZM74.0138 9.32711L74.0128 5.6971C73.5559 4.30991 72.2985 3.22195 70.7338 3.21624L64.6521 3.19291V11.7395L70.7495 11.7229C72.2634 11.7188 73.4536 10.6951 74.0138 9.32711Z" fill="#CF0A2C"/>
<path d="M32.9339 14.8557C30.0006 14.9693 27.5304 14.9657 24.744 14.8594C22.4223 14.7707 19.971 13.0278 19.747 10.6859C19.5388 8.5084 19.533 6.40818 19.7507 4.23328C19.9841 1.90281 22.4328 0.165591 24.7434 0.0784703C27.532 -0.0268001 30.0252 -0.0138358 32.8179 0.0670617C35.1438 0.134476 37.6449 1.82088 37.9103 4.17987C38.1579 6.38173 38.149 8.53277 37.9135 10.7383C37.6706 13.0158 35.2734 14.7645 32.9339 14.8552V14.8557ZM32.5578 11.9917C33.5292 11.9896 34.634 11.1137 34.6602 10.2197C34.7153 8.33416 34.7205 6.58034 34.6528 4.70466C34.6166 3.70278 33.395 2.93477 32.4544 2.93425L25.2858 2.93218C24.3548 2.93218 23.0937 3.61514 23.0465 4.6388C22.9594 6.53938 22.9615 8.37772 23.0434 10.285C23.0869 11.2983 24.3506 12.0093 25.2848 12.0077L32.5578 11.9922V11.9917Z" fill="#CF0A2C"/>
<path d="M53.539 14.838C50.59 14.9884 48.0165 14.9661 45.1923 14.851C42.7851 14.7524 40.3879 12.9001 40.1891 10.5074C40.017 8.4357 40.0149 6.48379 40.1906 4.40846C40.3915 2.03339 42.7992 0.18468 45.1912 0.0866694C48.0217 -0.029491 50.6057 -0.0263796 53.432 0.0809651C55.8476 0.172753 58.2343 2.02354 58.4557 4.40431C58.6492 6.4869 58.6409 8.42896 58.4583 10.5147C58.2564 12.8234 55.9814 14.7136 53.539 14.838ZM52.9961 11.9947C54.0216 11.9952 55.1541 11.0975 55.1604 10.146L55.1966 4.77561C54.9579 3.73068 54.0253 2.9326 52.8728 2.9326L45.752 2.93156C44.6551 2.93156 43.7324 3.67727 43.4854 4.66723V10.2523C43.7041 11.1484 44.5408 11.9879 45.5726 11.989L52.9961 11.9942V11.9947Z" fill="#CF0A2C"/>
<path d="M104.289 8.96925C104.585 10.6639 106.024 11.7172 107.635 11.7301L114.521 11.7861C115.378 11.7929 115.987 12.6968 115.996 13.332C116.005 13.9766 115.404 14.9059 114.542 14.9105L107.63 14.9453C105.816 14.9546 104.133 14.2603 102.783 13.1635C101.059 11.7638 100.517 9.78133 100.57 7.63807C100.61 6.00404 100.619 4.49914 101.608 3.11196C102.927 1.25961 105.061 0.0482274 107.446 0.0456345L114.377 0.0383745C115.305 0.0373373 115.995 0.831792 116 1.6081C116.005 2.35121 115.293 3.19078 114.374 3.19908L107.344 3.26546C105.933 3.27894 104.722 4.35602 104.329 5.73594L114.538 5.78365C115.401 5.7878 116.005 6.73471 115.996 7.35389C115.987 7.98188 115.396 8.92361 114.539 8.92724L104.289 8.96925Z" fill="#CF0A2C"/>
<path d="M88.8542 7.73923C89.1238 8.11883 89.0897 9.04759 88.7572 9.35044L83.05 14.5414C82.0182 15.229 80.6952 14.9702 80.1282 13.8029L80.1466 1.24669C80.1476 0.43305 81.2256 0.0513796 81.8031 0.0368595C82.3838 0.0223394 83.5195 0.355264 83.5242 1.16735L83.5709 9.71085L86.0866 7.4535C86.8661 6.75394 88.1581 6.75809 88.8552 7.73975L88.8542 7.73923Z" fill="#CF0A2C"/>
<path d="M89.816 9.63477C89.4184 9.27591 89.1519 8.7423 89.2054 8.31085C89.2532 7.92347 89.6219 7.39764 90.0164 7.19436C90.7177 6.83343 91.5895 6.919 92.1466 7.41527L94.6529 9.64877L94.6944 1.36041C94.6986 0.543655 95.6559 0.0930144 96.2371 0.0333785C96.8723 -0.0319617 98.1108 0.310297 98.1119 1.17787L98.1213 13.7476C98.1213 14.3279 97.3172 14.7946 96.8739 14.8791C96.2974 14.989 95.488 14.7588 95.0228 14.3387L89.816 9.6358V9.63477Z" fill="#CF0A2C"/>
</g>
<defs>
<clipPath id="clip0_4502_2822">
<rect width="115.131" height="14.8328" fill="white" transform="scale(1.00755)"/>
</clipPath>
</defs>
</svg>
