<svg width="143" height="17" viewBox="0 0 143 17" fill="none" xmlns="http://www.w3.org/2000/svg">
<g clip-path="url(#clip0_4502_2766)">
<path d="M13.4163 12.7271C13.0782 13.2118 12.5556 13.6438 11.9367 13.6443L0.792256 13.6503C0.321981 13.6505 0.0052404 13.2452 0.0052404 12.834C0.0052404 12.4262 0.320741 12.018 0.792752 12.018L11.8345 12.016C11.9737 11.9369 12.1051 11.7915 12.1711 11.6491C12.6982 10.5119 12.1736 9.22186 11.7894 9.22261L2.17877 9.2427C1.26253 9.24468 0.494614 8.3964 0.216318 7.52456C-0.130187 6.43915 -0.0795876 5.24983 0.515201 4.25868C0.824997 3.74252 1.36993 3.1956 2.02896 3.19436L13.1762 3.17327C13.6556 3.17228 14.0083 3.51432 14.0287 3.96227C14.0483 4.39584 13.7124 4.81155 13.2206 4.81155L2.18373 4.81204C1.44757 5.36839 1.45724 7.06346 2.18249 7.60765L11.8891 7.59004C12.4494 7.58905 12.9222 7.91472 13.2677 8.31728C14.2308 9.43964 14.2916 11.4723 13.4165 12.7273L13.4163 12.7271Z" fill="black"/>
<path d="M101.17 12.2672C100.678 12.1479 100.329 11.7357 100.117 11.3187C99.2506 9.61372 100.289 7.62497 101.402 7.61753L105.608 7.58901C106.323 7.10732 106.345 5.34453 105.608 4.81101H95.2848L95.2838 12.8416C95.2838 13.3092 94.8882 13.6445 94.4834 13.6502C94.0109 13.6569 93.6485 13.2956 93.6488 12.8037L93.6505 3.992C93.6505 3.52941 94.0032 3.17596 94.468 3.17621L105.714 3.1844C106.339 3.18489 106.855 3.63334 107.182 4.10733C108.035 5.3428 107.988 7.37272 107.021 8.5055C106.677 8.90954 106.213 9.22455 105.667 9.22554L101.624 9.23298C101.365 9.71417 101.364 10.2437 101.637 10.7078L107.171 12.0435C107.618 12.1511 107.854 12.604 107.766 13.0026C107.677 13.4082 107.262 13.7438 106.816 13.6359L101.17 12.2672H101.17Z" fill="black"/>
<path d="M33.493 11.3611L25.9287 11.3597C24.0716 11.3594 22.5465 9.77521 22.5435 7.96257L22.5415 6.66113C22.5385 4.76341 24.1128 3.21394 26.0314 3.21369L36.1261 3.21245C36.5629 3.21245 36.9134 3.58946 36.9137 4.00467L36.9151 7.85616C36.9159 9.72387 35.4257 11.3614 33.4932 11.3609L33.493 11.3611ZM33.4925 9.73776C34.5033 9.66955 35.2732 8.88725 35.2754 7.89511L35.2821 4.84675L26.1288 4.84254C25.0553 4.84204 24.1768 5.62434 24.1748 6.71867L24.1728 7.85344C24.1708 8.91478 25.0152 9.73925 26.0795 9.739L33.4925 9.73801V9.73776Z" fill="black"/>
<path d="M122.36 11.361L114.794 11.3595C112.937 11.3592 111.419 9.77551 111.408 7.96213L111.401 6.76486C111.389 4.78802 112.965 3.20804 114.947 3.20853L124.991 3.21176C125.431 3.21176 125.777 3.58951 125.777 4.00448L125.772 7.93509C125.77 9.76807 124.251 11.361 122.36 11.3607L122.36 11.361ZM122.358 9.73831C123.368 9.66712 124.138 8.88705 124.14 7.89441L124.147 4.84606L114.994 4.84184C113.945 4.84135 113.044 5.59488 113.044 6.66713L113.042 7.90781C113.041 8.90541 113.873 9.73459 114.895 9.73508L122.358 9.73831H122.358Z" fill="black"/>
<path d="M71.8833 13.1008C71.2907 13.8025 70.4164 13.804 69.7608 13.2484L59.9587 4.94272L59.9466 12.8044C59.9458 13.2812 59.5641 13.6182 59.1276 13.6182C58.7044 13.6182 58.314 13.2809 58.3143 12.8025L58.3177 5.13147C58.318 4.54016 58.5583 3.99101 58.9698 3.61027C59.4768 3.14099 60.2683 3.06187 60.8162 3.52569L70.6319 11.8371C70.6597 11.8371 70.7093 11.8212 70.7542 11.8014L70.7579 4.03987C70.7579 3.56563 71.16 3.24839 71.5742 3.24913C72.0333 3.25012 72.3935 3.59638 72.3932 4.09072L72.3863 11.664C72.3858 12.2052 72.2204 12.702 71.8835 13.1008H71.8833Z" fill="black"/>
<path d="M77.6498 10.2765C77.8951 11.0146 78.5584 12.01 79.1971 12.0105L89.2968 12.0179C89.7745 12.0182 90.0913 12.4113 90.0913 12.8337C90.0913 13.2549 89.7745 13.65 89.2971 13.65L79.1921 13.6473C77.7853 13.6468 76.6565 12.3104 76.1745 11.0045C75.5433 9.29375 75.5577 7.38835 76.2244 5.69302C76.7259 4.41788 77.8369 3.1772 79.2442 3.17695L89.2993 3.17621C89.7728 3.17621 90.1027 3.58175 90.0943 4.00713C90.0861 4.41763 89.7517 4.80952 89.2874 4.80952L79.242 4.81275C78.5361 4.81275 77.9066 5.79422 77.658 6.52593C77.2455 7.74105 77.2458 9.0606 77.6498 10.2765Z" fill="black"/>
<path d="M42.572 11.6603C42.7635 11.8354 43.0301 12.0152 43.293 12.0152L53.3449 12.0179C53.8241 12.0179 54.1639 12.4019 54.1639 12.835C54.1639 13.2658 53.8234 13.6527 53.3449 13.6525L43.2377 13.6458C42.5368 13.6453 41.9162 13.2884 41.4248 12.8313C39.2907 10.847 39.2466 6.25014 41.2693 4.14978C41.7612 3.63907 42.4336 3.19013 43.1874 3.18914L53.2933 3.17425C53.7894 3.17351 54.1403 3.49298 54.1622 3.96201C54.183 4.41071 53.8417 4.81129 53.338 4.81153L43.2868 4.81625C42.9239 4.81625 42.6216 5.10198 42.4046 5.33762C41.0664 6.79036 41.0714 10.2872 42.5717 11.6603H42.572Z" fill="black"/>
<path d="M141.679 3.10421C142.056 2.82194 142.58 2.89859 142.845 3.27287C143.11 3.64517 143.03 4.13554 142.651 4.42301L140.709 5.89535C138.122 7.99249 134.438 8.15049 131.726 6.18158L129.36 4.39722C128.994 4.1214 128.948 3.62037 129.19 3.27585C129.456 2.89809 129.979 2.8212 130.356 3.10322L132.822 4.94711C134.732 6.26318 137.303 6.26666 139.213 4.94835L141.678 3.10396L141.679 3.10421Z" fill="black"/>
<path d="M23.434 14.8853C23.053 14.5457 23.111 14.0003 23.4141 13.6987C23.7785 13.3358 24.2701 13.4258 24.6377 13.7545C25.0961 14.1645 25.6594 14.418 26.2599 14.6171C28.5916 15.3905 31.1164 15.3975 33.4534 14.641C34.0918 14.4343 34.6893 14.1699 35.1742 13.7274C35.5225 13.41 35.965 13.2966 36.3479 13.5928C36.6979 13.8634 36.7929 14.4515 36.437 14.7957C35.7755 15.4357 34.9659 15.8534 34.0735 16.1552C31.3364 17.0814 28.3307 17.0667 25.6018 16.1197C24.7927 15.839 24.0719 15.4538 23.434 14.885V14.8853Z" fill="black"/>
<path d="M112.216 14.9711C111.806 14.6375 111.756 14.1042 112.073 13.7413C112.41 13.3566 112.941 13.3946 113.322 13.7406C113.735 14.1166 114.239 14.3666 114.786 14.5589C117.25 15.424 119.963 15.4146 122.422 14.5526C123.066 14.3269 123.581 13.999 124.084 13.5759C124.441 13.2758 124.986 13.4345 125.211 13.7691C125.481 14.1709 125.368 14.6268 124.997 14.9383C124.287 15.5349 123.474 15.9419 122.566 16.2286C119.969 17.0486 117.164 17.0447 114.57 16.214C113.699 15.9349 112.925 15.548 112.216 14.9711Z" fill="black"/>
<path d="M18.8828 12.7804C18.8828 13.2909 18.5562 13.6195 18.1075 13.6495C17.7156 13.6756 17.2508 13.3727 17.2508 12.9035V3.94367C17.2508 3.46571 17.7069 3.16633 18.1104 3.19138C18.5534 3.21891 18.8823 3.56021 18.8823 4.04388V12.7804H18.8828Z" fill="black"/>
<path d="M87.6859 9.23033L79.1929 9.23158C78.713 9.23158 78.3647 8.85977 78.3612 8.42075C78.3578 7.98173 78.7023 7.59529 79.1922 7.59529H87.6618C88.14 7.59504 88.4779 7.93485 88.4997 8.37833C88.5205 8.80347 88.1953 9.23033 87.6859 9.23033Z" fill="black"/>
<path d="M51.7808 9.22836L43.1948 9.22737C42.7173 9.22737 42.4122 8.77644 42.4338 8.3776C42.4586 7.92345 42.8081 7.59505 43.289 7.59505L51.7088 7.59431C52.186 7.59431 52.5479 7.92047 52.5717 8.37587C52.5928 8.78339 52.2902 9.22812 51.7808 9.22812V9.22836Z" fill="black"/>
<path d="M136.837 12.8193C136.837 13.2987 136.459 13.6415 136.038 13.6517C135.614 13.6619 135.205 13.3223 135.205 12.8607L135.203 9.63774C135.203 9.15531 135.594 8.81203 136.039 8.8217C136.484 8.83137 136.838 9.18011 136.838 9.65981L136.837 12.8193H136.837Z" fill="black"/>
<path d="M36.2166 1.67424L32.6732 1.67225C32.3515 1.67225 32.1387 1.39743 32.1387 1.10673V0.572217C32.1387 0.230425 32.3847 0 32.7213 0L36.7045 0.00173625L36.7025 1.16229C36.702 1.42844 36.4934 1.62686 36.2166 1.67424Z" fill="black"/>
<path d="M125.18 1.67473L121.637 1.67176C121.363 1.67176 121.125 1.42819 121.125 1.16701L121.124 0.511201C121.124 0.252252 121.362 0.00272839 121.636 0.00248035L125.68 0L125.686 1.11343C125.687 1.40363 125.498 1.62934 125.18 1.67449V1.67473Z" fill="black"/>
</g>
<defs>
<clipPath id="clip0_4502_2766">
<rect width="142.585" height="16.7922" fill="white" transform="scale(1.00291)"/>
</clipPath>
</defs>
</svg>
