<svg width="80" height="15" viewBox="0 0 80 15" fill="none" xmlns="http://www.w3.org/2000/svg">
<g clip-path="url(#clip0_4502_2795)">
<path d="M70.0667 9.86562L70.0622 7.40717L74.1546 7.3845C75.4197 7.37725 76.3869 6.29488 76.4336 5.07925C76.4789 3.90034 75.5987 2.65253 74.3029 2.6412L68.8489 2.59406L68.8434 14.6588L66.099 14.6692L66.0885 1.76868C66.0876 0.899797 66.5735 0.150567 67.5 0.151927L74.5182 0.159633C76.759 0.161899 78.6079 1.85616 79.0661 3.91983C79.5651 6.1657 78.5041 8.40433 76.3815 9.40783L79.9985 14.6171L76.6874 14.6783L73.8963 10.7241C73.5224 10.1947 72.9232 9.87015 72.2768 9.86924L70.0663 9.86653L70.0667 9.86562Z" fill="#0B4FB8"/>
<path d="M10.0335 6.1601C12.4353 6.1592 14.3399 7.75556 14.5311 10.0803C14.7124 12.2849 13.1097 14.5222 10.7138 14.6269L0.45896 14.6804L1.56218 12.2432L9.9569 12.231C10.9708 12.2296 11.7559 11.4319 11.7894 10.5077C11.8261 9.49877 11.0379 8.63986 9.98319 8.64303L4.55139 8.65799C2.14688 8.66433 0.17069 7.04576 0.00978497 4.67479C-0.145681 2.39039 1.56762 0.177602 3.99389 0.17307L13.1492 0.155846L12.0369 2.59118L4.37281 2.62563C3.41146 2.63016 2.73928 3.57338 2.75515 4.42641C2.77101 5.27943 3.51072 6.16282 4.44578 6.16237L10.0335 6.1601Z" fill="#0B4FB8"/>
<path d="M50.1729 14.6669L47.1361 14.6497L50.0356 8.47141C50.3769 7.74348 51.1832 7.39946 51.9397 7.39856L58.3011 7.38994L56.0947 2.66114C56.0185 2.49797 55.6672 2.69695 55.679 2.87145L54.118 6.18837L51.1107 6.1716L53.3964 1.23883C53.7173 0.545805 54.4806 0.15102 55.2131 0.151927L56.7242 0.15374C57.56 0.154647 58.22 0.665464 58.5749 1.42738L64.7301 14.6515L61.6996 14.6665L59.6468 10.2735C59.5389 10.0428 59.3332 9.86924 59.0644 9.86879L52.9767 9.85655C52.6826 9.8561 52.383 9.92907 52.2465 10.221L50.1724 14.6665L50.1729 14.6669Z" fill="#0B4FB8"/>
<path d="M37.6111 7.38492L47.284 7.41438L46.1577 9.85969L37.6315 9.86604L37.6038 14.6742L34.8576 14.6701L34.883 3.62201C34.8875 1.62315 36.5931 0.133308 38.552 0.139201L47.9961 0.166849L46.9051 2.58541L38.9301 2.61623C38.2588 2.61895 37.6324 3.26847 37.6292 3.90665L37.6115 7.38447L37.6111 7.38492Z" fill="#0B4FB8"/>
<path d="M29.091 9.85401C29.2628 8.44711 29.2537 7.15534 29.1712 5.73574L31.9365 5.7294C31.9778 7.27998 32.0186 8.72813 31.8454 10.2601C31.5875 12.5432 29.7999 14.382 27.4919 14.6535C25.3576 14.9046 23.322 14.8394 21.1844 14.7174C18.7292 14.5774 16.6718 12.739 16.3985 10.2696C16.195 8.43487 16.2345 6.69483 16.3573 4.84737C16.5155 2.46461 18.2555 0.48706 20.6478 0.172502C22.5252 -0.0740687 24.3654 -0.000188275 26.2532 0.0551087L26.2396 2.53668C24.7701 2.43923 23.4203 2.41067 22.0275 2.54302C20.457 2.58517 19.2472 3.73553 19.1036 5.29201C18.9739 6.69982 18.9862 8.06003 19.0949 9.4624C19.2173 11.0402 20.394 12.1774 21.9722 12.2812C23.463 12.3791 24.883 12.4095 26.3747 12.2653C27.7204 12.1352 28.8209 11.2369 29.091 9.85446V9.85401Z" fill="#0B4FB8"/>
<path d="M31.199 4.49419L28.1545 4.50189C27.757 4.5028 27.4769 4.21 27.476 3.82065L27.4706 0.825549C27.4697 0.424419 27.7674 0.150653 28.1495 0.15292L31.2543 0.16969C31.4859 0.17105 31.8132 0.482889 31.8146 0.72402L31.8268 3.82337C31.8282 4.14609 31.5816 4.49328 31.1995 4.49464L31.199 4.49419Z" fill="#0B4FB8"/>
</g>
<defs>
<clipPath id="clip0_4502_2795">
<rect width="79.7059" height="14.7715" fill="white" transform="scale(1.00369)"/>
</clipPath>
</defs>
</svg>
