<svg width="104" height="94" viewBox="0 0 104 94" fill="none" xmlns="http://www.w3.org/2000/svg">
<path d="M68.9048 74.2876L46.4119 74.2738C45.3875 74.2738 44.7997 73.2634 44.8593 72.42C44.9221 71.5333 45.6303 70.7787 46.6333 70.7787L68.7322 70.7755C70.5925 70.5039 71.8704 69.0179 71.9396 67.1811C72.0099 65.1487 70.6351 63.4344 68.5981 63.1121L51.0951 63.0878C49.6266 63.0856 48.3659 62.5646 47.1328 61.9199C41.6115 59.0346 35.2117 56.9325 29.0334 58.6245C26.728 59.2946 24.5813 60.1602 22.4505 61.2667L16.7844 64.2112L18.7629 71.824L22.0555 84.3089C25.0179 83.5142 28.0431 83.3969 31.0801 83.8122L37.4075 85.0593L46.7633 87.376L53.2109 88.6866C56.4619 89.2087 59.6107 89.0142 62.7797 88.1782C66.6579 87.1551 70.1506 85.3838 73.194 82.7902L77.7856 78.569L92.6169 63.5359L98.6259 57.7716C99.6524 56.7866 100.5 55.6631 100.467 54.2025C100.416 51.9503 98.4374 50.3597 96.1746 50.5277C94.9031 50.6218 93.7009 51.0604 92.7032 51.9154L79.8717 62.8943C79.1742 63.4915 78.1211 63.2833 77.5492 62.7052C77.0083 62.1588 76.806 60.9655 77.5205 60.342L89.6843 49.7509C92.356 47.4247 96.0074 46.222 99.3478 47.5537C102.077 48.6423 103.931 51.1376 103.998 54.0842C104.051 56.4463 103.005 58.5981 101.235 60.1496L94.9532 66.1643L86.8816 74.4112L78.8164 82.4531C77.2617 84.0035 75.6612 85.3563 73.9202 86.6795C69.8024 89.8079 64.5293 91.7441 59.3796 92.3339C57.1328 92.5918 54.9818 92.4692 52.7626 92.1405L45.758 90.7316L35.3736 88.1793L30.0025 87.1837C27.5096 86.8708 25.0605 87.078 22.6507 87.7755C22.4782 89.2446 21.523 90.7549 19.9779 91.2389L11.392 93.9276C9.45825 94.2806 7.3328 93.3295 6.80357 91.3489L0.139717 66.4095C-0.501324 64.0125 1.15026 61.6197 3.3215 60.7499L11.4719 58.2884C13.3535 57.7198 15.3522 58.8919 15.8665 60.7151C18.5202 59.2946 21.1024 57.9196 23.8583 56.7412C28.5223 54.7468 32.6337 54.0186 37.696 54.8821C40.8075 55.4127 43.7412 56.3396 46.5641 57.7135L49.9237 59.3485C50.3082 59.5356 50.8715 59.6053 51.3368 59.6074L68.6279 59.6761C72.4507 59.6909 75.3301 63.0772 75.427 66.7382C75.5963 70.6012 72.8192 73.8616 68.9058 74.2886L68.9048 74.2876ZM10.7563 90.4336L18.4318 88.1158C18.9695 87.9531 19.2134 87.3707 19.0856 86.8825L16.5108 77.064L12.4409 61.6197L4.48858 64.1129C3.62392 64.3835 3.43863 65.4097 3.72188 66.1411L7.0389 78.4897L10.0652 89.9326C10.143 90.2254 10.4017 90.5414 10.7563 90.4336Z" fill="#036B53"/>
<path d="M81.9256 32.3685L77.4168 37.0845L61.5394 52.2413C60.4573 53.2748 58.6202 53.2336 57.4993 52.2326C52.2187 47.5198 47.1353 42.6782 42.0843 37.6841C40.0082 35.6312 38.0369 33.587 36.1599 31.3621C32.5088 27.0356 30.1454 22.2027 30.0048 16.3893C29.8444 9.74157 33.6811 3.66957 39.6128 1.20116C46.2062 -1.54104 53.6846 0.522642 58.0823 6.26243L59.5262 8.32719C60.4919 6.79485 61.552 5.41942 62.8575 4.21281C67.1293 0.262924 73.0411 -1.01944 78.4811 0.84188C84.5491 2.91747 88.7151 8.63128 88.9835 15.2465C89.1345 18.9767 88.2432 22.6096 86.512 25.9058C85.2643 28.2844 83.7963 30.4087 81.9235 32.3674L81.9256 32.3685ZM82.0106 26.3982C85.9511 20.8424 87.0688 13.1883 82.5925 7.91813C77.9662 2.47162 69.951 2.20973 64.9189 7.24827C63.301 8.86827 62.0553 10.8075 61.0697 12.9588C60.7928 13.5638 60.0861 13.8462 59.5209 13.8473C58.9557 13.8484 58.3004 13.5897 58.0047 13.0281C57.3126 11.7133 56.6646 10.4493 55.7985 9.24378C54.5948 7.56859 53.1467 6.17693 51.3746 5.17377C46.3331 2.32011 40.0155 3.53538 36.3109 8.06422C32.3169 12.948 32.9482 19.8836 36.1337 25.1202C37.2976 27.0345 38.6492 28.7184 40.156 30.3708C42.0529 32.4507 43.9392 34.417 45.986 36.3617L59.5304 49.2286L67.6662 41.4933L77.5175 31.7798C79.2025 30.1176 80.6086 28.3721 82.0106 26.396V26.3982Z" fill="#036B53"/>
</svg>
