<svg width="426" height="93" viewBox="0 0 426 93" fill="none" xmlns="http://www.w3.org/2000/svg">
<path d="M201.414 0L201.414 93" stroke="#062E25" stroke-opacity="0.3"/>
<path d="M294.417 21.9051C294.829 22.7567 295.203 23.6291 295.658 24.4567C297.07 27.0275 298.797 29.3598 300.715 31.5944C302.258 33.3936 303.956 34.972 305.823 36.3854C307.652 37.7717 309.727 38.7001 312.014 38.9466C312.935 39.0459 313.995 38.9386 314.825 38.5593C316.333 37.8693 317.825 37.0465 319.131 36.0317C322.656 33.2976 325.265 29.7023 328.083 26.2943C330.556 23.3041 332.968 20.2291 336.096 17.8488C338.075 16.3441 340.205 15.0827 342.755 15.0507C345.195 15.0187 347.215 16.1136 348.816 17.9544C351.193 20.6901 350.757 24.2774 349.004 27.1827C347.591 29.5246 345.809 31.5688 343.895 33.5121C341.595 35.8476 339.283 38.1735 337.081 40.6002C335.693 42.1289 334.417 43.7537 333.508 45.6682C332.76 47.2417 333.047 48.6472 333.93 49.8877C335.363 51.8983 336.901 53.8496 338.553 55.6857C341.209 58.6374 344.047 61.4227 346.699 64.3761C348.436 66.3082 349.895 68.4644 350.34 71.1201C350.801 73.8846 349.789 76.0792 347.665 77.8192C344.412 80.4813 340.62 79.905 337.301 77.6703C334.458 75.7542 332.216 73.2203 330.007 70.6559C327.085 67.2655 324.243 63.7983 320.881 60.8209C319.011 59.1641 317.039 57.6498 314.716 56.5997C311.72 55.2455 308.903 55.6585 306.152 57.1664C303.939 58.3797 302.098 60.0733 300.342 61.8742C297.814 64.4642 295.773 67.4015 294.019 70.547C293.635 71.2369 293.348 71.9797 293.015 72.6984C293.074 72.7592 293.135 72.8217 293.194 72.8825C294.475 72.0133 295.791 71.1921 297.028 70.2669C300.663 67.5536 303.863 64.3521 307.124 61.2163C309.346 59.0793 312.387 59.2841 314.441 61.8485C314.603 62.0502 314.595 62.5897 314.438 62.8106C313.854 63.6334 313.218 64.429 312.523 65.1605C310.527 67.2671 308.566 69.4153 306.457 71.4034C303.231 74.4416 299.762 77.1885 295.818 79.2599C293.86 80.2876 291.797 80.8975 289.524 80.6782C287.469 80.4797 285.421 78.4083 285.269 76.3449C285.064 73.5708 286.061 71.1265 287.18 68.6917C288.906 64.9332 291.233 61.5604 293.937 58.4678C296.972 54.9957 300.414 51.9655 304.725 50.1423C309.213 48.2438 313.686 48.3911 318.075 50.5473C322.477 52.7083 326.019 55.9642 329.32 59.4938C332.067 62.4312 334.622 65.5511 337.428 68.4292C338.806 69.8427 340.541 70.9136 342.16 72.0773C342.472 72.303 342.99 72.2422 343.415 72.3126C343.322 71.8932 343.351 71.3842 343.117 71.0689C342.102 69.7018 341.089 68.3188 339.931 67.075C337.172 64.1088 334.249 61.2931 331.547 58.2773C329.286 55.7529 327.244 53.022 326.468 49.606C325.943 47.3025 326.219 45.0599 327.172 42.8909C328.633 39.5613 330.99 36.8801 333.436 34.2789C335.352 32.2411 337.413 30.3378 339.299 28.2728C340.673 26.7697 341.881 25.113 343.122 23.493C343.309 23.2481 343.28 22.8351 343.351 22.5005C342.971 22.5326 342.528 22.4509 342.224 22.619C341.385 23.0784 340.548 23.5746 339.815 24.1829C338.692 25.1146 337.61 26.1038 336.602 27.1587C335.352 28.4665 334.202 29.872 332.997 31.2246C330.45 34.0836 328.004 37.0433 325.313 39.7598C323.026 42.0713 320.356 43.9458 317.233 45.0583C314.604 45.9931 311.922 46.1772 309.221 45.5033C307.788 45.1447 306.29 44.8022 305.018 44.0994C303.165 43.0766 301.389 41.8552 299.767 40.4962C298.022 39.0331 296.415 37.3811 294.894 35.6795C293.697 34.3381 292.591 32.875 291.683 31.3255C290.26 28.8955 288.988 26.3728 287.752 23.8404C286.809 21.9099 286.566 19.8305 286.892 17.6935C287.145 16.0319 289.313 14.1911 290.997 14.0406C294.318 13.7412 297.068 15.1403 299.724 16.8307C302.719 18.7372 305.389 21.0583 308.059 23.3906C310.883 25.8573 313.253 28.7227 315.69 31.5384C316.466 32.4364 316.408 32.5196 315.546 33.3504C314.435 34.4197 313.151 35.116 311.59 34.8583C310.755 34.7207 309.901 34.3797 309.181 33.9299C308.357 33.4128 307.659 32.6893 306.93 32.0282C304.369 29.7007 301.869 27.2996 299.242 25.0473C297.806 23.8148 296.162 22.8239 294.613 21.7226C294.545 21.7834 294.478 21.8442 294.411 21.9051H294.417Z" fill="#062E25"/>
<path d="M357.876 54.631C357.853 55.052 357.824 55.3305 357.824 55.609C357.82 57.6884 357.845 59.7694 357.812 61.8488C357.783 63.5616 356.734 64.855 355.162 65.2263C353.674 65.5785 352.094 64.9142 351.364 63.5183C351.092 62.9965 350.93 62.3514 350.927 61.7623C350.898 54.322 350.776 46.8786 350.954 39.4431C351.082 34.1046 353.282 29.5488 357.459 26.1393C362.835 21.7548 368.895 20.7848 375.316 23.3428C380.595 25.4461 384.09 29.4256 385.693 34.889C387.51 41.0806 386.311 46.7697 382.308 51.8153C380.081 54.6214 377.203 56.5519 373.742 57.5572C368.975 58.9418 364.412 58.4296 360.072 56.0188C359.361 55.625 358.695 55.1512 357.877 54.631H357.876ZM379.569 40.3667C379.609 37.9512 379.004 35.9999 377.941 34.1574C374.482 28.1578 366.204 27.0117 361.247 31.8587C357.245 35.7726 356.627 42.3532 359.92 46.8738C362.51 50.4274 366.059 52.0938 370.422 51.3543C375.927 50.421 379.577 45.7756 379.569 40.3667Z" fill="#062E25"/>
<path d="M280.415 56.0697C278.166 57.7921 275.615 58.9815 272.778 59.4393C267.545 60.2845 262.853 59.0327 258.724 55.6647C256.723 54.0336 255.111 52.0726 253.998 49.7868C252.322 46.3436 251.639 42.6923 252.184 38.8344C252.87 33.9858 255.101 29.9935 258.821 26.8865C261.296 24.8199 264.206 23.5761 267.441 23.1519C270.948 22.6925 274.292 23.1903 277.465 24.7735C281.337 26.7056 284.124 29.6878 285.915 33.6064C287.11 36.2172 287.599 38.9673 287.572 41.8407C287.527 46.747 287.569 51.6548 287.55 56.5611C287.545 58.0899 286.583 59.2888 285.099 59.7418C283.722 60.1612 282.141 59.7178 281.413 58.5397C280.964 57.8161 280.758 56.9437 280.417 56.0713L280.415 56.0697ZM280.643 39.5004C280.601 37.3426 279.053 34.1058 275.735 31.7415C270.398 27.9414 262.738 29.9855 259.881 36.5678C257.691 41.6134 259.177 47.3584 263.324 50.5647C265.813 52.4888 268.667 53.286 271.75 52.6201C277.193 51.4419 280.635 46.9919 280.643 39.5004Z" fill="#062E25"/>
<path d="M425.823 39.8927C425.751 45.0503 423.912 49.4635 420.317 53.0796C417.371 56.0426 413.765 57.717 409.552 58.146C401.86 58.9288 394.623 54.1937 391.697 47.2561C390.106 43.4847 389.802 39.5917 390.663 35.6603C392.185 28.7066 397.732 23.1408 404.788 21.7962C408.071 21.1703 411.332 21.4056 414.362 22.6974C420.301 25.2282 423.987 29.7647 425.361 36.0989C425.63 37.3395 425.676 38.6281 425.823 39.8943V39.8927ZM418.86 38.5368C418.954 36.8576 417.837 34.3012 415.955 32.0218C413.497 29.046 408.868 27.6389 405.218 28.7274C397.56 31.0117 394.615 40.3233 399.31 46.8063C402.577 51.3172 408.346 52.7035 412.94 50.0846C416.862 47.8468 418.761 44.378 418.86 38.5368Z" fill="#062E25"/>
<path d="M111.534 36.1665C111.112 37.5113 110.689 38.8582 110.268 40.203C108.905 44.5548 107.54 48.9066 106.183 53.2625C105.42 55.7121 104.659 58.1636 103.923 60.6234C103.739 61.2358 103.398 61.5308 102.761 61.5287C100.116 61.5226 97.4711 61.5165 94.8262 61.5328C94.1589 61.5369 93.87 61.1869 93.6849 60.6051C92.8955 58.1209 92.104 55.6368 91.276 53.1649C90.4398 50.6685 89.5182 48.2007 88.7105 45.6962C87.5284 42.028 86.444 38.3272 85.264 34.659C83.7829 30.0488 82.2468 25.4548 80.7332 20.8548C80.6721 20.6697 80.5846 20.4927 80.6986 20.57C79.4596 21.634 78.1331 22.6147 76.9978 23.7804C74.7802 26.053 72.6867 28.4415 70.5098 30.7547C68.6645 32.716 66.7825 34.6447 64.8945 36.5653C64.5181 36.9498 64.4408 37.2387 64.7806 37.6924C66.8721 40.4838 68.9452 43.2893 71.0164 46.097C72.6643 48.3288 74.296 50.5729 75.9439 52.8068C77.8523 55.3926 79.7749 57.9683 81.6792 60.5562C81.8094 60.7332 81.9824 61.0526 81.9111 61.1625C81.7931 61.3456 81.4961 61.5125 81.2723 61.5145C78.0171 61.5348 74.7619 61.5613 71.5087 61.4901C71.0733 61.4799 70.5321 61.0425 70.2412 60.6519C67.8079 57.4007 65.4214 54.1109 63.0187 50.8374C61.6006 48.9046 60.1683 46.9799 58.7605 45.039C58.0891 44.1113 57.4767 44.0564 56.7178 44.9027C55.7697 45.9627 54.7627 46.9759 53.8878 48.0928C53.5053 48.5811 53.1961 49.2728 53.1859 49.8791C53.1208 53.3703 53.133 56.8636 53.1676 60.3548C53.1757 61.2459 52.9641 61.604 51.9672 61.5694C49.5624 61.484 47.1536 61.5145 44.7468 61.5511C43.8638 61.5653 43.5566 61.2358 43.5586 60.3609C43.5749 47.0369 43.5749 33.7109 43.5586 20.3869C43.5586 19.5283 43.8251 19.1621 44.7264 19.1784C47.1332 19.2191 49.5421 19.2211 51.9469 19.1784C52.8929 19.1601 53.1757 19.5324 53.1696 20.4398C53.1411 25.4915 53.1554 30.5431 53.1574 35.5948C53.1574 35.9224 53.1859 36.252 53.2124 36.7972C55.67 34.2276 57.9894 31.8127 60.2965 29.3875C62.2517 27.3327 64.2068 25.2758 66.1437 23.2047C67.1955 22.0796 68.1375 20.8406 69.2707 19.8091C69.7305 19.39 70.5688 19.2211 71.2361 19.217C76.7618 19.1723 82.2896 19.1926 87.8153 19.1906C89.9332 19.1906 89.8925 19.2028 90.5497 21.2617C91.7338 24.9666 92.9911 28.649 94.1853 32.3518C95.3145 35.8532 96.3928 39.3688 97.5077 42.8743C97.9838 44.3717 98.5005 45.8569 98.997 47.3462C99.1048 47.3482 99.2126 47.3502 99.3225 47.3523C99.5748 46.687 99.8576 46.0319 100.075 45.3564C101.211 41.8265 102.334 38.2926 103.455 34.7566C104.673 30.9155 105.888 27.0743 107.1 23.2311C107.426 22.1976 107.751 21.1641 108.061 20.1265C108.25 19.4897 108.636 19.1824 109.32 19.1885C110.98 19.2048 112.644 19.1418 114.303 19.2191C114.638 19.2353 115.131 19.6626 115.247 20.0024C116.056 22.3705 116.787 24.7672 117.544 27.1537C119.112 32.0853 120.687 37.0149 122.247 41.9506C122.845 43.8448 123.413 45.7511 124.054 47.8446C124.257 47.5435 124.377 47.4296 124.42 47.2933C126.573 40.6628 128.723 34.0323 130.863 27.3998C131.641 24.991 132.406 22.578 133.148 20.157C133.344 19.5202 133.659 19.1824 134.363 19.1885C136.939 19.2069 139.516 19.2069 142.094 19.1885C142.908 19.1824 143.093 19.4856 142.845 20.2506C141.303 24.9869 139.785 29.7293 138.267 34.4718C137.061 38.2377 135.883 42.0137 134.662 45.7755C133.812 48.396 132.898 50.994 132.037 53.6124C131.311 55.8219 130.587 58.0314 129.936 60.2633C129.665 61.193 129.214 61.5857 128.215 61.5592C125.842 61.4982 123.468 61.5145 121.096 61.5552C120.266 61.5694 119.8 61.3232 119.535 60.4789C117.336 53.468 115.1 46.4673 112.868 39.4665C112.514 38.3577 112.12 37.2611 111.745 36.1584C111.676 36.1645 111.607 36.1706 111.536 36.1767L111.534 36.1665Z" fill="#062E25"/>
<path d="M23.4351 53.4088C25.8867 53.5024 28.8774 52.06 31.5467 49.8057C33.1845 48.4243 33.156 48.4223 34.3869 50.119C35.455 51.592 36.5272 53.0691 37.6746 54.481C38.287 55.2358 38.1772 55.7994 37.5343 56.3914C34.4825 59.2072 31.0076 61.1766 26.8612 61.8846C23.3395 62.4868 19.832 62.4604 16.3835 61.5611C12.7356 60.611 9.45396 58.9285 6.71145 56.2551C2.34539 51.9949 0.253909 46.7886 0.017906 40.7501C-0.110268 37.4746 0.451256 34.2946 1.65162 31.3019C3.06153 27.7923 5.32187 24.8199 8.42043 22.5535C13.6105 18.7571 19.3986 17.4062 25.7463 18.2342C29.5325 18.7286 32.9363 20.1121 35.9331 22.4721C36.6737 23.056 37.3573 23.7274 37.99 24.4273C38.1589 24.6124 38.1812 25.1576 38.0307 25.3672C36.6391 27.3183 35.1905 29.2267 33.7704 31.1574C33.333 31.7515 32.922 31.6416 32.4032 31.249C31.1378 30.2907 29.9211 29.2348 28.5458 28.4658C22.601 25.1434 14.3368 26.9806 11.163 33.6761C8.66457 38.9435 9.02468 44.044 12.522 48.7112C14.9065 51.8931 18.2919 53.3804 23.4371 53.4048L23.4351 53.4088Z" fill="#062E25"/>
<path d="M151.401 56.578C151.625 59.9492 148.467 62.3418 145.869 62.358C142.028 62.3824 140 59.2676 140.004 56.6756C140.01 53.394 142.456 50.9566 145.705 50.9241C149.157 50.8915 151.47 53.9148 151.401 56.578Z" fill="#062E25"/>
</svg>
