<svg width="100" height="114" viewBox="0 0 100 114" fill="none" xmlns="http://www.w3.org/2000/svg">
<path d="M99.25 19.9014L99.25 79.5244C99.2498 90.0811 90.6089 98.6748 79.9756 98.6748L64.2373 98.6748C64.0299 98.6748 63.8312 98.7607 63.6894 98.9121L50.5635 112.933C50.5399 112.958 50.5214 112.986 50.5019 113.014C50.1486 113.326 49.6076 113.331 49.2412 113.015L49.166 112.942L36.04 98.9228C35.8982 98.7714 35.6997 98.6846 35.4922 98.6846L20.0244 98.6846C9.39104 98.6846 0.75005 90.0909 0.749997 79.5342L0.749999 19.9014C0.75 9.34456 9.39101 0.749996 20.0244 0.749997L79.9756 0.749999C90.609 0.75 99.25 9.34457 99.25 19.9014Z" stroke="#052E25" stroke-width="1.5" stroke-linejoin="round"/>
<path d="M56.2344 69.7096H44.2344M56.2344 69.7096C56.2344 67.9978 56.2344 67.1419 56.3258 66.574C56.6205 64.7426 56.6721 64.6273 57.8404 63.1861C58.2027 62.7392 59.5477 61.5353 62.2374 59.1279C65.9181 55.8334 68.2344 51.0467 68.2344 45.7193C68.2344 35.7822 60.1755 27.7266 50.2344 27.7266C40.2932 27.7266 32.2344 35.7822 32.2344 45.7193C32.2344 51.0467 34.5506 55.8334 38.2314 59.1279C40.9211 61.5353 42.2661 62.7392 42.6283 63.1861C43.7967 64.6273 43.8482 64.7426 44.143 66.574C44.2344 67.1419 44.2344 67.9978 44.2344 69.7096M56.2344 69.7096C56.2344 71.9518 56.2344 73.0729 55.7521 73.9079C55.4361 74.455 54.9816 74.9093 54.4344 75.2251C53.599 75.7072 52.4775 75.7072 50.2344 75.7072C47.9913 75.7072 46.8698 75.7072 46.0344 75.2251C45.4871 74.9093 45.0327 74.455 44.7167 73.9079C44.2344 73.0729 44.2344 71.9518 44.2344 69.7096" stroke="#036B53" stroke-width="1.5"/>
<path d="M52.2339 43.7207L47.2339 50.7179H54.2339L49.2339 57.7151" stroke="#036B53" stroke-width="1.5" stroke-linecap="round" stroke-linejoin="round"/>
</svg>
