<svg width="38" height="38" viewBox="0 0 38 38" fill="none" xmlns="http://www.w3.org/2000/svg">
<circle cx="19" cy="19" r="19" fill="#062E25"/>
<path d="M14.4746 22.3427C14.2793 22.538 14.2793 22.8546 14.4746 23.0498C14.6698 23.2451 14.9864 23.2451 15.1817 23.0498L14.8281 22.6963L14.4746 22.3427ZM22.7174 15.307C22.7174 15.0309 22.4935 14.807 22.2174 14.807L17.7174 14.807C17.4412 14.807 17.2174 15.0309 17.2174 15.307C17.2174 15.5832 17.4412 15.807 17.7174 15.807L21.7174 15.807L21.7174 19.807C21.7174 20.0832 21.9412 20.307 22.2174 20.307C22.4935 20.307 22.7174 20.0832 22.7174 19.807L22.7174 15.307ZM14.8281 22.6963L15.1817 23.0498L22.5709 15.6606L22.2174 15.307L21.8638 14.9535L14.4746 22.3427L14.8281 22.6963Z" fill="white"/>
</svg>
