<svg width="38" height="38" viewBox="0 0 38 38" fill="none" xmlns="http://www.w3.org/2000/svg">
<circle cx="19" cy="19" r="19" fill="#062E25"/>
<path d="M14.4726 22.3418C14.2774 22.537 14.2774 22.8536 14.4726 23.0489C14.6679 23.2441 14.9845 23.2441 15.1797 23.0489L14.8262 22.6953L14.4726 22.3418ZM22.7154 15.306C22.7154 15.0299 22.4916 14.806 22.2154 14.806L17.7154 14.806C17.4393 14.806 17.2154 15.0299 17.2154 15.306C17.2154 15.5822 17.4393 15.806 17.7154 15.806L21.7154 15.806L21.7154 19.806C21.7154 20.0822 21.9393 20.306 22.2154 20.306C22.4916 20.306 22.7154 20.0822 22.7154 19.806L22.7154 15.306ZM14.8262 22.6953L15.1797 23.0489L22.569 15.6596L22.2154 15.306L21.8619 14.9525L14.4726 22.3418L14.8262 22.6953Z" fill="white"/>
</svg>
