<svg width="142" height="142" viewBox="0 0 142 142" fill="none" xmlns="http://www.w3.org/2000/svg">
<circle cx="71" cy="71" r="70.5" fill="#062E25" stroke="#B7FE1A"/>
<g filter="url(#filter0_d_1371_2121)">
<mask id="path-2-inside-1_1371_2121" fill="white">
<path d="M110.038 74.9823C110.777 75.8741 113.834 78.092 113.833 79.1521C113.833 79.705 113.243 80.4285 112.705 80.4285H109.005L109.081 84.3531C110.278 84.7358 115.039 85.8037 113.576 87.7583C113.25 88.1939 112.719 88.2921 112.361 88.5976C110.302 90.3503 110.553 93.3887 109.044 95.5293L109.005 109.532H112.877C112.986 109.532 113.664 110.061 113.735 110.215C114.132 111.068 113.518 112.023 112.541 111.923L31.302 111.918C30.3482 111.925 29.8698 110.891 30.3474 110.116C30.4188 110 31.0552 109.532 31.1328 109.532H35.0049V80.4285H31.3053C30.4173 80.4285 29.7516 78.9544 30.5311 78.3008L55.7426 54.2178H61.1635C61.2386 53.9207 61.0393 53.8777 60.9063 53.706C60.1253 52.6977 57.2598 50.9923 57.4119 49.7465C57.4464 49.4634 57.8345 48.7712 58.1516 48.7712H78.3726C75.3075 39.7427 85.8156 31.8482 93.6741 37.6377C99.1638 41.6822 98.9519 49.7763 93.3477 53.6215L113.479 72.8539C114.259 73.5075 113.593 74.9816 112.705 74.9816H110.038L110.038 74.9823ZM87.7518 38.1454C82.9772 38.1458 79.3386 42.6259 80.518 47.2456C80.6121 47.6143 80.9087 48.6326 81.2399 48.7444L88.3636 48.8477L91.6777 51.8128C98.0067 47.8834 95.307 38.1447 87.7518 38.1458V38.1454ZM72.7796 51.1545H61.8515L67.6073 56.7804C67.8058 56.9704 68.0508 56.9278 68.2946 56.9517C70.4055 57.1583 73.8716 57.0458 76.0565 56.9484C76.8523 56.9127 77.6953 56.6308 78.5447 56.7694L72.7796 51.1545ZM87.4076 51.1545H76.3074L81.8911 56.6102C82.0896 56.8002 82.3346 56.7576 82.5784 56.7815C85.9085 57.1072 89.6207 56.3102 93.0006 56.5992L87.4076 51.1545ZM63.8308 56.6006H59.4425L81.5566 77.8754H109.522L106.334 74.986L83.0631 74.8537L63.8308 56.601V56.6006ZM37.5867 78.9819V109.533H47.7402V85.2795C47.7402 85.1196 48.7084 84.3921 49.027 84.5097C53.5696 84.831 58.6757 84.0951 63.1491 84.5068C63.6591 84.5538 64.7772 84.8193 64.7772 85.4493V109.532H74.9306V78.8114C74.9306 77.7832 77.1887 77.8769 77.8552 77.7909L56.1098 57.1226L34.6622 77.7912C35.6394 77.9372 37.3511 77.6593 37.5867 78.9819ZM101.261 64.6002L95.6772 59.1445C95.4787 58.9544 95.2338 58.9971 94.9899 58.9732C91.7476 58.6559 88.0484 59.4787 84.7398 59.1555L90.3269 64.6135L90.6704 64.7645C90.8354 64.7568 90.9703 64.6002 91.0209 64.6002H101.261H101.261ZM86.8054 64.7686L81.0042 59.1912L70.4575 59.325C70.2635 59.4871 71.0842 60.2146 71.2266 60.3499C72.832 61.877 74.5169 63.3371 76.0851 64.9061L86.8058 64.769L86.8054 64.7686ZM98.4215 72.4293H109.522L104.11 67.1437C103.912 66.9537 103.667 66.9963 103.423 66.9724C101.1 66.7452 96.8373 66.8221 94.4565 66.9757C93.9659 67.0073 93.5001 67.2 93.0006 67.1544L98.4215 72.4289V72.4293ZM94.8937 72.4293L89.6541 67.3139C89.4556 67.1239 89.2107 67.1665 88.9669 67.1426C85.6728 66.8202 82.0424 67.5371 78.7168 67.325L83.9656 72.4293H94.8937ZM106.424 80.4285H77.3404V109.532H96.4425V106.554C96.4425 105.818 95.8553 103.922 95.5847 103.147C95.2092 102.072 94.6981 101.021 94.0413 100.086C90.7897 100.811 87.8997 100.125 85.7762 97.5294C84.7491 96.274 84.2533 94.2198 82.8561 93.439C82.1513 93.0453 81.0938 93.0732 80.9838 92.0454C80.8448 90.7492 84.1607 89.0207 85.2903 88.7167C91.8152 86.9602 97.7353 92.1057 96.0961 98.7117L97.2164 100.678C97.3904 100.683 98.1725 98.3477 98.1702 98.0411C98.1676 97.6364 97.5209 96.2516 97.3826 95.5818C96.2158 89.9379 100.748 84.6535 106.424 84.3428V80.4281L106.424 80.4285ZM101.605 96.7659C104.618 96.8666 106.718 95.2774 107.756 92.5538C108.326 91.0598 108.422 89.9085 109.277 88.4417C109.503 88.0539 109.834 87.7951 110.038 87.4903C110.151 87.3208 110.318 87.3635 110.039 87.1495C104.778 85.3093 98.9887 89.2122 99.7139 94.8951C100.582 93.8985 101.272 92.7622 102.126 91.7509C102.555 91.2425 103.81 89.7221 104.294 89.4714C105.575 88.8075 106.422 89.9338 105.989 91.1481C104.334 92.8589 102.757 94.6779 101.605 96.7655L101.605 96.7659ZM62.3682 87.0665H50.1495V109.533H62.3682V87.0665ZM93.8592 95.9167C93.4228 91.5182 88.5569 89.635 84.7406 91.494C85.0342 92.2182 85.7185 92.6575 86.1887 93.3776C87.6622 95.6337 87.9956 97.732 91.3692 97.9559C91.5669 97.9691 92.3036 98.0978 92.1386 97.7059C91.5171 97.1438 90.9685 96.4571 90.328 95.9215C89.6928 95.3907 87.8179 94.3753 87.4901 93.9636C86.7002 92.9714 87.5306 91.819 88.7732 92.0086C90.1214 92.2145 92.7292 95.0337 93.8596 95.9164L93.8592 95.9167ZM106.424 109.533V97.9592C104.595 99.1752 102.353 99.1021 100.312 99.4884C99.0854 102.685 98.8363 106.131 98.8519 109.533H106.424Z"/>
</mask>
<path d="M110.038 74.9823C110.777 75.8741 113.834 78.092 113.833 79.1521C113.833 79.705 113.243 80.4285 112.705 80.4285H109.005L109.081 84.3531C110.278 84.7358 115.039 85.8037 113.576 87.7583C113.25 88.1939 112.719 88.2921 112.361 88.5976C110.302 90.3503 110.553 93.3887 109.044 95.5293L109.005 109.532H112.877C112.986 109.532 113.664 110.061 113.735 110.215C114.132 111.068 113.518 112.023 112.541 111.923L31.302 111.918C30.3482 111.925 29.8698 110.891 30.3474 110.116C30.4188 110 31.0552 109.532 31.1328 109.532H35.0049V80.4285H31.3053C30.4173 80.4285 29.7516 78.9544 30.5311 78.3008L55.7426 54.2178H61.1635C61.2386 53.9207 61.0393 53.8777 60.9063 53.706C60.1253 52.6977 57.2598 50.9923 57.4119 49.7465C57.4464 49.4634 57.8345 48.7712 58.1516 48.7712H78.3726C75.3075 39.7427 85.8156 31.8482 93.6741 37.6377C99.1638 41.6822 98.9519 49.7763 93.3477 53.6215L113.479 72.8539C114.259 73.5075 113.593 74.9816 112.705 74.9816H110.038L110.038 74.9823ZM87.7518 38.1454C82.9772 38.1458 79.3386 42.6259 80.518 47.2456C80.6121 47.6143 80.9087 48.6326 81.2399 48.7444L88.3636 48.8477L91.6777 51.8128C98.0067 47.8834 95.307 38.1447 87.7518 38.1458V38.1454ZM72.7796 51.1545H61.8515L67.6073 56.7804C67.8058 56.9704 68.0508 56.9278 68.2946 56.9517C70.4055 57.1583 73.8716 57.0458 76.0565 56.9484C76.8523 56.9127 77.6953 56.6308 78.5447 56.7694L72.7796 51.1545ZM87.4076 51.1545H76.3074L81.8911 56.6102C82.0896 56.8002 82.3346 56.7576 82.5784 56.7815C85.9085 57.1072 89.6207 56.3102 93.0006 56.5992L87.4076 51.1545ZM63.8308 56.6006H59.4425L81.5566 77.8754H109.522L106.334 74.986L83.0631 74.8537L63.8308 56.601V56.6006ZM37.5867 78.9819V109.533H47.7402V85.2795C47.7402 85.1196 48.7084 84.3921 49.027 84.5097C53.5696 84.831 58.6757 84.0951 63.1491 84.5068C63.6591 84.5538 64.7772 84.8193 64.7772 85.4493V109.532H74.9306V78.8114C74.9306 77.7832 77.1887 77.8769 77.8552 77.7909L56.1098 57.1226L34.6622 77.7912C35.6394 77.9372 37.3511 77.6593 37.5867 78.9819ZM101.261 64.6002L95.6772 59.1445C95.4787 58.9544 95.2338 58.9971 94.9899 58.9732C91.7476 58.6559 88.0484 59.4787 84.7398 59.1555L90.3269 64.6135L90.6704 64.7645C90.8354 64.7568 90.9703 64.6002 91.0209 64.6002H101.261H101.261ZM86.8054 64.7686L81.0042 59.1912L70.4575 59.325C70.2635 59.4871 71.0842 60.2146 71.2266 60.3499C72.832 61.877 74.5169 63.3371 76.0851 64.9061L86.8058 64.769L86.8054 64.7686ZM98.4215 72.4293H109.522L104.11 67.1437C103.912 66.9537 103.667 66.9963 103.423 66.9724C101.1 66.7452 96.8373 66.8221 94.4565 66.9757C93.9659 67.0073 93.5001 67.2 93.0006 67.1544L98.4215 72.4289V72.4293ZM94.8937 72.4293L89.6541 67.3139C89.4556 67.1239 89.2107 67.1665 88.9669 67.1426C85.6728 66.8202 82.0424 67.5371 78.7168 67.325L83.9656 72.4293H94.8937ZM106.424 80.4285H77.3404V109.532H96.4425V106.554C96.4425 105.818 95.8553 103.922 95.5847 103.147C95.2092 102.072 94.6981 101.021 94.0413 100.086C90.7897 100.811 87.8997 100.125 85.7762 97.5294C84.7491 96.274 84.2533 94.2198 82.8561 93.439C82.1513 93.0453 81.0938 93.0732 80.9838 92.0454C80.8448 90.7492 84.1607 89.0207 85.2903 88.7167C91.8152 86.9602 97.7353 92.1057 96.0961 98.7117L97.2164 100.678C97.3904 100.683 98.1725 98.3477 98.1702 98.0411C98.1676 97.6364 97.5209 96.2516 97.3826 95.5818C96.2158 89.9379 100.748 84.6535 106.424 84.3428V80.4281L106.424 80.4285ZM101.605 96.7659C104.618 96.8666 106.718 95.2774 107.756 92.5538C108.326 91.0598 108.422 89.9085 109.277 88.4417C109.503 88.0539 109.834 87.7951 110.038 87.4903C110.151 87.3208 110.318 87.3635 110.039 87.1495C104.778 85.3093 98.9887 89.2122 99.7139 94.8951C100.582 93.8985 101.272 92.7622 102.126 91.7509C102.555 91.2425 103.81 89.7221 104.294 89.4714C105.575 88.8075 106.422 89.9338 105.989 91.1481C104.334 92.8589 102.757 94.6779 101.605 96.7655L101.605 96.7659ZM62.3682 87.0665H50.1495V109.533H62.3682V87.0665ZM93.8592 95.9167C93.4228 91.5182 88.5569 89.635 84.7406 91.494C85.0342 92.2182 85.7185 92.6575 86.1887 93.3776C87.6622 95.6337 87.9956 97.732 91.3692 97.9559C91.5669 97.9691 92.3036 98.0978 92.1386 97.7059C91.5171 97.1438 90.9685 96.4571 90.328 95.9215C89.6928 95.3907 87.8179 94.3753 87.4901 93.9636C86.7002 92.9714 87.5306 91.819 88.7732 92.0086C90.1214 92.2145 92.7292 95.0337 93.8596 95.9164L93.8592 95.9167ZM106.424 109.533V97.9592C104.595 99.1752 102.353 99.1021 100.312 99.4884C99.0854 102.685 98.8363 106.131 98.8519 109.533H106.424Z" fill="#B7FE1A" stroke="#B7FE1A" stroke-width="0.100367" mask="url(#path-2-inside-1_1371_2121)"/>
<path d="M87.2822 29.9385C87.8299 29.7778 88.2323 29.8937 88.5176 30.165C88.8046 30.4381 88.9761 30.8715 89.0537 31.3496C89.1312 31.8272 89.1143 32.3467 89.0264 32.7881C88.9824 33.0086 88.9206 33.2091 88.8447 33.375C88.7687 33.5413 88.6795 33.6719 88.5801 33.7529C88.3096 33.9733 88.0637 34.0833 87.8447 34.1104C87.6264 34.1373 87.4321 34.0817 87.2627 33.9639C86.9221 33.7268 86.6806 33.2393 86.5547 32.6768C86.429 32.1152 86.42 31.4839 86.5391 30.9658C86.6585 30.4466 86.9043 30.0494 87.2812 29.9385H87.2822Z" fill="#B7FE1A" stroke="#B7FE1A" stroke-width="0.0501837"/>
<path d="M79.96 31.8936C80.4143 31.73 81.0172 31.8702 81.5273 32.459C81.8214 32.7986 82.1998 33.3539 82.4072 33.9189C82.6152 34.4856 82.6476 35.0522 82.2686 35.4268C81.776 35.9131 80.928 35.8395 80.4521 35.3496C80.4349 35.3319 80.4033 35.2878 80.3604 35.2217C80.3178 35.1562 80.2649 35.0704 80.2061 34.9717C80.0884 34.7744 79.9462 34.5238 79.8076 34.2725C79.6689 34.021 79.5336 33.7685 79.4326 33.5674C79.3822 33.4671 79.3405 33.3796 79.3105 33.3115C79.2955 33.2774 79.2838 33.2478 79.2754 33.2246C79.2669 33.201 79.2627 33.1853 79.2617 33.1768C79.1916 32.5267 79.5059 32.0571 79.96 31.8936Z" fill="#B7FE1A" stroke="#B7FE1A" stroke-width="0.0501837"/>
<path d="M100.191 37.0811C101.165 36.9175 101.917 37.964 101.494 38.8877C101.48 38.9183 101.44 38.9632 101.377 39.0205C101.314 39.077 101.231 39.1433 101.134 39.2148C100.939 39.3578 100.687 39.5228 100.428 39.6816C100.169 39.8405 99.9028 39.9931 99.6797 40.1113C99.5682 40.1704 99.4675 40.2205 99.3838 40.2588C99.2997 40.2972 99.2343 40.3228 99.1924 40.333C98.5279 40.4945 97.9989 40.1773 97.7744 39.708C97.5503 39.2388 97.6296 38.6152 98.1875 38.1602C98.2067 38.1445 98.2493 38.1162 98.3115 38.0781C98.3736 38.0401 98.4538 37.9923 98.5459 37.9395C98.7299 37.8337 98.9618 37.7054 99.1934 37.5801C99.4249 37.4547 99.6566 37.3325 99.8398 37.2402C99.9314 37.1942 100.011 37.1558 100.072 37.1279C100.103 37.114 100.129 37.1028 100.149 37.0947L100.191 37.0811Z" fill="#B7FE1A" stroke="#B7FE1A" stroke-width="0.0501837"/>
<path d="M75.1328 37.0957C75.2359 37.1177 75.3572 37.1542 75.4902 37.2021C75.7565 37.2982 76.0682 37.4387 76.3721 37.5947C76.6761 37.7509 76.9722 37.923 77.207 38.0801C77.3244 38.1586 77.426 38.2334 77.5059 38.3008C77.586 38.3684 77.6425 38.4271 77.6709 38.4736C78.2331 39.4009 77.4534 40.5451 76.4385 40.376C76.4099 40.3711 76.3556 40.3508 76.2803 40.3164C76.2055 40.2823 76.1124 40.2354 76.0068 40.1797C75.7955 40.0681 75.5353 39.9216 75.2783 39.7695C75.0214 39.6175 74.7675 39.4599 74.5674 39.3281C74.4673 39.2622 74.3809 39.2026 74.3145 39.1533C74.2472 39.1035 74.2024 39.0659 74.1836 39.043C73.9024 38.6995 73.8672 38.2455 74.0088 37.8574C74.1506 37.4691 74.4682 37.1499 74.8887 37.0762L74.8877 37.0752C74.9452 37.0651 75.0289 37.0735 75.1328 37.0957Z" fill="#B7FE1A" stroke="#B7FE1A" stroke-width="0.0501837"/>
<path d="M94.8525 31.7988C95.0885 31.7565 95.3944 31.8321 95.6602 31.9775C95.9263 32.1232 96.1456 32.3349 96.2129 32.5576C96.2752 32.7645 96.242 33.0701 96.1377 33.415C96.0336 33.7591 95.8596 34.1385 95.6465 34.4902C95.4334 34.8419 95.1817 35.1655 94.9209 35.3984C94.6593 35.632 94.3921 35.7715 94.1494 35.7637C93.8605 35.7543 93.6386 35.6887 93.4736 35.582C93.3091 35.4755 93.1987 35.3267 93.1338 35.1494C93.0036 34.7935 93.0555 34.3199 93.2168 33.8379C93.3779 33.3566 93.6472 32.871 93.9473 32.4932C94.0972 32.3043 94.2545 32.1428 94.4092 32.0225C94.5254 31.9321 94.6394 31.8652 94.7471 31.8271L94.8525 31.7988Z" fill="#B7FE1A" stroke="#B7FE1A" stroke-width="0.0501837"/>
<path d="M100.183 44.4072C100.719 44.2856 101.708 44.2162 102.492 44.3984C102.884 44.4896 103.222 44.6425 103.428 44.8799C103.632 45.1155 103.708 45.4379 103.573 45.876C103.484 46.1638 103.225 46.3825 102.871 46.5332C102.517 46.6837 102.073 46.765 101.623 46.7803C101.173 46.7955 100.718 46.7449 100.344 46.6338C99.9684 46.5223 99.6789 46.3504 99.5518 46.1289C99.3667 45.8063 99.3292 45.4196 99.4355 45.0918C99.5418 44.7644 99.7914 44.4959 100.183 44.4072Z" fill="#B7FE1A" stroke="#B7FE1A" stroke-width="0.0501837"/>
<path d="M74.1426 44.335C74.4679 44.339 74.7918 44.3516 75.0557 44.3721C75.1876 44.3823 75.3043 44.3939 75.3984 44.4082C75.4933 44.4226 75.5637 44.4397 75.6035 44.457C75.956 44.611 76.1296 45.0262 76.1348 45.459C76.1399 45.8921 75.976 46.3288 75.6719 46.5186C75.6185 46.5519 75.538 46.5818 75.4355 46.6084C75.3333 46.6349 75.2099 46.6574 75.0732 46.6758C74.8 46.7126 74.4723 46.7329 74.1426 46.7373C73.8128 46.7417 73.4814 46.73 73.2012 46.7031C72.9199 46.6761 72.693 46.6345 72.5703 46.5791C72.1862 46.4054 71.9911 45.9238 72.002 45.4492C72.0129 44.9747 72.2295 44.5241 72.6484 44.4053C72.7413 44.379 72.9505 44.3586 73.2207 44.3467C73.4898 44.3348 73.8171 44.3309 74.1426 44.335Z" fill="#B7FE1A" stroke="#B7FE1A" stroke-width="0.0501837"/>
<path d="M98.4639 50.6953C98.7481 50.6331 99.1587 50.7055 99.5938 50.8721C100.028 51.0384 100.483 51.2971 100.854 51.6025C101.226 51.9084 101.511 52.2593 101.611 52.6084C101.661 52.7825 101.665 52.9561 101.61 53.124C101.556 53.292 101.444 53.4566 101.258 53.6113C101.031 53.8 100.698 53.8516 100.32 53.8037C99.9433 53.7558 99.5259 53.6087 99.1348 53.4072C98.7437 53.2057 98.3797 52.9498 98.1104 52.6846C97.8403 52.4185 97.6688 52.1471 97.6533 51.9141C97.6163 51.3528 97.8909 50.8209 98.4639 50.6953Z" fill="#B7FE1A" stroke="#B7FE1A" stroke-width="0.0501837"/>
<path d="M55.0986 68.751C57.0986 68.4417 58.6644 68.9274 59.7725 69.8389C60.8809 70.7507 61.5339 72.0903 61.7051 73.4922C61.8762 74.894 61.5654 76.3567 60.749 77.5137C59.9328 78.6702 58.61 79.5235 56.7539 79.7051C54.9797 79.8787 53.5798 79.3439 52.5801 78.4297C51.58 77.5152 50.9789 76.2192 50.8047 74.8691C50.4563 72.1682 51.8168 69.2587 55.0986 68.751ZM59.293 73.4395C58.9128 71.9856 57.5717 70.7538 55.6064 71.085C54.5661 71.2602 53.8692 71.8099 53.4795 72.5156C53.0902 73.2207 53.0087 74.08 53.1943 74.875C53.38 75.67 53.8333 76.4027 54.5176 76.8535C55.2025 77.3047 56.1162 77.472 57.2178 77.1396C58.1542 76.8572 58.7692 76.2956 59.1016 75.6221C59.4334 74.9493 59.4829 74.166 59.293 73.4395Z" fill="#B7FE1A" stroke="#B7FE1A" stroke-width="0.0501837"/>
</g>
<defs>
<filter id="filter0_d_1371_2121" x="20.1602" y="19.8398" width="103.697" height="102.09" filterUnits="userSpaceOnUse" color-interpolation-filters="sRGB">
<feFlood flood-opacity="0" result="BackgroundImageFix"/>
<feColorMatrix in="SourceAlpha" type="matrix" values="0 0 0 0 0 0 0 0 0 0 0 0 0 0 0 0 0 0 127 0" result="hardAlpha"/>
<feOffset/>
<feGaussianBlur stdDeviation="5"/>
<feComposite in2="hardAlpha" operator="out"/>
<feColorMatrix type="matrix" values="0 0 0 0 0.717647 0 0 0 0 0.996078 0 0 0 0 0.101961 0 0 0 0.36 0"/>
<feBlend mode="normal" in2="BackgroundImageFix" result="effect1_dropShadow_1371_2121"/>
<feBlend mode="normal" in="SourceGraphic" in2="effect1_dropShadow_1371_2121" result="shape"/>
</filter>
</defs>
</svg>
