<svg width="115" height="100" viewBox="0 0 115 100" fill="none" xmlns="http://www.w3.org/2000/svg">
<path d="M20.0239 0.750895H80.0153C90.6437 0.750895 99.2882 9.39541 99.2882 20.0239V35.7623C99.2882 35.9709 99.3751 36.1707 99.5278 36.3128L113.634 49.4378C113.659 49.4603 113.686 49.4777 113.713 49.4965C114.052 49.8738 114.035 50.4666 113.644 50.8311L99.5375 63.9571C99.385 64.099 99.2981 64.2981 99.298 64.5065V79.9752C99.298 90.6036 90.6535 99.2481 80.025 99.2481H20.0239C9.39541 99.2481 0.750895 90.6036 0.750895 79.9752V20.0239C0.750895 9.39541 9.39541 0.750895 20.0239 0.750895Z" stroke="#052E25" stroke-width="1.5" stroke-linejoin="round"/>
<path d="M58.0692 68.0642H46.0549M58.0692 68.0642C58.0692 66.3503 58.0692 65.4934 58.1607 64.9248C58.4558 63.0912 58.5074 62.9757 59.6771 61.5328C60.0399 61.0854 61.3864 59.8801 64.0793 57.4698C67.7645 54.1713 70.0835 49.379 70.0835 44.0452C70.0835 34.0963 62.015 26.031 52.062 26.031C42.109 26.031 34.0406 34.0963 34.0406 44.0452C34.0406 49.379 36.3596 54.1713 40.0447 57.4698C42.7376 59.8801 44.0842 61.0854 44.4469 61.5328C45.6166 62.9757 45.6683 63.0912 45.9634 64.9248C46.0549 65.4934 46.0549 66.3503 46.0549 68.0642M58.0692 68.0642C58.0692 70.309 58.0692 71.4314 57.5863 72.2675C57.27 72.8152 56.815 73.27 56.267 73.5862C55.4307 74.0689 54.3078 74.0689 52.062 74.0689C49.8163 74.0689 48.6934 74.0689 47.857 73.5862C47.3091 73.27 46.8541 72.8152 46.5378 72.2675C46.0549 71.4314 46.0549 70.309 46.0549 68.0642" stroke="#036B53" stroke-width="1.5"/>
<path d="M54.0639 42.0442L49.058 49.0498H56.0663L51.0603 56.0553" stroke="#036B53" stroke-width="1.5" stroke-linecap="round" stroke-linejoin="round"/>
</svg>
