<svg width="22" height="22" viewBox="0 0 22 22" fill="none" xmlns="http://www.w3.org/2000/svg">
<circle cx="11" cy="11" r="11" fill="#062E25"/>
<path d="M7.88268 9.62538H10.266" stroke="#B7FE1A" stroke-width="0.8" stroke-linecap="round" stroke-linejoin="round"/>
<path d="M16.7206 10.218H15.1699C14.1068 10.218 13.2449 11.0182 13.2449 12.0055C13.2449 12.9927 14.1068 13.793 15.1699 13.793H16.7206C16.7702 13.793 16.7951 13.793 16.816 13.7917C17.1374 13.7721 17.3933 13.5345 17.4144 13.2361C17.4157 13.2166 17.4157 13.1936 17.4157 13.1475V10.8634C17.4157 10.8173 17.4157 10.7943 17.4144 10.7748C17.3933 10.4765 17.1374 10.2388 16.816 10.2192C16.7951 10.218 16.7702 10.218 16.7206 10.218Z" stroke="#B7FE1A" stroke-width="0.8"/>
<path d="M16.7993 10.2182C16.753 9.10264 16.6037 8.41865 16.1221 7.93712C15.4241 7.23905 14.3005 7.23905 12.0535 7.23905H10.266C8.01899 7.23905 6.89548 7.23905 6.19742 7.93712C5.49936 8.63518 5.49936 9.75869 5.49936 12.0057C5.49936 14.2527 5.49936 15.3763 6.19742 16.0743C6.89548 16.7724 8.01899 16.7724 10.266 16.7724H12.0535C14.3005 16.7724 15.4241 16.7724 16.1221 16.0743C16.6037 15.5928 16.753 14.9088 16.7993 13.7932" stroke="#B7FE1A" stroke-width="0.8"/>
<path d="M7.88268 7.24081L10.1084 5.76501C10.7352 5.34941 11.5843 5.34941 12.2111 5.76501L14.4368 7.24081" stroke="#B7FE1A" stroke-width="0.8" stroke-linecap="round"/>
<path d="M15.0277 12.0037H15.033" stroke="#B7FE1A" stroke-width="0.8" stroke-linecap="round" stroke-linejoin="round"/>
</svg>
