<svg width="22" height="22" viewBox="0 0 22 22" fill="none" xmlns="http://www.w3.org/2000/svg">
<circle cx="11" cy="11" r="11" fill="#062E25"/>
<path d="M8.55606 7.33293V6.1105C8.55606 5.8265 8.55606 5.6845 8.53257 5.56641C8.43611 5.08148 8.05704 4.70241 7.57211 4.60595C7.45403 4.58247 7.31202 4.58247 7.02802 4.58247C6.74402 4.58247 6.60201 4.58247 6.48393 4.60595C5.999 4.70241 5.61993 5.08148 5.52347 5.56641C5.49998 5.6845 5.49998 5.8265 5.49998 6.1105V7.33293C5.49998 7.61693 5.49998 7.75894 5.52347 7.87702C5.61993 8.36195 5.999 8.74102 6.48393 8.83748C6.60201 8.86097 6.74402 8.86097 7.02802 8.86097C7.31202 8.86097 7.45403 8.86097 7.57211 8.83748C8.05704 8.74102 8.43611 8.36195 8.53257 7.87702C8.55606 7.75894 8.55606 7.61693 8.55606 7.33293Z" stroke="#B7FE1A" stroke-width="0.8" stroke-linecap="round"/>
<path d="M16.4999 7.33293V6.1105C16.4999 5.8265 16.4999 5.6845 16.4764 5.56641C16.38 5.08148 16.0009 4.70241 15.516 4.60595C15.3979 4.58247 15.2559 4.58247 14.9719 4.58247C14.6879 4.58247 14.5459 4.58247 14.4278 4.60595C13.9429 4.70241 13.5638 5.08148 13.4673 5.56641C13.4439 5.6845 13.4439 5.8265 13.4439 6.1105V7.33293C13.4439 7.61693 13.4439 7.75894 13.4673 7.87702C13.5638 8.36195 13.9429 8.74102 14.4278 8.83748C14.5459 8.86097 14.6879 8.86097 14.9719 8.86097C15.2559 8.86097 15.3979 8.86097 15.516 8.83748C16.0009 8.74102 16.38 8.36195 16.4764 7.87702C16.4999 7.75894 16.4999 7.61693 16.4999 7.33293Z" stroke="#B7FE1A" stroke-width="0.8" stroke-linecap="round"/>
<path d="M8.55606 15.2807V14.0582C8.55606 13.7742 8.55606 13.6322 8.53257 13.5142C8.43611 13.0292 8.05704 12.6502 7.57211 12.5537C7.45403 12.5302 7.31202 12.5302 7.02802 12.5302C6.74402 12.5302 6.60201 12.5302 6.48393 12.5537C5.999 12.6502 5.61993 13.0292 5.52347 13.5142C5.49998 13.6322 5.49998 13.7742 5.49998 14.0582V15.2807C5.49998 15.5647 5.49998 15.7067 5.52347 15.8248C5.61993 16.3097 5.999 16.6888 6.48393 16.7852C6.60201 16.8087 6.74402 16.8087 7.02802 16.8087C7.31202 16.8087 7.45403 16.8087 7.57211 16.7852C8.05704 16.6888 8.43611 16.3097 8.53257 15.8248C8.55606 15.7067 8.55606 15.5647 8.55606 15.2807Z" stroke="#B7FE1A" stroke-width="0.8" stroke-linecap="round"/>
<path d="M16.4999 15.2807V14.0582C16.4999 13.7742 16.4999 13.6322 16.4764 13.5142C16.38 13.0292 16.0009 12.6502 15.516 12.5537C15.3979 12.5302 15.2559 12.5302 14.9719 12.5302C14.6879 12.5302 14.5459 12.5302 14.4278 12.5537C13.9429 12.6502 13.5638 13.0292 13.4673 13.5142C13.4439 13.6322 13.4439 13.7742 13.4439 14.0582V15.2807C13.4439 15.5647 13.4439 15.7067 13.4673 15.8248C13.5638 16.3097 13.9429 16.6888 14.4278 16.7852C14.5459 16.8087 14.6879 16.8087 14.9719 16.8087C15.2559 16.8087 15.3979 16.8087 15.516 16.7852C16.0009 16.6888 16.38 16.3097 16.4764 15.8248C16.4999 15.7067 16.4999 15.5647 16.4999 15.2807Z" stroke="#B7FE1A" stroke-width="0.8" stroke-linecap="round"/>
<path d="M13.4446 14.6683H8.55484" stroke="#B7FE1A" stroke-width="0.8" stroke-linecap="round"/>
<path d="M13.4446 6.72055H8.55484" stroke="#B7FE1A" stroke-width="0.8" stroke-linecap="round"/>
<path d="M10.9986 9.16893L10.0818 10.697H11.9154L10.9986 12.225" stroke="#B7FE1A" stroke-width="0.8" stroke-linecap="round" stroke-linejoin="round"/>
</svg>
