<svg width="89" height="89" viewBox="0 0 89 89" fill="none" xmlns="http://www.w3.org/2000/svg">
<rect width="89" height="89" rx="3.26606" fill="#D9D9D9"/>
<g clip-path="url(#clip0_2642_11094)">
<path d="M78.3651 53.0848C78.4343 53.0775 78.5035 53.0649 78.5717 53.0649C80.6239 53.0639 82.6751 53.0649 84.7273 53.0649C84.7871 53.0649 84.8458 53.0702 84.9192 53.0744V66.1282H75.1383V72.6708H71.8854V79.2197H75.1436L75.1352 79.2103C75.1352 80.2957 75.1352 81.381 75.1352 82.4654L75.1436 82.4559C75.0481 82.4612 74.9527 82.4696 74.8573 82.4696C69.6087 82.4696 64.3601 82.4696 59.1115 82.4696C59.0171 82.4696 58.9228 82.4696 58.7969 82.4696V75.9521H52.2721V79.1988H35.9339C35.9339 79.7273 35.9307 80.2223 35.9339 80.7183C35.9391 81.293 35.9506 81.8676 35.959 82.4423L35.9632 82.4371C35.9129 82.4475 35.8626 82.4675 35.8122 82.4675C34.8055 82.4696 33.7988 82.4696 32.7921 82.4675C32.7323 82.4675 32.6736 82.4486 32.6138 82.4381L32.619 82.4423C32.6316 82.3846 32.6557 82.3269 32.6557 82.2693C32.6578 81.3003 32.6568 80.3303 32.6557 79.3613C32.6557 79.3194 32.6473 79.2774 32.64 79.2072H29.4091V66.1418H35.9139V62.8773H29.4133V59.6222C29.4793 59.617 29.5548 59.6055 29.6293 59.6055C33.8386 59.6055 38.048 59.6055 42.2563 59.6055C42.3171 59.6055 42.3779 59.6128 42.4388 59.617L42.4346 59.6107C42.443 59.6443 42.4576 59.6778 42.4576 59.7114C42.4576 60.7328 42.4576 61.7542 42.4555 62.7745C42.4555 62.7976 42.4388 62.8207 42.4209 62.8668H39.2141V66.1481H45.7452V69.4126H48.9762V72.6698C48.8566 72.6698 48.7528 72.6698 48.65 72.6698C46.5726 72.6719 44.4952 72.674 42.4188 72.6761C42.4325 72.6089 42.4576 72.5418 42.4576 72.4758C42.4597 71.5152 42.4597 70.5546 42.4576 69.594C42.4576 69.5363 42.443 69.4787 42.4314 69.3948H39.1837V66.1596H35.9192V69.4147H32.6736V75.9196H35.9297V72.6698H42.4241C42.4356 72.7725 42.4576 72.8743 42.4576 72.977C42.4608 73.859 42.4587 74.7409 42.4587 75.6228C42.4587 75.7172 42.4587 75.8105 42.4587 75.9112H52.2763V72.654H55.5188V62.8752H52.2585V66.1198H48.9908V59.6097L48.9814 59.6191C49.9588 59.6139 50.9361 59.6097 51.9135 59.6044C52.0162 59.6044 52.119 59.6044 52.2553 59.6044V56.3556H75.1226V59.5929H71.8874V66.1177H75.1194V62.8773H81.6443V56.342H78.3923V56.0337C78.3923 55.1434 78.3923 54.252 78.3923 53.3617C78.3923 53.2663 78.3787 53.1719 78.3714 53.0765L78.3651 53.0838V53.0848ZM68.5747 69.3916V59.6296H58.8106V69.3916H68.5747ZM62.0824 75.9416V79.183H68.5779V72.6876H65.3301V75.9416H62.0824ZM58.8064 72.6886V75.9143H62.0467V72.6886H58.8064Z" fill="black"/>
<path d="M42.4378 59.6208C42.4451 59.5254 42.4577 59.43 42.4577 59.3345C42.4577 55.1776 42.4577 51.0207 42.4577 46.8638C42.4577 46.7694 42.4577 46.6761 42.4577 46.5628H39.1953V49.8074H35.9381V56.3207H29.3913V53.0834H22.8738C22.8675 53.1568 22.857 53.225 22.857 53.2921C22.856 54.2265 22.8612 55.1608 22.8518 56.0952C22.8497 56.2934 22.9126 56.3479 23.1056 56.3458C24.0053 56.3375 24.9051 56.3416 25.8038 56.3416H26.1205V59.5883H16.3301V53.0698H9.79169V49.8242H6.53138V59.5904H3.27527V46.545H6.52929C6.52929 46.3416 6.52929 46.1769 6.52929 46.0133C6.53453 45.0968 6.54082 44.1813 6.54711 43.2648L6.53872 43.2731H13.0562V46.5251H19.5737V43.2606H16.3448V40.0181L16.3396 40.0254C17.3085 40.0212 18.2775 40.017 19.2465 40.0128C19.3493 40.0128 19.4531 40.0128 19.5862 40.0128V36.7441H26.131V37.0367C26.131 37.9365 26.131 38.8362 26.132 39.7349C26.132 39.8377 26.152 39.9405 26.1635 40.0433C26.1299 40.0338 26.0964 40.016 26.0639 40.016C25.0173 40.016 23.9707 40.0191 22.9242 40.0223C22.9095 40.0223 22.8958 40.038 22.8738 40.0516V43.2564H26.131C26.131 43.1505 26.131 43.0571 26.131 42.9638C26.131 42.1521 26.1299 41.3415 26.132 40.5298C26.132 40.3662 26.1499 40.2026 26.1593 40.0391C26.3407 40.0296 26.5211 40.0128 26.7025 40.0128C27.5991 40.0139 28.4957 40.0202 29.3923 40.0254L29.385 40.0181V49.7969H32.6621V43.2595H35.9423V40.0191L35.936 40.0265C36.3356 40.0223 36.7362 40.0139 37.1357 40.0139C38.7978 40.0128 40.461 40.0139 42.1232 40.0139C42.227 40.0139 42.3319 40.0212 42.4357 40.0254L42.4315 40.0191C42.4399 40.1135 42.4556 40.2089 42.4556 40.3033C42.4577 41.1936 42.4566 42.085 42.4566 42.9753V43.2742H45.74L45.7327 43.2669V53.0614H48.9752L48.9668 53.0541C48.9741 53.1138 48.9878 53.1736 48.9878 53.2344C48.9888 55.3213 48.9878 57.4081 48.9878 59.496C48.9878 59.539 48.9815 59.5831 48.9783 59.6261L48.9878 59.6166C46.8023 59.6166 44.6159 59.6166 42.4294 59.6166L42.4336 59.6229L42.4378 59.6208ZM19.603 49.7927H26.1121V46.5618H19.603V49.7927Z" fill="black"/>
<path d="M55.5351 30.225V36.7121H58.7818V33.4853H62.0505V30.2376H78.3762V33.4738H71.8639V40.0018H68.5963V36.7331H68.0741C67.2624 36.7331 66.4497 36.7331 65.638 36.732C65.5436 36.732 65.4492 36.7163 65.3538 36.7079C65.3465 35.7756 65.3391 34.8423 65.3328 33.909C65.3328 33.7727 65.3328 33.6353 65.3328 33.4895H62.0809V36.7215C62.1648 36.7257 62.233 36.7331 62.3011 36.7331C63.2439 36.7331 64.1866 36.7341 65.1304 36.7331C65.207 36.7331 65.2836 36.7142 65.3612 36.7037C65.3517 36.8946 65.336 37.0854 65.3349 37.2763C65.3318 38.175 65.3339 39.0747 65.3339 40.0112H62.0788V43.2694H75.1201V46.5455H71.8713V53.064H68.5942V49.8183C68.332 49.8183 68.0992 49.8162 67.8654 49.8183C67.0191 49.8257 66.1739 49.833 65.3276 49.8404C65.3276 48.7529 65.3276 47.6654 65.3276 46.5696H62.0809V49.8183C62.2005 49.8183 62.3032 49.8183 62.405 49.8183C63.3813 49.8236 64.3576 49.8288 65.3339 49.8341V53.0619H58.7965V49.8215H55.5341V46.557H52.2738C52.2685 46.4353 52.2612 46.3431 52.2612 46.2497C52.2612 45.351 52.2622 44.4513 52.258 43.5526C52.258 43.4529 52.2255 43.3523 52.2077 43.2526C53.3245 43.2547 54.4424 43.2579 55.5593 43.26C55.5509 43.3544 55.5341 43.4487 55.5341 43.5431C55.532 44.337 55.533 45.1318 55.533 45.9257V46.5329H62.0484V43.2778H61.7558C60.639 43.2778 59.5222 43.2789 58.4043 43.2778C57.4532 43.2757 56.502 43.2705 55.5509 43.2673C55.5509 42.1903 55.5509 41.1134 55.5509 40.0395H52.2622V40.3426C52.2622 41.2245 52.2633 42.1054 52.2601 42.9873C52.2601 43.0765 52.2266 43.1656 52.2088 43.2537C52.1584 43.261 52.107 43.2757 52.0567 43.2757C49.9499 43.2757 47.8432 43.2747 45.7374 43.2736L45.7448 43.281V40.0259H42.4352L42.4394 40.0322C42.4457 39.963 42.4593 39.8938 42.4593 39.8245C42.4593 37.7807 42.4593 35.7379 42.4593 33.694C42.4593 33.6332 42.452 33.5734 42.4467 33.4885H39.1937V30.2271L39.1864 30.2334C39.2902 30.2292 39.3951 30.2208 39.4989 30.2208C41.4683 30.2208 43.4367 30.2208 45.4061 30.2208H45.7374C45.7374 29.0977 45.7374 28.0113 45.7374 26.9238C46.8228 26.9238 47.9082 26.9238 48.9925 26.9238V30.2208H49.348C51.0741 30.2208 52.8002 30.2208 54.5253 30.2208C54.865 30.2208 55.2048 30.2292 55.5435 30.2334L55.5362 30.2271L55.5351 30.225ZM48.9831 33.4927H45.7511V36.7152H48.9831V33.4927Z" fill="black"/>
<path d="M26.1096 85.7227H3.26648V62.8848H26.1096V85.7227ZM6.54776 66.1524V82.4487H22.842V66.1524H6.54776Z" fill="black"/>
<path d="M3.27136 4.08008H26.1155V26.9138H3.27136V4.08008ZM6.5495 7.33934V23.6451H22.8364V7.33934H6.5495Z" fill="black"/>
<path d="M62.08 4.08008H84.9136V26.9222H62.08V4.08008ZM81.6565 7.35402H65.3508V23.6545H81.6565V7.35402Z" fill="black"/>
<path d="M39.1922 30.2108H35.9455V23.6839H32.66V30.1867H29.4081V10.5923H32.6516V7.3299H35.9224V4.08008H39.1869V7.31732H42.4399V10.585H39.1827C39.1827 11.6966 39.1827 12.7756 39.1827 13.8568C38.1036 13.8568 37.0256 13.8568 35.9507 13.8568V20.3848H39.1806C39.1848 20.3051 39.1911 20.2453 39.1911 20.1845C39.1911 18.1322 39.1911 16.081 39.1911 14.0288C39.1911 13.968 39.1806 13.9082 39.1743 13.8474C39.2781 13.8526 39.382 13.8621 39.4868 13.8621C41.4562 13.8621 43.4267 13.8621 45.3961 13.8621H45.7358V20.4173L45.7421 20.4099H42.4588C42.4588 20.799 42.4609 21.1629 42.4588 21.5268C42.4535 22.2399 42.4441 22.9519 42.4367 23.665H39.1911C39.1911 23.815 39.1911 23.9272 39.1911 24.0394C39.189 26.0979 39.1859 28.1564 39.1838 30.216L39.1911 30.2097L39.1922 30.2108Z" fill="black"/>
<path d="M55.5279 7.31302V10.5901H58.7746V17.1317H55.5342V23.6775L55.5416 23.6701C54.4363 23.6733 53.332 23.6754 52.2267 23.6785C52.2372 23.6198 52.2582 23.5611 52.2582 23.5024C52.2603 22.5365 52.2603 21.5707 52.2582 20.6038C52.2582 20.5472 52.2425 20.4895 52.232 20.4214H48.9822L48.9895 20.4287V13.8871H55.5091V10.6016H45.746V7.34028H48.9769V4.0957H52.2624V7.32036H55.5353L55.5279 7.31302Z" fill="black"/>
<path d="M6.54844 40.0199C6.54215 39.9339 6.53062 39.8469 6.53062 39.7609C6.53062 37.7475 6.52957 35.733 6.53062 33.7195C6.53062 33.6262 6.55474 33.5339 6.56837 33.4416L6.56417 33.4458C7.31817 33.4521 8.07321 33.4595 8.8272 33.4647C9.14809 33.4668 9.47003 33.4647 9.79093 33.4626C9.79093 34.5417 9.79093 35.6208 9.79093 36.7072H13.0387V33.4699H9.78358V30.2285H26.1155V33.4511H16.3734C16.3524 33.5035 16.3357 33.5266 16.3357 33.5496C16.3357 35.7057 16.3378 37.8628 16.3399 40.0189L16.3451 40.0115C13.0764 40.0115 9.8077 40.0115 6.53901 40.0115L6.54844 40.022V40.0199Z" fill="black"/>
<path d="M81.6857 79.2061V82.4528H84.9124V85.7089H75.143V82.4507L75.1346 82.4601H78.3908V79.2051L78.3824 79.2135C79.4866 79.2135 80.5898 79.2135 81.6941 79.2135L81.6857 79.2072V79.2061Z" fill="black"/>
<path d="M75.143 79.232V75.9601H78.3855V72.7051H84.9124V79.2246H81.6857L81.6941 79.2309C81.6857 79.1271 81.6689 79.0243 81.6689 78.9205C81.6668 78.0218 81.6605 77.1231 81.672 76.2244C81.6752 76.0042 81.606 75.9444 81.391 75.9476C80.4839 75.958 79.5758 75.9518 78.6687 75.9528C78.5848 75.9528 78.5009 75.9633 78.3824 75.9706V79.232L78.3908 79.2236C77.3054 79.2236 76.22 79.2236 75.1346 79.2236L75.143 79.233V79.232Z" fill="black"/>
<path d="M29.3919 40.0279V36.733H32.6543V33.4863H35.9366C35.9366 35.6697 35.9366 37.8488 35.9366 40.0279L35.9429 40.0206C33.7575 40.0206 31.571 40.0206 29.3856 40.0206L29.393 40.0279H29.3919Z" fill="black"/>
<path d="M78.4061 46.5576V43.291H84.9142V49.7928H81.6696V46.5576H78.4061Z" fill="black"/>
<path d="M48.9821 82.4863V85.7204H42.4803V82.4863H48.9821Z" fill="black"/>
<path d="M55.5344 23.6723H58.7706V30.2181H55.5333L55.5407 30.2244C55.5375 29.7284 55.5302 29.2313 55.5312 28.7353C55.5333 27.0459 55.5375 25.3554 55.5407 23.666L55.5333 23.6734L55.5344 23.6723Z" fill="black"/>
<path d="M55.5183 82.4863V85.7215H52.2821V82.4863H55.5183Z" fill="black"/>
<path d="M6.56852 33.449C5.89003 33.4563 5.21049 33.4658 4.53201 33.471C4.11568 33.4741 3.69936 33.471 3.26941 33.471V30.2285H6.52972C6.52972 30.3229 6.52972 30.4152 6.52972 30.5075C6.52972 31.3967 6.52972 32.286 6.53077 33.1742C6.53077 33.2676 6.55174 33.3598 6.56327 33.4521L6.56852 33.4479V33.449Z" fill="black"/>
<path d="M6.54754 43.2664H3.26941V40.0281H6.54859L6.53916 40.0176C6.53916 41.1029 6.53916 42.1883 6.53916 43.2737L6.54754 43.2653V43.2664Z" fill="black"/>
<path d="M75.1434 39.9919V36.7441H78.3744V39.9919H75.1434Z" fill="black"/>
<path d="M35.958 82.4436C36.1394 82.4531 36.3198 82.4688 36.5012 82.4699C37.294 82.473 38.0878 82.4709 38.8806 82.4709H39.1763V85.7207H35.9527C35.9454 85.661 35.9318 85.6033 35.9318 85.5467C35.9307 84.5787 35.9297 83.6119 35.9318 82.6439C35.9318 82.5758 35.9506 82.5076 35.9611 82.4395L35.9569 82.4436H35.958Z" fill="black"/>
<path d="M32.6139 82.4395C32.6285 82.5066 32.6558 82.5726 32.6558 82.6398C32.6589 83.6182 32.6579 84.5955 32.6558 85.5739C32.6558 85.6169 32.6453 85.6589 32.638 85.7186H29.4081V82.4709H29.6902C30.5721 82.4709 31.454 82.4709 32.336 82.4699C32.4303 82.4699 32.5247 82.4541 32.6181 82.4447L32.6128 82.4395H32.6139Z" fill="black"/>
<path d="M78.371 53.0862C77.4031 53.082 76.4362 53.0778 75.4683 53.0726C75.3655 53.0726 75.2628 53.0726 75.1464 53.0726V49.8301H78.3752C78.3815 49.9024 78.392 49.9685 78.392 50.0356C78.393 50.9773 78.393 51.919 78.392 52.8607C78.392 52.9373 78.3752 53.0149 78.3647 53.0914L78.371 53.0841V53.0862Z" fill="black"/>
<path d="M45.7372 20.4234C46.8226 20.4234 47.9069 20.4234 48.9922 20.4234L48.9849 20.416C48.987 21.5014 48.9891 22.5868 48.9912 23.6721C47.9069 23.6721 46.8226 23.6721 45.7372 23.6721C45.7393 22.5868 45.7414 21.5014 45.7435 20.416L45.7372 20.4234Z" fill="black"/>
<path d="M84.9141 36.724H81.6884V33.4941H84.9141V36.724Z" fill="black"/>
<path d="M55.5375 7.31102V4.08008H58.7789V7.32361C58.5356 7.32361 58.3028 7.32466 58.069 7.32361C57.2227 7.31836 56.3764 7.31102 55.5302 7.30473L55.5375 7.31207V7.31102Z" fill="black"/>
<path d="M48.978 53.06C48.9822 52.0931 48.9874 51.1262 48.9916 50.1594C48.9916 50.0566 48.9916 49.9528 48.9916 49.8301H52.2456V53.0537C51.1435 53.0537 50.0571 53.0537 48.9696 53.0537L48.978 53.061V53.06Z" fill="black"/>
<path d="M65.3266 62.877V66.1184H62.08V62.877H65.3266Z" fill="black"/>
<path d="M48.9843 23.666C50.0697 23.666 51.154 23.666 52.2394 23.666C52.2467 24.1715 52.2572 24.6769 52.2604 25.1824C52.2646 25.7497 52.2604 26.317 52.2604 26.9211C51.1572 26.9211 50.0707 26.9211 48.9833 26.9211C48.9833 25.8357 48.9833 24.7503 48.9833 23.666H48.9843Z" fill="black"/>
<path d="M42.4325 23.666C43.5357 23.666 44.6399 23.666 45.7431 23.666C45.7431 24.7514 45.7431 25.8368 45.7431 26.9211H42.4755C42.4692 26.8215 42.4598 26.7302 42.4598 26.64C42.4587 25.7434 42.4598 24.8458 42.4577 23.9492C42.4577 23.8548 42.4419 23.7604 42.4325 23.666Z" fill="black"/>
<path d="M9.80164 79.1859V69.4238H19.5773V79.1859H9.80164Z" fill="black"/>
<path d="M9.80847 10.6113H19.5747V20.3776H9.80847V10.6113Z" fill="black"/>
<path d="M78.3777 20.3854H68.6083V10.6191H78.3777V20.3854Z" fill="black"/>
</g>
<defs>
<clipPath id="clip0_2642_11094">
<rect width="81.6514" height="81.6472" fill="white" transform="translate(3.26648 4.08008)"/>
</clipPath>
</defs>
</svg>
