<svg width="27" height="29" viewBox="0 0 27 29" fill="none" xmlns="http://www.w3.org/2000/svg">
<path d="M25.4426 16.2671C24.7553 15.8375 24.3257 15.1072 24.3257 14.3196C24.3257 13.5321 24.7553 12.7874 25.4426 12.3722C25.9008 12.0714 26.2015 11.8423 26.402 11.5703C26.8746 10.9688 27.075 10.2099 26.9748 9.45096C26.9032 8.89249 26.5595 8.30539 25.9008 7.15982C25.2278 5.99992 24.8985 5.42714 24.4402 5.06915C23.8388 4.61092 23.0799 4.41045 22.3352 4.51068C21.9773 4.55364 21.6336 4.69684 21.161 4.95459C20.4451 5.3269 19.6002 5.34122 18.9129 4.94027C18.2255 4.53932 17.8102 3.7947 17.7816 2.9928C17.753 2.44866 17.71 2.07635 17.5811 1.76131C17.2804 1.05965 16.722 0.501187 16.0203 0.214794C15.5048 0 14.8318 0 13.5 0C12.1683 0 11.4953 0 10.9655 0.214794C10.2638 0.501187 9.70533 1.05965 9.41894 1.76131C9.29006 2.07635 9.23279 2.44866 9.21847 2.9928C9.18983 3.7947 8.77456 4.53932 8.08721 4.94027C7.38555 5.34122 6.54069 5.3269 5.83903 4.95459C5.35216 4.69684 5.00849 4.55364 4.66482 4.51068C3.90588 4.41045 3.14694 4.61092 2.54552 5.06915C2.10161 5.42714 1.75794 5.99992 1.09923 7.15982C0.426212 8.30539 0.09686 8.89249 0.0252619 9.45096C-0.0749755 10.2099 0.125499 10.9688 0.583728 11.5703C0.798522 11.8423 1.09923 12.0714 1.55746 12.3722C2.23049 12.7874 2.67439 13.5177 2.67439 14.3196C2.67439 15.1215 2.23049 15.8375 1.55746 16.2671C1.09923 16.5535 0.798522 16.7826 0.583728 17.0547C0.125499 17.6561 -0.0749755 18.4294 0.0252619 19.174C0.09686 19.7468 0.426212 20.3196 1.09923 21.4794C1.75794 22.625 2.10161 23.2121 2.54552 23.5558C3.14694 24.014 3.90588 24.2145 4.66482 24.1286C5.00849 24.0713 5.35216 23.9281 5.83903 23.6847C6.54069 23.3124 7.38555 23.298 8.08721 23.699C8.77456 24.0856 9.18983 24.8302 9.21847 25.6321C9.23279 26.1763 9.29006 26.5486 9.41894 26.8636C9.70533 27.5653 10.2638 28.1238 10.9655 28.4101C11.4953 28.6393 12.1683 28.6393 13.5 28.6393C14.8318 28.6393 15.5048 28.6393 16.0203 28.4101C16.722 28.1238 17.2804 27.5653 17.5811 26.8636C17.71 26.5486 17.753 26.1763 17.7816 25.6321C17.8102 24.8302 18.2255 24.0856 18.9129 23.699C19.6002 23.298 20.4451 23.3124 21.161 23.6847C21.6336 23.9281 21.9773 24.0713 22.3209 24.1286C23.0799 24.2145 23.8388 24.014 24.4402 23.5558C24.8985 23.2121 25.2278 22.625 25.9008 21.4794C26.5595 20.3196 26.9032 19.7468 26.9748 19.174C27.075 18.4294 26.8746 17.6561 26.402 17.0547C26.2015 16.7826 25.9008 16.5535 25.4426 16.2671ZM13.5 18.6155C11.123 18.6155 9.20414 16.6824 9.20414 14.3196C9.20414 11.9569 11.123 10.0237 13.5 10.0237C15.8771 10.0237 17.7959 11.9426 17.7959 14.3196C17.7959 16.6967 15.8628 18.6155 13.5 18.6155Z" fill="#B7FE1A"/>
</svg>
