<svg width="29" height="29" viewBox="0 0 29 29" fill="none" xmlns="http://www.w3.org/2000/svg">
<path d="M23.1561 6.61083L20.5024 3.95721C18.2548 1.70961 17.1383 0.593063 15.6882 0.172545C14.2237 -0.233473 12.6866 0.114542 9.59796 0.825074L7.81438 1.24559C5.21877 1.84012 3.91371 2.14463 3.02917 3.02917C2.14463 3.91371 1.84012 5.21877 1.24559 7.81438L0.825074 9.59796C0.114542 12.6866 -0.233473 14.2237 0.172545 15.6882C0.593063 17.1383 1.70961 18.2548 3.95721 20.5024L6.61083 23.1561C10.5115 27.0567 12.4546 28.9998 14.8762 28.9998C17.2978 28.9998 19.2554 27.0567 23.1561 23.1561C27.0567 19.2554 28.9998 17.2978 28.9998 14.8762C28.9998 12.4546 27.0567 10.5115 23.1561 6.61083ZM11.6281 12.0196C10.497 13.1506 8.66992 13.1506 7.52437 12.0196C6.39332 10.8885 6.39332 9.06144 7.52437 7.91589C8.66992 6.78484 10.497 6.78484 11.6281 7.91589C12.7591 9.06144 12.7591 10.8885 11.6281 12.0196Z" fill="white"/>
<path d="M13.8323 23.9237L23.9538 13.8023" stroke="#9F3E4F" stroke-width="2.12946" stroke-linecap="round"/>
</svg>
