<svg width="26" height="29" viewBox="0 0 26 29" fill="none" xmlns="http://www.w3.org/2000/svg">
<path d="M0 12.1574C0 7.53865 0 5.22929 0.5453 4.45237C1.0906 3.67544 3.26202 2.93216 7.60487 1.44559L8.43226 1.16237C10.6961 0.387456 11.828 0 13 0C14.172 0 15.3039 0.387456 17.5677 1.16237L18.3951 1.44559C22.738 2.93216 24.9094 3.67544 25.4547 4.45237C26 5.22929 26 7.53865 26 12.1574C26 12.855 26 13.6116 26 14.432C26 22.5758 19.877 26.5279 16.0354 28.206C14.9933 28.6613 14.4723 28.8889 13 28.8889C11.5277 28.8889 11.0067 28.6613 9.96458 28.206C6.12294 26.5279 0 22.5758 0 14.432C0 13.6116 0 12.855 0 12.1574Z" fill="#B7FE1A"/>
<path d="M9.38886 15.0215L11.4524 17.3326L16.6111 11.5548" stroke="#062E25" stroke-width="2.12946" stroke-linecap="round" stroke-linejoin="round"/>
</svg>
