<svg width="26" height="29" viewBox="0 0 26 29" fill="none" xmlns="http://www.w3.org/2000/svg">
<path d="M0 12.1574C0 7.53866 0 5.22929 0.5453 4.45237C1.0906 3.67545 3.26202 2.93216 7.60487 1.44559L8.43227 1.16237C10.6961 0.387456 11.828 0 13 0C14.172 0 15.3039 0.387456 17.5677 1.16237L18.3951 1.44559C22.738 2.93216 24.9094 3.67545 25.4547 4.45237C26 5.22929 26 7.53866 26 12.1574C26 12.855 26 13.6116 26 14.432C26 22.5758 19.8771 26.5279 16.0354 28.2061C14.9933 28.6613 14.4723 28.8889 13 28.8889C11.5277 28.8889 11.0067 28.6613 9.96459 28.2061C6.12294 26.5279 0 22.5758 0 14.432C0 13.6116 0 12.855 0 12.1574Z" fill="#D02E26"/>
<path d="M15.2187 20.8462H11.4031V8.66638H15.2187V20.8462Z" fill="white"/>
<rect x="19.4027" y="12.8475" width="3.81554" height="12.1804" transform="rotate(90 19.4027 12.8475)" fill="white"/>
</svg>
