<svg width="1186" height="93" viewBox="0 0 1186 93" fill="none" xmlns="http://www.w3.org/2000/svg">
<g clip-path="url(#clip0_2642_11400)">
<path d="M11.5053 30.8324L9.37365 39.3464L10.7501 39.5167C10.9871 38.8897 11.3599 38.3266 11.7474 37.7835C13.4378 35.4148 14.9924 34.6538 17.8664 34.2695C21.2266 33.8205 24.7073 33.9871 28.0918 34.0248L5.52983 63.5014C2.48924 59.4993 0.550996 54.6076 0.10839 49.5724C-1.62616 29.8351 17.7614 14.857 36.4796 21.669C52.6427 27.551 59.3875 47.098 50.0549 61.6989C41.6755 74.8086 24.0078 78.2489 11.2908 69.1297C10.3799 68.477 7.87929 66.5317 7.331 65.6804C7.25798 65.5671 7.21506 65.4966 7.24261 65.3531C8.09195 65.0937 8.87852 64.696 9.74451 64.4724C13.5806 63.4828 17.7415 63.691 21.6391 64.1618C29.2909 65.0867 37.4109 68.0792 42.7158 60.4761C44.0032 58.6308 45.0274 56.2576 45.5098 54.0644L44.3606 53.7801C42.66 57.4855 39.4125 60.4281 35.26 60.9886C31.1132 61.5484 26.4956 60.7458 22.304 60.6279C20.6771 60.5818 19.0508 60.6638 17.4354 60.7234L39.7668 30.8318H11.5053V30.8324Z" fill="#062E25"/>
<path d="M207.949 33.9922C207.134 34.8505 206.495 35.8958 206.385 37.1045C206.322 37.7944 206.403 38.5291 206.377 39.2247C206.314 40.8971 206.084 43.2421 206.275 44.8709C206.291 45.0054 206.287 45.1092 206.419 45.1899H218.141V37.0923C218.141 36.7657 217.797 35.7062 217.635 35.3764C217.373 34.8441 216.941 34.4361 216.566 33.9922H224.998C223.7 35.0984 223.417 36.5549 223.326 38.1992C222.973 44.6147 223.504 51.453 223.446 57.8916C223.627 58.8492 224.195 59.6441 224.812 60.3679H216.566C217.138 59.7376 217.691 59.0868 217.911 58.2413C217.98 57.9787 218.141 57.2165 218.141 56.9897V48.4291H206.281C206.345 50.7228 206.196 53.0345 206.277 55.3276C206.318 56.4844 206.345 57.8916 206.819 58.9511C207.054 59.4756 207.453 59.8952 207.763 60.3679H199.517C200.047 59.8446 200.533 59.352 200.793 58.6346C201.082 57.8365 201.152 56.7393 201.189 55.8836C201.425 50.4916 201.304 44.3438 201.088 38.9473C201.04 37.7534 201.233 36.6734 200.709 35.5307L199.609 33.9922H207.949Z" fill="#062E25"/>
<path d="M133.82 60.3617L134.921 58.9161C135.152 58.3979 135.27 57.8336 135.307 57.2661C135.735 50.7102 134.979 43.692 135.301 37.0881C135.2 35.8474 134.68 34.8565 133.82 33.9873C137.01 34.0789 140.227 33.863 143.415 33.9822C147.519 34.1353 152.701 35.2914 153.534 40.0723C154.287 44.3953 150.722 47.4826 146.885 48.4248L146.899 48.642C150.364 52.7055 153.732 56.8978 157.82 60.3624H152.492C150.433 60.3624 147.94 57.7215 146.653 56.2918C144.554 53.9577 142.688 51.4046 140.585 49.0718V57.1693C140.585 57.2596 140.689 57.8156 140.719 57.9617C140.916 58.9449 141.404 59.6399 142.068 60.3624H133.821L133.82 60.3617ZM140.584 46.7575C144.36 46.9221 148.902 45.0448 147.843 40.4791C147.086 37.2085 143.372 36.9408 140.584 37.0401V46.7575Z" fill="#062E25"/>
<path d="M111.858 33.9935C111.449 34.5706 111.017 35.1477 110.769 35.8203C110.496 36.5575 110.417 37.4197 110.377 38.2049C110.165 42.2902 110.245 47.264 110.467 51.3467C110.638 54.4949 111.107 56.5247 114.544 57.3619C119.183 58.4918 122.263 56.2224 122.518 51.5344C122.778 46.7458 122.317 41.7227 122.513 36.9098C122.407 35.7255 121.949 34.7461 121.032 33.9928H129.372C128.285 34.8057 127.805 36.0425 127.705 37.3716C127.313 42.5689 128.444 49.2009 127.288 54.1676C125.503 61.8322 114.029 63.1369 108.493 59.0567C104.608 56.1936 104.892 52.1935 104.812 47.8327C104.748 44.3047 105.13 40.147 104.815 36.724C104.716 35.6422 104.19 34.7333 103.427 33.9922H111.859L111.858 33.9935Z" fill="#062E25"/>
<path d="M98.6088 33.9922L82.6712 56.9904C87.5084 57.0532 92.5424 57.4394 97.0664 55.4499C97.7505 55.1489 98.393 54.7556 99.0713 54.4456L96.57 60.3679H73.6826L89.8054 37.3697L84.1034 37.3204C83.1215 37.4389 82.1357 37.4619 81.157 37.6163C79.147 37.934 77.2126 38.6527 75.396 39.543L77.8992 33.9922H98.6095H98.6088Z" fill="#062E25"/>
<path d="M194.98 34.1784V39.1758C190.339 35.9244 182.86 36.2146 179.744 41.4042C177.455 45.2166 177.623 51.0979 180.615 54.4947C184.42 58.8157 190.741 58.1104 195.073 55.0013V59.8136C194.11 60.0621 193.159 60.3798 192.183 60.5835C185.667 61.944 178.195 60.8641 174.463 54.8085C171.489 49.9834 171.981 43.0388 175.659 38.712C180.302 33.2502 188.376 32.3355 194.98 34.1784Z" fill="#062E25"/>
<path d="M168.467 33.9922C166.532 35.4712 166.956 37.6528 166.895 39.78C166.747 45.0035 166.56 50.7657 166.794 55.9764C166.869 57.6489 167.066 59.1945 168.374 60.3679H160.127C161.218 59.2335 161.616 58.0037 161.706 56.4389C162.076 50.0285 161.503 43.1729 161.598 36.733C161.424 35.5749 160.946 34.7986 160.127 33.9922H168.467Z" fill="#062E25"/>
</g>
<path d="M285 0L285 93" stroke="#062E25" stroke-opacity="0.3"/>
<path d="M561 0L561 93" stroke="#062E25" stroke-opacity="0.3"/>
<path d="M901 0L901 93" stroke="#062E25" stroke-opacity="0.3"/>
<g clip-path="url(#clip1_2642_11400)">
<path d="M473.866 34.5979C474.058 33.4428 475.403 32.4896 476.526 32.3364C480.976 32.5564 485.789 31.9898 490.197 32.3133C500.336 33.0586 502.841 45.9822 493.931 50.4457L500.845 60.304L500.586 60.7405H494.567L488.9 52.7376C486.982 50.5126 484.013 51.9278 481.525 51.2676V46.8041L481.799 46.5305H490.007C490.112 46.5305 491.163 46.15 491.358 46.0588C494.742 44.4708 494.86 39.4639 491.5 37.7519C491.264 37.6315 490.36 37.2388 490.19 37.2388H479.337V60.467L479.063 60.7405H473.865V34.5979H473.866Z" fill="#062E25"/>
<path d="M370.357 32.3125C370.503 32.3575 370.627 32.6007 370.641 32.7697C370.671 33.132 368.789 37.1043 368.504 37.2028L353.41 37.2478C349.267 38.291 349.72 43.7831 354.117 44.1612C360.75 44.7315 372.748 41.5289 373.525 51.7386C373.819 55.6075 370.485 60.7337 366.345 60.7337H346.19C346.309 59.7999 346.872 58.6254 347.31 57.7536C347.544 57.2879 348.068 55.9808 348.505 55.8495L365.421 55.8033C369.661 54.2299 368.791 49.2461 364.162 48.8849C360.192 48.5749 353.101 49.7312 349.768 48.1396C344.262 45.5097 343.536 37.7341 348.394 34.0597C349.273 33.3958 351.601 32.3137 352.664 32.3137H370.357V32.3125Z" fill="#062E25"/>
<path d="M396.349 37.0559C394.792 37.2261 393.209 36.8565 391.691 36.8662C390.391 36.8747 388.075 37.017 386.828 37.293C385.17 37.659 383.557 38.8894 382.892 40.4676C381.904 42.8155 381.916 51.2865 383.319 53.4411C385.535 56.8419 392.973 56.4735 396.6 55.981C399.594 55.5737 402.003 53.2076 402.003 50.0828V43.2508H407.201C407.462 43.4113 407.453 43.6143 407.484 43.8794C407.832 46.8425 407.504 53.0167 406.11 55.643C403.398 60.7485 398.802 60.8166 393.696 60.9151C384.844 61.0853 377.422 60.7996 376.825 49.9077C376.315 40.6208 376.899 32.72 388.042 32.1303C390.074 32.0221 393.785 31.9018 395.72 32.1291C395.985 32.1607 396.188 32.1522 396.349 32.4112V37.0571V37.0559Z" fill="#062E25"/>
<path d="M465.566 60.7399L460.976 51.616L447.421 51.5418C446.426 51.9892 443.832 59.4888 442.767 60.7387H437.296L437.101 60.1843L442.463 48.7757C442.687 47.9781 444.616 46.5287 445.32 46.5287H458.544L454.244 37.2503L453.716 37.4254L450.92 43.5595L450.428 44.1602H444.865C444.833 43.9036 444.88 43.6726 444.951 43.4258C445.372 41.9789 448.421 35.5092 449.273 34.2605C451.076 31.6208 456.597 31.5236 458.638 33.9553C462.606 42.1601 466.734 50.4366 470.432 58.7933C470.656 59.3003 470.804 59.839 471.105 60.3132L470.857 60.7375H465.567L465.566 60.7399Z" fill="#062E25"/>
<path d="M418.418 46.5225H436.931L437.18 46.9468C436.714 47.6873 436.466 48.5494 436.086 49.3214C435.781 49.9355 435.262 51.4419 434.561 51.4419H418.418V60.7337H413.128V38.0515C413.128 35.5942 417.038 32.3125 419.421 32.3125H438.208C438.32 32.3125 438.478 32.6092 438.491 32.7697C438.522 33.132 436.639 37.1043 436.355 37.2028L420.71 37.2441C419.873 37.3122 418.418 38.7591 418.418 39.5093V46.5237V46.5225Z" fill="#062E25"/>
<path d="M399.951 32.3596C401.015 32.1687 404.439 32.1894 405.563 32.3171C406.331 32.4046 407.012 32.6527 407.123 33.4916C407.232 34.3257 407.23 39.5528 407.033 40.1607C406.864 40.6823 406.436 40.8222 405.931 40.8817C405.041 40.9863 400.093 41.0082 399.443 40.7978C398.921 40.6288 398.78 40.2021 398.72 39.6975C398.592 38.6105 398.545 34.3063 398.728 33.3226C398.833 32.7645 399.446 32.4496 399.953 32.3584L399.951 32.3596Z" fill="#062E25"/>
</g>
<g clip-path="url(#clip2_2642_11400)">
<path d="M786.398 60.6766H773.29C771.484 60.0917 769.826 58.9774 769.392 57.0249C769.692 51.506 768.79 45.1531 769.321 39.7317C769.485 38.0568 770.713 36.3385 772.371 35.8498C773.918 35.3948 784.573 35.4165 786.5 35.6778C789.152 36.0393 790.178 38.5889 790.364 40.9733C790.655 44.6859 790.755 52.4592 790.328 56.0663C790.036 58.5224 788.609 59.848 786.398 60.6766ZM775.64 40.8582C775.193 41.1791 775.081 41.4309 775.01 41.9603C774.687 44.3583 774.759 51.3842 775.007 53.8782C775.044 54.2451 775.198 55.2254 775.64 55.2254H784.049L784.42 54.8544V41.2292L784.049 40.8582H775.64Z" fill="#062E25"/>
<path d="M703.057 60.6763C700.071 59.5335 699.305 57.9642 699.089 54.8649C698.824 51.067 698.808 45.0078 699.089 41.2207C699.271 38.7578 700.143 36.0606 702.953 35.6788C704.881 35.4161 715.535 35.3945 717.082 35.8508C718.915 36.391 719.967 38.1674 720.13 39.9832C720.612 45.3802 719.799 51.549 720.06 57.0259C719.626 59.0461 718.168 59.9072 716.409 60.6776H703.054L703.057 60.6763ZM705.407 40.8578L705.036 41.2288V54.8541L705.407 55.2251H713.816C714.129 55.2251 714.403 54.4506 714.446 54.1229C714.768 51.725 714.697 44.6991 714.448 42.2051C714.412 41.8381 714.258 40.8578 713.816 40.8578H705.407Z" fill="#062E25"/>
<path d="M823.003 60.6866H807.916C805.805 60.0638 804.216 58.6461 803.959 56.3525C803.781 54.7615 803.759 49.7666 804.069 48.2867C804.326 47.0695 806.101 45.3282 807.298 45.3282H817.314V41.7361C817.314 41.6426 816.753 40.8695 816.696 40.8695H804.948C805.506 39.5751 805.839 35.8205 807.351 35.4725C811.516 35.9559 822.252 33.3129 823.009 39.5006L823.003 60.6866ZM817.316 54.989V50.9013C817.098 50.5465 816.822 50.5614 816.464 50.5181C814.525 50.2825 811.718 51.0421 809.646 50.8986C808.854 51.367 808.958 54.989 809.772 54.989H817.316Z" fill="#062E25"/>
<path d="M743.364 60.6745H737.677L737.549 41.8513C737.494 41.7348 737.101 41.3516 737.058 41.3516H730.009V60.6745H724.322V35.4062H739.036C740.782 35.4062 743.19 37.4494 743.343 39.2678L743.364 60.6745Z" fill="#062E25"/>
<path d="M648.394 60.6846C647.13 60.1998 646.15 59.8329 645.318 58.6874C645.177 58.4938 644.437 57.1845 644.437 57.0924V35.6641H650.125V54.119C650.125 54.2165 650.412 54.6769 650.541 54.7568C651.037 55.0655 655.915 55.125 656.672 54.9802C656.944 54.9287 657.545 54.5523 657.545 54.3668V35.6641H663.48V56.8446C663.48 58.3692 660.966 60.3962 659.522 60.6846H648.393H648.394Z" fill="#062E25"/>
<path d="M667.193 60.6832C667.393 59.6122 668.172 55.5502 668.98 55.1657C670.637 54.3776 676.882 55.4162 679.18 54.9788C680.499 54.7283 680.443 52.1977 679.13 51.5749C677.172 50.6447 673.263 50.7801 670.908 49.9027C669.064 49.2162 668.102 48.2237 667.925 46.2022C667.777 44.5273 667.769 40.9826 668.046 39.3659C668.28 37.9997 669.809 35.6641 671.275 35.6641H685.742L684.021 41.0002C682.298 41.5093 674.779 40.552 673.864 41.4795C673.36 41.9886 673.391 44.5503 674.27 45.0486C675.949 46.0005 680.81 46.1602 683.149 47.0552C685.122 47.8094 685.57 48.7856 685.75 50.8898C685.963 53.354 686.186 57.7965 684.134 59.4443L681.291 60.6832H667.194H667.193Z" fill="#062E25"/>
<path d="M747.075 60.6846L748.723 55.2131C750.535 54.4453 758.553 55.58 759.589 54.7622C760.186 54.2923 760.086 52.0867 759.432 51.652C758.491 51.0279 753.254 50.6 751.582 50.1004C749.284 49.4139 748.036 48.5108 747.808 45.9544C747.618 43.8408 747.574 38.7796 748.922 37.1413C749.243 36.7513 750.748 35.6641 751.156 35.6641H765.624L763.897 40.9947C762.179 41.516 754.792 40.5777 753.814 41.4213C753.281 41.8816 753.236 44.53 754.153 45.0486C755.741 45.949 760.569 46.1643 762.712 46.8792C763.596 47.1744 764.757 47.7498 765.182 48.6177C765.835 49.9541 765.839 56.1351 765.364 57.5744C764.762 59.3996 763.112 60.1714 761.421 60.6846H747.077H747.075Z" fill="#062E25"/>
<path d="M800.25 60.6813H794.314L794.537 27.5855L800.247 26L800.25 60.6813Z" fill="#062E25"/>
<path d="M826.714 60.6846L826.735 39.2779C826.574 38.1784 828.996 35.6641 829.804 35.6641H840.563C840.179 36.624 839.364 40.3692 838.585 40.7429C837.436 41.294 833.49 40.3909 832.766 41.1071C832.642 41.229 832.584 41.4361 832.512 41.5959L832.4 60.6832H826.712L826.714 60.6846Z" fill="#062E25"/>
<path d="M689.202 60.6717L689.256 36.3255C689.587 34.8253 693.727 34.6344 695.01 33.9141L695.137 60.6717H689.202Z" fill="#062E25"/>
<path d="M641.719 26.9922V32.8144L621.439 38.3874V32.813C621.439 32.7629 621.679 32.3215 621.75 32.2565L641.719 26.9922Z" fill="#062E25"/>
<path d="M639.245 39.1328V44.2117C639.245 44.2631 638.93 44.9902 638.862 45.066C637.906 46.156 623.793 48.7408 621.439 49.7847V44.2103C621.439 44.037 622.319 43.4304 622.616 43.4074L639.247 39.1328H639.245Z" fill="#062E25"/>
<path d="M621.438 60.4299V54.8555C621.438 54.02 626.778 53.3431 627.62 52.75V58.3244C627.62 58.514 627.186 59.0176 626.947 59.1368C625.769 59.7271 622.84 60.0399 621.437 60.4299H621.438Z" fill="#062E25"/>
<path d="M689.202 32.9365V28.3532C689.202 27.2443 694.208 26.6161 695.137 26V31.0788C693.447 32.1268 691.155 32.5425 689.202 32.9365Z" fill="#062E25"/>
</g>
<g clip-path="url(#clip3_2642_11400)">
<path d="M993.217 38.7219C1001.07 37.9219 1007.45 43.0937 1006.71 51.2569C1005.75 61.9354 990.564 64.7345 985.007 56.1353C980.496 49.152 984.878 39.5716 993.217 38.7219ZM993.849 43.2011C986.556 44.3377 987.266 57.2943 995.41 56.7861C1003.92 56.2539 1003 41.7743 993.849 43.2011Z" fill="#062E25"/>
<path d="M1134.73 39.3203C1136.32 39.5095 1138.24 40.6493 1139.11 41.9912C1140.9 44.7662 1140.75 50.7283 1137.39 52.3234L1137.37 52.5382L1142.18 60.9596C1142.01 61.192 1136.96 61.2337 1136.52 60.9708L1132.64 54.5486H1128.07V60.881L1127.83 61.1215H1123.18L1122.94 60.881V39.3203H1134.73ZM1128.07 50.0614H1132.48C1132.68 50.0614 1133.72 49.5981 1133.95 49.4506C1135.9 48.245 1135.83 45.2103 1133.8 44.0961C1133.57 43.9694 1132.68 43.6488 1132.48 43.6488H1128.07V50.0614Z" fill="#062E25"/>
<path d="M1063.71 39.3203C1065.07 39.4935 1066.95 40.5595 1067.8 41.6449C1069.83 44.25 1069.8 50.9575 1066.19 52.3074L1071.02 60.7175L1070.85 61.0493C1070.59 61.2273 1065.86 61.1808 1065.49 60.9451L1061.7 54.5486H1057.14L1056.89 54.789V61.1215H1051.93V39.3203H1063.71H1063.71ZM1056.9 50.0614H1061.47C1061.54 50.0614 1062.26 49.7888 1062.41 49.7231C1064.65 48.7372 1065.04 45.3978 1062.88 44.1538C1062.71 44.056 1061.58 43.6488 1061.47 43.6488H1057.14L1056.9 43.8893V50.0614Z" fill="#062E25"/>
<path d="M1096.17 61.1234H1091.76L1091.52 60.8829V49.741L1085.53 55.6615L1079.66 49.741V60.7226C1079.66 60.7755 1079.45 60.9663 1079.5 61.1234H1075.09L1075.17 38.519L1076.15 38.7467L1085.51 50.0585L1095.12 38.6713L1095.61 38.5078L1095.99 38.7836C1096.39 46.2077 1096.07 53.6816 1096.17 61.1234H1096.17Z" fill="#062E25"/>
<path d="M1150.2 38.8359V49.577L1157.49 38.8359H1162.22L1155.86 48.2143L1162.71 60.7269L1162.46 61.1196H1158.13L1153.08 51.8214L1150.2 56.23V60.8792L1149.96 61.1196H1145.31L1145.07 60.8792V38.8359H1150.2Z" fill="#062E25"/>
<path d="M963.939 55.6994L967.498 54.0594C968.131 55.5086 969.035 56.5202 970.638 56.8841C972.721 57.3571 977.036 56.6533 975.461 53.6666C974.478 51.8054 971.749 51.8374 970 51.4318C965.891 50.4812 964.131 47.9626 964.554 43.7319C965.229 36.9891 975.849 36.3831 979.459 41.0098C979.879 41.5485 980.974 43.065 980.252 43.5604C979.986 43.7432 976.562 45.1379 976.362 45.0818C975.759 44.2049 975.445 43.0731 974.486 42.4574C972.543 41.2086 968.615 42.1256 968.734 44.8429C968.852 47.5603 973.938 47.533 975.836 48.0011C979.993 49.0271 981.921 52.3488 980.7 56.5106C979.377 61.0122 973.223 61.6727 969.332 60.9193C966.72 60.4111 964.004 58.5562 963.939 55.6994Z" fill="#062E25"/>
<path d="M1120.54 61.1283H1115.49C1114.89 61.1283 1114.1 58.0391 1113.78 57.4635L1105.13 57.5405C1104.65 58.3821 1104.37 60.1279 1103.88 60.8558C1103.81 60.9472 1103.54 61.1283 1103.47 61.1283H1098.58L1098.87 59.8987C1101.96 53.6833 1104.6 47.2226 1107.74 41.0329C1107.98 40.5552 1108.99 38.4214 1109.23 38.2034C1109.52 37.9436 1110.05 37.9324 1110.26 38.3027L1120.54 61.1299V61.1283ZM1112.04 53.5935L1109.48 47.5016L1106.75 53.5935H1112.04Z" fill="#062E25"/>
<path d="M1048.4 61.1143H1043.35C1042.63 60.7343 1041.96 57.5842 1041.56 57.4495L1033.03 57.4463C1032.77 58.0699 1031.95 61.1143 1031.32 61.1143H1026.68C1026.61 61.1143 1026.4 60.8562 1026.43 60.7215L1037.03 38.2871C1037.25 37.9168 1037.77 37.928 1038.06 38.1877C1038.24 38.348 1039.34 40.7239 1039.56 41.1776C1041.79 45.7979 1043.68 50.6153 1045.81 55.2901C1046.45 56.7056 1047.95 59.1665 1048.32 60.4682C1048.39 60.6846 1048.43 60.8882 1048.4 61.1143ZM1040.06 53.5795L1037.18 47.4876L1034.61 53.5795H1040.06Z" fill="#062E25"/>
<path d="M1183.06 38.8359V43.1644H1176.81V60.8792L1176.57 61.1196H1171.68V43.1644H1165.27V38.8359H1183.06Z" fill="#062E25"/>
<path d="M1015.37 38.8359V56.7911L1024.35 56.6308V60.8792L1024.11 61.1196H1010.4V38.8359H1015.37Z" fill="#062E25"/>
</g>
<defs>
<clipPath id="clip0_2642_11400">
<rect width="225" height="54.2432" fill="white" transform="translate(0 20)"/>
</clipPath>
<clipPath id="clip1_2642_11400">
<rect width="155.692" height="28.9428" fill="white" transform="translate(345.154 32)"/>
</clipPath>
<clipPath id="clip2_2642_11400">
<rect width="219.123" height="34.6813" fill="white" transform="translate(621.439 26)"/>
</clipPath>
<clipPath id="clip3_2642_11400">
<rect width="219.123" height="23.2039" fill="white" transform="translate(963.939 38)"/>
</clipPath>
</defs>
</svg>
