<svg width="64" height="61" viewBox="0 0 64 61" fill="none" xmlns="http://www.w3.org/2000/svg">
<path d="M61.9683 0C62.3035 0 62.6387 0 62.9841 0C62.2458 2.41275 61.2572 4.6396 60.127 6.88889C59.9718 7.20743 59.8166 7.52597 59.6567 7.85417C58.5747 10.0205 57.3524 12.0351 56.0357 14.0675C53.1748 18.6669 51.1447 23.6349 49.0159 28.6032C48.5944 29.5766 48.1724 30.5498 47.75 31.5228C46.7275 33.8807 45.7112 36.2411 44.6984 38.6032C47.8826 36.6023 50.4322 34.5451 53.005 31.8056C53.6064 31.1774 54.23 30.5707 54.8571 29.9683C55.1924 29.9683 55.5276 29.9683 55.873 29.9683C55.873 31.3092 55.873 32.6502 55.873 34.0317C58.9023 32.1982 61.4076 29.8263 64 27.4286C64 29.5763 62.7874 30.5086 61.3968 32C61.1559 32.2711 60.9149 32.5421 60.6667 32.8214C59.0699 34.5563 57.5937 35.6825 55.3651 36.5714C54.8622 36.5714 54.3594 36.5714 53.8413 36.5714C53.6737 35.901 53.506 35.2305 53.3333 34.5397C53.0014 34.8893 53.0014 34.8893 52.6627 35.246C49.7572 38.2396 47.4987 40.289 43.1746 40.6349C43.1194 40.9926 43.0642 41.3503 43.0073 41.7188C42.6265 43.3461 42.025 44.6552 41.2798 46.1508C40.9972 46.7178 40.7147 47.2848 40.4236 47.869C40.1267 48.457 39.8297 49.045 39.5238 49.6508C39.2367 50.2309 38.9496 50.811 38.6538 51.4087C36.9771 54.7505 35.1893 57.9081 33.0159 60.9524C32.2616 60.701 32.2616 60.701 31.4921 60.4444C29.3311 54.7089 30.7752 46.0279 33.1806 40.6567C34.3139 38.4346 35.4489 36.543 37.2698 34.8254C37.7098 34.3959 38.1498 33.9664 38.6032 33.5238C38.6032 32.8533 38.6032 32.1829 38.6032 31.4921C38.3727 31.7435 38.1422 31.9949 37.9048 32.254C37.0794 33.0159 37.0794 33.0159 36.0635 33.0159C35.8959 32.513 35.7283 32.0102 35.5556 31.4921C35.0737 31.8273 34.5917 32.1625 34.0952 32.5079C32.5079 33.5238 32.5079 33.5238 31.4921 33.5238C31.3244 33.1886 31.1568 32.8533 30.9841 32.5079C30.6292 32.8013 30.2744 33.0946 29.9087 33.3968C29.4465 33.774 28.9842 34.1511 28.5079 34.5397C28.0483 34.9168 27.5887 35.294 27.1151 35.6825C25.9048 36.5714 25.9048 36.5714 24.8889 36.5714C24.7213 36.2362 24.5537 35.901 24.381 35.5556C24.1538 35.7638 23.9265 35.972 23.6925 36.1865C21.2688 38.3466 19.6107 39.619 16.254 39.619C16.3378 39.0638 16.4216 38.5086 16.5079 37.9365C16.796 36.1269 16.796 36.1269 16.7619 34.5397C16.529 34.7726 16.2961 35.0055 16.0562 35.2454C14.2577 37.0439 12.4592 38.8424 10.6607 40.6409C10.31 40.9932 9.9593 41.3455 9.59797 41.7085C8.82232 42.4802 8.0315 43.2367 7.23611 43.9881C5.89549 45.4196 4.94171 46.9208 3.93651 48.6032C3.75841 48.8981 3.58032 49.1931 3.39683 49.497C2.73875 50.5917 2.0952 51.6826 1.52381 52.8254C1.02095 52.6578 0.518095 52.4902 0 52.3175C1.73281 43.8936 4.83792 36.1782 8.94965 28.6465C11.3698 24.1653 13.1307 19.5567 14.7302 14.7302C14.8978 14.7302 15.0654 14.7302 15.2381 14.7302C15.2795 16.8439 15.2292 18.7669 14.7302 20.8254C15.1073 20.4902 15.4844 20.1549 15.873 19.8095C17.2698 18.7937 17.2698 18.7937 19.3016 18.7937C18.0152 25.8104 14.7515 32.2822 10.6667 38.0952C10.8971 37.8438 11.1276 37.5924 11.3651 37.3333C12.1905 36.5714 12.1905 36.5714 13.2064 36.5714C13.3268 36.286 13.4473 36.0005 13.5714 35.7064C14.3693 34.2761 15.3472 33.2802 16.5079 32.127C16.9113 31.721 17.3146 31.3151 17.7302 30.8968C18.7937 29.9683 18.7937 29.9683 19.8095 29.9683C19.5098 32.766 19.0138 35.3772 18.2857 38.0952C21.1826 36.0178 21.1826 36.0178 23.7778 33.5873C24.8889 32.5079 24.8889 32.5079 26.4127 32.5079C26.5803 33.0108 26.7479 33.5137 26.9206 34.0317C27.2389 33.7384 27.5571 33.4451 27.8849 33.1429C28.3 32.7657 28.7152 32.3886 29.1429 32C29.5554 31.6229 29.9679 31.2457 30.3929 30.8571C31.4921 29.9683 31.4921 29.9683 32.5079 29.9683C32.6756 30.4711 32.8432 30.974 33.0159 31.4921C33.4035 31.2406 33.7911 30.9892 34.1905 30.7302C35.5556 29.9683 35.5556 29.9683 37.0794 29.9683C37.247 30.3035 37.4146 30.6387 37.5873 30.9841C38.4254 30.3137 39.2635 29.6432 40.127 28.9524C40.3784 30.461 40.3784 30.461 40.6349 32C47.85 25.2659 52.7709 17.0114 57.2191 8.2908C58.68 5.43672 60.1534 2.6469 61.9683 0Z" fill="#1D3043"/>
<path d="M14.7302 14.7305C14.8978 14.7305 15.0654 14.7305 15.2381 14.7305C15.2795 16.8442 15.2292 18.7672 14.7302 20.8257C15.1073 20.4905 15.4844 20.1552 15.873 19.8098C17.2698 18.794 17.2698 18.794 19.3016 18.794C18.0152 25.8107 14.7515 32.2825 10.6667 38.0955C10.8971 37.8441 11.1276 37.5927 11.3651 37.3336C12.1905 36.5717 12.1905 36.5717 13.2063 36.5717C13.3268 36.2863 13.4473 36.0008 13.5714 35.7067C14.3693 34.2764 15.3472 33.2805 16.5079 32.1273C16.9113 31.7213 17.3146 31.3154 17.7302 30.8971C18.7936 29.9686 18.7936 29.9686 19.8095 29.9686C19.5098 32.7663 19.0138 35.3775 18.2857 38.0955C18.621 38.0955 18.9562 38.0955 19.3016 38.0955C19.3016 38.4308 19.3016 38.766 19.3016 39.1114C17.793 39.3628 17.793 39.3628 16.254 39.6194C16.3378 39.0641 16.4216 38.5089 16.5079 37.9368C16.796 36.1272 16.796 36.1272 16.7619 34.54C16.529 34.7729 16.2961 35.0058 16.0562 35.2457C14.2577 37.0442 12.4592 38.8427 10.6607 40.6412C10.31 40.9935 9.9593 41.3458 9.59797 41.7088C8.82232 42.4805 8.0315 43.237 7.23611 43.9884C5.89549 45.42 4.94171 46.9211 3.93651 48.6035C3.75841 48.8985 3.58032 49.1934 3.39683 49.4973C2.73875 50.592 2.0952 51.6829 1.52381 52.8257C1.02095 52.6581 0.518095 52.4905 0 52.3178C1.73281 43.8939 4.83792 36.1785 8.94965 28.6468C11.3698 24.1656 13.1307 19.557 14.7302 14.7305Z" fill="#1C3042"/>
<path d="M61.9685 0C62.3037 0 62.6389 0 62.9843 0C62.246 2.41275 61.2574 4.63959 60.1272 6.88889C59.972 7.20743 59.8168 7.52597 59.657 7.85417C58.5688 10.0327 57.3384 12.0601 56.0161 14.1052C53.279 18.5053 51.346 23.2368 49.3335 28C48.7569 29.3536 48.1787 30.7066 47.599 32.0589C47.242 32.893 46.8869 33.7279 46.534 34.5638C46.2944 35.1265 46.2944 35.1265 46.0501 35.7006C45.9112 36.0293 45.7723 36.3579 45.6292 36.6964C45.2066 37.5873 45.2066 37.5873 44.1907 39.1111C44.1907 38.7759 44.1907 38.4406 44.1907 38.0952C43.185 38.3467 43.185 38.3467 42.1589 38.6032C41.1532 37.4298 40.1475 36.2565 39.1113 35.0476C40.5591 33.3306 41.9631 31.6792 43.5875 30.127C44.7531 29.0928 44.7531 29.0928 44.9268 27.9702C45.271 26.679 45.8002 26.1581 46.7304 25.2063C51.2326 20.1927 54.2391 14.1797 57.2704 8.21416C60.5533 1.76929 60.5533 1.76929 61.9685 0Z" fill="#2A3C4D"/>
<path d="M37.5874 36.5713C37.9226 36.5713 38.2579 36.5713 38.6033 36.5713C39.2886 37.4113 39.9652 38.2585 40.635 39.111C41.1379 39.4462 41.6407 39.7814 42.1588 40.1268C41.843 42.4485 40.9034 44.3553 39.8414 46.4126C39.6625 46.7636 39.4837 47.1145 39.2995 47.4762C38.7327 48.584 38.1605 49.6889 37.5874 50.7935C37.3984 51.1609 37.2094 51.5283 37.0147 51.9069C36.4688 52.9664 35.9181 54.0233 35.3652 55.0792C35.1112 55.5702 35.1112 55.5702 34.8522 56.071C33.6419 58.3535 33.6419 58.3535 32.508 58.9205C32.2034 51.059 32.2949 42.9979 37.5874 36.5713Z" fill="#FDFFF5"/>
<path d="M14.7301 14.7305C14.8978 14.7305 15.0654 14.7305 15.2381 14.7305C15.2795 16.8442 15.2292 18.7672 14.7301 20.8257C15.1073 20.4905 15.4844 20.1552 15.873 19.8098C17.2698 18.794 17.2698 18.794 19.3016 18.794C18.8135 21.3156 18.227 23.7372 17.3651 26.159C17.2151 26.5833 17.0652 27.0076 16.9107 27.4448C16.2539 28.4448 16.2539 28.4448 14.9147 28.8416C14.5185 28.8782 14.1224 28.9149 13.7143 28.9527C13.5808 29.4013 13.4473 29.8499 13.3098 30.3121C12.7134 31.9589 12.0238 33.1877 11.0436 34.6313C10.5673 35.3384 10.5673 35.3384 10.0813 36.0598C9.75068 36.543 9.42002 37.0263 9.07935 37.5241C8.74476 38.0191 8.41018 38.5141 8.06546 39.0241C7.24255 40.2406 6.41643 41.4548 5.58728 42.667C5.41966 42.3317 5.25204 41.9965 5.07935 41.6511C5.53458 40.3701 5.53458 40.3701 6.25196 38.7741C6.50569 38.2045 6.75941 37.6348 7.02081 37.0479C7.29156 36.4508 7.5623 35.8536 7.84125 35.2384C8.11003 34.6373 8.37881 34.0363 8.65573 33.417C9.32251 31.9273 9.99295 30.4393 10.6666 28.9527C10.499 28.7851 10.3314 28.6175 10.1587 28.4448C9.99109 28.1095 9.82347 27.7743 9.65077 27.4289C10.0647 26.3227 10.5291 25.2352 11.0159 24.159C12.3947 21.0609 13.6181 17.9357 14.7301 14.7305Z" fill="#213446"/>
<path d="M49.778 22.8574C49.9456 23.1927 50.1132 23.5279 50.2859 23.8733C49.7939 25.0201 49.7939 25.0201 49.0161 26.4765C47.6649 29.0836 46.4367 31.7183 45.2701 34.413C45.1126 34.7765 44.9551 35.1399 44.7929 35.5144C44.4215 36.3742 44.052 37.2348 43.6828 38.0955C41.651 38.0955 41.651 38.0955 40.897 37.4289C40.3018 36.6352 39.7066 35.8415 39.1113 35.0479C40.7228 33.1142 42.3526 31.2777 44.1589 29.5241C46.2556 27.4638 48.0306 25.2165 49.778 22.8574Z" fill="#FDFFF5"/>
<path d="M16.2539 21.8408C17.0242 24.1516 15.9389 25.5593 14.9206 27.6821C14.7206 28.1036 14.5206 28.5252 14.3146 28.9595C11.9043 33.8541 8.79199 38.2654 5.58728 42.6662C5.41966 42.331 5.25204 41.9957 5.07935 41.6503C5.74524 39.7044 6.61044 37.8424 7.44988 35.9654C7.8644 35.0347 8.26764 34.099 8.67062 33.1632C10.6074 28.7959 12.8267 25.1795 16.2539 21.8408Z" fill="#FDFFF5"/>
<path d="M61.9684 0C62.3036 0 62.6389 0 62.9843 0C62.2133 2.56728 61.1212 4.86217 59.9049 7.2381C59.7199 7.60345 59.535 7.96881 59.3444 8.34524C58.8662 9.2892 58.3857 10.232 57.9049 11.1746C57.7373 11.5098 57.5697 11.8451 57.397 12.1905C56.3494 12.5079 56.3494 12.5079 55.3652 12.6984C56.1786 9.74497 57.644 7.26134 59.1748 4.63492C59.5548 3.9651 59.5548 3.9651 59.9426 3.28175C60.1868 2.86008 60.4311 2.43841 60.6827 2.00397C60.905 1.61905 61.1273 1.23413 61.3563 0.83755C61.5583 0.561158 61.7603 0.284767 61.9684 0Z" fill="#1C2F42"/>
<path d="M42.1587 40.127C42.7265 40.9927 42.7265 40.9927 43.1746 42.1587C42.8478 43.3138 42.8478 43.3138 42.2163 44.5615C41.9907 45.011 41.7651 45.4605 41.5327 45.9236C41.1669 46.6214 41.1669 46.6214 40.7936 47.3333C40.5596 47.8044 40.3255 48.2755 40.0843 48.7609C38.3007 52.2489 38.3007 52.2489 36.5714 52.8254C37.3393 50.2646 38.4318 47.9849 39.6508 45.619C41.0457 42.9351 41.0457 42.9351 42.1587 40.127Z" fill="#233648"/>
<path d="M19.3015 30.4766C19.931 32.3649 19.5911 33.2392 19.0793 35.1432C18.9333 35.6952 18.7873 36.2472 18.6368 36.8158C18.463 37.4493 18.463 37.4493 18.2857 38.0956C18.6209 38.0956 18.9561 38.0956 19.3015 38.0956C19.3015 38.4308 19.3015 38.7661 19.3015 39.1115C18.2958 39.2791 17.2901 39.4467 16.2539 39.6194C16.5137 37.4109 16.9251 35.5705 17.7777 33.5242C17.7777 33.0213 17.7777 32.5185 17.7777 32.0004C18.5396 31.1432 18.5396 31.1432 19.3015 30.4766Z" fill="#14283C"/>
<path d="M24.8892 32.5078C25.392 32.6754 25.8949 32.8431 26.413 33.0157C25.9101 33.351 25.4073 33.6862 24.8892 34.0316C25.0568 34.8697 25.2244 35.7078 25.3971 36.5713C25.0619 36.2361 24.7266 35.9008 24.3812 35.5554C24.1423 35.7695 23.9033 35.9836 23.657 36.2042C23.3408 36.4825 23.0245 36.7608 22.6987 37.0475C22.3864 37.3245 22.0741 37.6014 21.7523 37.8868C20.8257 38.6031 20.8257 38.6031 19.3019 39.111C19.1343 38.6081 18.9666 38.1053 18.7939 37.5872C19.2339 37.3148 19.6739 37.0424 20.1273 36.7618C21.9539 35.5527 23.3796 34.0893 24.8892 32.5078Z" fill="#314354"/>
<path d="M61.9686 0C62.3039 0 62.6391 0 62.9845 0C62.6609 1.02074 62.3183 2.03549 61.9686 3.04762C61.858 3.36976 61.7473 3.69191 61.6333 4.02381C61.2702 4.98413 61.2702 4.98413 60.4448 6.60318C59.3337 7.07937 59.3337 7.07937 58.4131 7.11111C59.1335 4.49133 60.2792 2.13346 61.9686 0Z" fill="#223547"/>
<path d="M49.2699 21.8408C49.7728 21.8408 50.2756 21.8408 50.7937 21.8408C50.7937 22.8465 50.7937 23.8522 50.7937 24.8884C50.4585 24.3856 50.1232 23.8827 49.7779 23.3646C48.4369 25.0408 47.0959 26.717 45.7144 28.444C45.3791 28.1088 45.0439 27.7735 44.6985 27.4281C44.9859 27.1099 45.2734 26.7917 45.5695 26.4638C46.1284 25.8412 46.1284 25.8412 46.6985 25.2059C47.0697 24.7934 47.441 24.3809 47.8235 23.9559C48.7772 22.9282 48.7772 22.9282 49.2699 21.8408Z" fill="#304253"/>
<path d="M25.3969 33.0156C25.7321 33.0156 26.0673 33.0156 26.4127 33.0156C26.5803 33.3509 26.748 33.6861 26.9207 34.0315C27.5911 33.8639 28.2616 33.6963 28.9524 33.5236C27.1111 35.9998 27.1111 35.9998 25.3969 36.5712C25.3969 35.9007 25.3969 35.2302 25.3969 34.5394C25.0616 34.3718 24.7264 34.2042 24.381 34.0315C24.7162 33.6963 25.0515 33.361 25.3969 33.0156Z" fill="#162A3D"/>
<path d="M31.4922 29.9678C31.8274 30.1354 32.1627 30.303 32.5081 30.4757C32.3405 30.8109 32.1728 31.1462 32.0001 31.4916C32.203 32.5573 32.203 32.5573 32.5081 33.5233C32.1728 33.5233 31.8376 33.5233 31.4922 33.5233C31.3246 33.1881 31.157 32.8529 30.9843 32.5075C30.649 32.8427 30.3138 33.1779 29.9684 33.5233C29.2979 33.3557 28.6274 33.1881 27.9366 33.0154C29.11 32.0097 30.2833 31.004 31.4922 29.9678Z" fill="#2B3D4E"/>
<path d="M52.317 18.7939C52.825 20.3178 52.825 20.3178 52.0948 21.9368C51.7019 22.6439 51.7019 22.6439 51.3012 23.3654C51.1335 22.8625 50.9659 22.3597 50.7932 21.8416C50.458 21.6739 50.1227 21.5063 49.7773 21.3336C50.6154 20.4955 51.4535 19.6574 52.317 18.7939Z" fill="#1C2F42"/>
<path d="M14.7299 14.7305C14.8975 14.7305 15.0651 14.7305 15.2378 14.7305C15.3829 18.5037 15.3829 18.5037 14.2219 20.3178C13.8867 20.1502 13.5515 19.9825 13.2061 19.8098C13.7089 18.1336 14.2118 16.4575 14.7299 14.7305Z" fill="#495867"/>
<path d="M39.6194 28.9521C39.787 28.9521 39.9546 28.9521 40.1273 28.9521C40.1273 30.6283 40.1273 32.3045 40.1273 34.0315C39.7921 34.0315 39.4568 34.0315 39.1115 34.0315C38.808 32.6283 38.6035 31.4104 38.6035 29.968C38.9388 29.6328 39.274 29.2975 39.6194 28.9521Z" fill="#15293C"/>
<path d="M42.1587 40.127C42.4939 40.7974 42.8292 41.4679 43.1746 42.1587C42.4762 43.8095 42.4762 43.8095 41.6508 45.2063C41.3155 45.0387 40.9803 44.8711 40.6349 44.6984C41.1377 43.1898 41.6406 41.6812 42.1587 40.127Z" fill="#334555"/>
<path d="M49.7778 23.873C50.127 24.6984 50.127 24.6984 50.2858 25.9048C49.5556 27.5556 49.5556 27.5556 48.762 28.9524C48.4267 28.9524 48.0915 28.9524 47.7461 28.9524C48.255 27.0258 48.6656 25.5414 49.7778 23.873Z" fill="#1D3043"/>
</svg>
