<svg width="117" height="23" viewBox="0 0 117 23" fill="none" xmlns="http://www.w3.org/2000/svg">
<path d="M5.54 13.192C4.94267 13.192 4.39867 13.1227 3.908 12.984C3.428 12.8453 3.00667 12.6587 2.644 12.424C2.292 12.1787 1.99867 11.9067 1.764 11.608C1.52933 11.3093 1.364 10.9947 1.268 10.664L2.788 10.168C2.948 10.6053 3.252 10.984 3.7 11.304C4.148 11.624 4.69733 11.7893 5.348 11.8C6.13733 11.8 6.756 11.6453 7.204 11.336C7.66267 11.016 7.892 10.5947 7.892 10.072C7.892 9.592 7.69467 9.20267 7.3 8.904C6.90533 8.59467 6.38267 8.36 5.732 8.2L4.436 7.864C3.924 7.72533 3.45467 7.528 3.028 7.272C2.612 7.016 2.28133 6.69067 2.036 6.296C1.79067 5.90133 1.668 5.42667 1.668 4.872C1.668 3.848 1.99867 3.048 2.66 2.472C3.332 1.896 4.29733 1.608 5.556 1.608C6.28133 1.608 6.91067 1.72533 7.444 1.96C7.97733 2.184 8.41467 2.48267 8.756 2.856C9.108 3.22933 9.35867 3.64 9.508 4.088L7.988 4.6C7.80667 4.12 7.49733 3.736 7.06 3.448C6.62267 3.14933 6.084 3 5.444 3C4.772 3 4.23867 3.16 3.844 3.48C3.46 3.8 3.268 4.23733 3.268 4.792C3.268 5.26133 3.41733 5.624 3.716 5.88C4.02533 6.12533 4.436 6.312 4.948 6.44L6.244 6.76C7.28933 7.016 8.09467 7.44267 8.66 8.04C9.236 8.62667 9.524 9.272 9.524 9.976C9.524 10.584 9.36933 11.1333 9.06 11.624C8.76133 12.104 8.31333 12.488 7.716 12.776C7.12933 13.0533 6.404 13.192 5.54 13.192ZM14.6489 13.192C13.8489 13.192 13.1449 13.016 12.5369 12.664C11.9289 12.3013 11.4489 11.8053 11.0969 11.176C10.7555 10.5467 10.5849 9.82133 10.5849 9C10.5849 8.17867 10.7555 7.45333 11.0969 6.824C11.4382 6.19467 11.9129 5.704 12.5209 5.352C13.1289 4.98933 13.8275 4.808 14.6169 4.808C15.4062 4.808 16.1049 4.98933 16.7129 5.352C17.3209 5.704 17.7955 6.19467 18.1369 6.824C18.4782 7.45333 18.6489 8.17867 18.6489 9C18.6489 9.82133 18.4782 10.5467 18.1369 11.176C17.7955 11.8053 17.3209 12.3013 16.7129 12.664C16.1155 13.016 15.4275 13.192 14.6489 13.192ZM14.6489 11.8C15.1289 11.8 15.5555 11.6827 15.9289 11.448C16.3022 11.2027 16.5902 10.872 16.7929 10.456C17.0062 10.04 17.1129 9.55467 17.1129 9C17.1129 8.44533 17.0062 7.96 16.7929 7.544C16.5902 7.128 16.2969 6.80267 15.9129 6.568C15.5289 6.32267 15.0969 6.2 14.6169 6.2C14.1262 6.2 13.6942 6.32267 13.3209 6.568C12.9475 6.80267 12.6542 7.128 12.4409 7.544C12.2275 7.96 12.1209 8.44533 12.1209 9C12.1209 9.55467 12.2275 10.04 12.4409 10.456C12.6542 10.872 12.9529 11.2027 13.3369 11.448C13.7209 11.6827 14.1582 11.8 14.6489 11.8ZM19.9941 13V1.8H21.5141V13H19.9941ZM28.2111 13L28.1471 11.608V8.824C28.1471 8.23733 28.0778 7.74667 27.9391 7.352C27.8111 6.95733 27.6085 6.65867 27.3311 6.456C27.0645 6.25333 26.7071 6.152 26.2591 6.152C25.8431 6.152 25.4805 6.23733 25.1711 6.408C24.8725 6.57867 24.6218 6.84533 24.4191 7.208L23.0751 6.696C23.2671 6.33333 23.5071 6.01333 23.7951 5.736C24.0831 5.448 24.4298 5.224 24.8351 5.064C25.2405 4.89333 25.7151 4.808 26.2591 4.808C27.0165 4.808 27.6458 4.95733 28.1471 5.256C28.6485 5.55467 29.0218 5.98667 29.2671 6.552C29.5231 7.11733 29.6458 7.816 29.6351 8.648L29.6191 13H28.2111ZM25.8591 13.192C24.9098 13.192 24.1685 12.9787 23.6351 12.552C23.1125 12.1147 22.8511 11.512 22.8511 10.744C22.8511 9.92267 23.1231 9.29867 23.6671 8.872C24.2218 8.43467 24.9898 8.216 25.9711 8.216H28.1951V9.416H26.3871C25.6511 9.416 25.1338 9.53333 24.8351 9.768C24.5365 9.992 24.3871 10.3067 24.3871 10.712C24.3871 11.0853 24.5258 11.3787 24.8031 11.592C25.0911 11.7947 25.4858 11.896 25.9871 11.896C26.4245 11.896 26.8031 11.8053 27.1231 11.624C27.4431 11.432 27.6938 11.1653 27.8751 10.824C28.0565 10.4827 28.1471 10.0933 28.1471 9.656H28.6751C28.6751 10.744 28.4405 11.608 27.9711 12.248C27.5125 12.8773 26.8085 13.192 25.8591 13.192ZM32.1571 8.696C32.1571 7.832 32.3225 7.128 32.6531 6.584C32.9838 6.04 33.4105 5.63467 33.9331 5.368C34.4558 5.10133 35.0051 4.968 35.5811 4.968V6.408C35.1011 6.408 34.6425 6.48267 34.2051 6.632C33.7785 6.77067 33.4265 7.00533 33.1491 7.336C32.8825 7.656 32.7491 8.09333 32.7491 8.648L32.1571 8.696ZM31.2291 13V5H32.7491V13H31.2291ZM44.0575 13.192C43.4602 13.192 42.9162 13.1227 42.4255 12.984C41.9455 12.8453 41.5242 12.6587 41.1615 12.424C40.8095 12.1787 40.5162 11.9067 40.2815 11.608C40.0468 11.3093 39.8815 10.9947 39.7855 10.664L41.3055 10.168C41.4655 10.6053 41.7695 10.984 42.2175 11.304C42.6655 11.624 43.2148 11.7893 43.8655 11.8C44.6548 11.8 45.2735 11.6453 45.7215 11.336C46.1802 11.016 46.4095 10.5947 46.4095 10.072C46.4095 9.592 46.2122 9.20267 45.8175 8.904C45.4228 8.59467 44.9002 8.36 44.2495 8.2L42.9535 7.864C42.4415 7.72533 41.9722 7.528 41.5455 7.272C41.1295 7.016 40.7988 6.69067 40.5535 6.296C40.3082 5.90133 40.1855 5.42667 40.1855 4.872C40.1855 3.848 40.5162 3.048 41.1775 2.472C41.8495 1.896 42.8148 1.608 44.0735 1.608C44.7988 1.608 45.4282 1.72533 45.9615 1.96C46.4948 2.184 46.9322 2.48267 47.2735 2.856C47.6255 3.22933 47.8762 3.64 48.0255 4.088L46.5055 4.6C46.3242 4.12 46.0148 3.736 45.5775 3.448C45.1402 3.14933 44.6015 3 43.9615 3C43.2895 3 42.7562 3.16 42.3615 3.48C41.9775 3.8 41.7855 4.23733 41.7855 4.792C41.7855 5.26133 41.9348 5.624 42.2335 5.88C42.5428 6.12533 42.9535 6.312 43.4655 6.44L44.7615 6.76C45.8068 7.016 46.6122 7.44267 47.1775 8.04C47.7535 8.62667 48.0415 9.272 48.0415 9.976C48.0415 10.584 47.8868 11.1333 47.5775 11.624C47.2788 12.104 46.8308 12.488 46.2335 12.776C45.6468 13.0533 44.9215 13.192 44.0575 13.192ZM50.5264 16.392C50.2917 16.392 50.0304 16.3493 49.7424 16.264C49.465 16.1787 49.177 16.0667 48.8784 15.928L49.4384 14.68C49.673 14.7867 49.8757 14.8667 50.0464 14.92C50.2277 14.9733 50.3717 15 50.4784 15C50.745 15 50.969 14.9253 51.1504 14.776C51.3424 14.6267 51.497 14.4187 51.6144 14.152L52.5424 11.96L55.3904 5H57.0224L53.2304 13.992C53.0277 14.4827 52.8144 14.9093 52.5904 15.272C52.3664 15.6347 52.089 15.912 51.7584 16.104C51.4384 16.296 51.0277 16.392 50.5264 16.392ZM52.1264 13L48.6224 5H50.2384L53.1344 11.944L53.5984 13H52.1264ZM60.735 13.192C60.1697 13.192 59.663 13.1067 59.215 12.936C58.7777 12.7653 58.4043 12.536 58.095 12.248C57.7963 11.96 57.5723 11.6347 57.423 11.272L58.735 10.696C58.9057 11.0267 59.1617 11.2987 59.503 11.512C59.8443 11.7253 60.223 11.832 60.639 11.832C61.0977 11.832 61.4763 11.7467 61.775 11.576C62.0737 11.4053 62.223 11.1653 62.223 10.856C62.223 10.5573 62.111 10.3227 61.887 10.152C61.663 9.98133 61.3377 9.84267 60.911 9.736L60.159 9.544C59.4123 9.34133 58.831 9.03733 58.415 8.632C58.0097 8.22667 57.807 7.768 57.807 7.256C57.807 6.47733 58.0577 5.87467 58.559 5.448C59.0603 5.02133 59.8017 4.808 60.783 4.808C61.263 4.808 61.7003 4.87733 62.095 5.016C62.5003 5.15467 62.8417 5.352 63.119 5.608C63.407 5.864 63.6097 6.168 63.727 6.52L62.447 7.096C62.319 6.776 62.1003 6.54133 61.791 6.392C61.4817 6.232 61.119 6.152 60.703 6.152C60.2763 6.152 59.9403 6.248 59.695 6.44C59.4497 6.62133 59.327 6.87733 59.327 7.208C59.327 7.38933 59.4283 7.56533 59.631 7.736C59.8443 7.896 60.1537 8.02933 60.559 8.136L61.423 8.344C61.9457 8.472 62.3777 8.66933 62.719 8.936C63.0603 9.192 63.3163 9.48533 63.487 9.816C63.6577 10.136 63.743 10.472 63.743 10.824C63.743 11.304 63.6097 11.7253 63.343 12.088C63.087 12.44 62.7297 12.712 62.271 12.904C61.823 13.096 61.311 13.192 60.735 13.192ZM68.0921 13.192C67.2921 13.192 66.6735 12.9893 66.2361 12.584C65.7988 12.168 65.5801 11.576 65.5801 10.808V2.504H67.1001V10.584C67.1001 10.9787 67.1961 11.2827 67.3881 11.496C67.5908 11.6987 67.8788 11.8 68.2521 11.8C68.3588 11.8 68.4761 11.7787 68.6041 11.736C68.7321 11.6933 68.8868 11.608 69.0681 11.48L69.6441 12.664C69.3668 12.8453 69.1001 12.9787 68.8441 13.064C68.5988 13.1493 68.3481 13.192 68.0921 13.192ZM64.2201 6.312V5H69.3721V6.312H64.2201ZM74.2983 13.192C73.5196 13.192 72.8316 13.016 72.2343 12.664C71.6369 12.3013 71.1676 11.8053 70.8263 11.176C70.4849 10.5467 70.3143 9.82133 70.3143 9C70.3143 8.17867 70.4849 7.45333 70.8263 6.824C71.1676 6.19467 71.6369 5.704 72.2343 5.352C72.8423 4.98933 73.5356 4.808 74.3143 4.808C75.0503 4.808 75.6956 4.99467 76.2503 5.368C76.8049 5.73067 77.2369 6.25333 77.5463 6.936C77.8663 7.608 78.0263 8.40267 78.0263 9.32H71.5623L71.8503 9.08C71.8503 9.64533 71.9623 10.136 72.1863 10.552C72.4103 10.968 72.7143 11.288 73.0983 11.512C73.4823 11.7253 73.9196 11.832 74.4103 11.832C74.9436 11.832 75.3863 11.7093 75.7383 11.464C76.1009 11.208 76.3836 10.888 76.5863 10.504L77.8983 11.112C77.6849 11.528 77.4076 11.896 77.0663 12.216C76.7249 12.5253 76.3196 12.7653 75.8503 12.936C75.3916 13.1067 74.8743 13.192 74.2983 13.192ZM71.9463 8.36L71.6423 8.12H76.6983L76.4103 8.36C76.4103 7.89067 76.3143 7.49067 76.1223 7.16C75.9303 6.81867 75.6743 6.56267 75.3543 6.392C75.0343 6.21067 74.6769 6.12 74.2823 6.12C73.8983 6.12 73.5249 6.21067 73.1623 6.392C72.8103 6.56267 72.5169 6.81333 72.2823 7.144C72.0583 7.47467 71.9463 7.88 71.9463 8.36ZM79.2079 13V5H80.6319L80.6959 6.104C80.9519 5.67733 81.2719 5.35733 81.6559 5.144C82.0399 4.92 82.4825 4.808 82.9839 4.808C83.6239 4.808 84.1679 4.95733 84.6159 5.256C85.0639 5.544 85.3892 5.98667 85.5919 6.584C85.8265 6.008 86.1572 5.57067 86.5839 5.272C87.0105 4.96267 87.5172 4.808 88.1039 4.808C89.0105 4.808 89.7199 5.10667 90.2319 5.704C90.7439 6.29067 90.9945 7.19733 90.9839 8.424V13H89.4799V8.904C89.4799 8.17867 89.3999 7.62933 89.2399 7.256C89.0905 6.872 88.8879 6.60533 88.6319 6.456C88.3759 6.30667 88.0772 6.22667 87.7359 6.216C87.1385 6.216 86.6745 6.44533 86.3439 6.904C86.0239 7.36267 85.8639 8.008 85.8639 8.84V13H84.3439V8.904C84.3439 8.17867 84.2692 7.62933 84.1199 7.256C83.9705 6.872 83.7625 6.60533 83.4959 6.456C83.2399 6.30667 82.9412 6.22667 82.5999 6.216C82.0025 6.216 81.5385 6.44533 81.2079 6.904C80.8879 7.36267 80.7279 8.008 80.7279 8.84V13H79.2079ZM95.4706 13.192C94.9053 13.192 94.3986 13.1067 93.9506 12.936C93.5133 12.7653 93.14 12.536 92.8306 12.248C92.532 11.96 92.308 11.6347 92.1586 11.272L93.4706 10.696C93.6413 11.0267 93.8973 11.2987 94.2386 11.512C94.58 11.7253 94.9586 11.832 95.3746 11.832C95.8333 11.832 96.212 11.7467 96.5106 11.576C96.8093 11.4053 96.9586 11.1653 96.9586 10.856C96.9586 10.5573 96.8466 10.3227 96.6226 10.152C96.3986 9.98133 96.0733 9.84267 95.6466 9.736L94.8946 9.544C94.148 9.34133 93.5666 9.03733 93.1506 8.632C92.7453 8.22667 92.5426 7.768 92.5426 7.256C92.5426 6.47733 92.7933 5.87467 93.2946 5.448C93.796 5.02133 94.5373 4.808 95.5186 4.808C95.9986 4.808 96.436 4.87733 96.8306 5.016C97.236 5.15467 97.5773 5.352 97.8546 5.608C98.1426 5.864 98.3453 6.168 98.4626 6.52L97.1826 7.096C97.0546 6.776 96.836 6.54133 96.5266 6.392C96.2173 6.232 95.8546 6.152 95.4386 6.152C95.012 6.152 94.676 6.248 94.4306 6.44C94.1853 6.62133 94.0626 6.87733 94.0626 7.208C94.0626 7.38933 94.164 7.56533 94.3666 7.736C94.58 7.896 94.8893 8.02933 95.2946 8.136L96.1586 8.344C96.6813 8.472 97.1133 8.66933 97.4546 8.936C97.796 9.192 98.052 9.48533 98.2226 9.816C98.3933 10.136 98.4786 10.472 98.4786 10.824C98.4786 11.304 98.3453 11.7253 98.0786 12.088C97.8226 12.44 97.4653 12.712 97.0066 12.904C96.5586 13.096 96.0466 13.192 95.4706 13.192Z" fill="#062E25"/>
<path d="M116.854 7.35355C117.049 7.15829 117.049 6.84171 116.854 6.64645L113.672 3.46447C113.476 3.2692 113.16 3.2692 112.964 3.46447C112.769 3.65973 112.769 3.97631 112.964 4.17157L115.793 7L112.964 9.82843C112.769 10.0237 112.769 10.3403 112.964 10.5355C113.16 10.7308 113.476 10.7308 113.672 10.5355L116.854 7.35355ZM116.5 7L116.5 6.5L105.5 6.5L105.5 7L105.5 7.5L116.5 7.5L116.5 7Z" fill="#062E25"/>
<rect x="0.25" y="22.25" width="116.5" height="0.5" fill="white" stroke="#062E25" stroke-width="0.5"/>
</svg>
