<svg width="97" height="23" viewBox="0 0 97 23" fill="none" xmlns="http://www.w3.org/2000/svg">
<path d="M9.524 13V1.8H11.092V13H9.524ZM1.924 13V1.8H3.492V13H1.924ZM3.236 7.96V6.52H10.02V7.96H3.236ZM16.7876 13.192C16.009 13.192 15.321 13.016 14.7236 12.664C14.1263 12.3013 13.657 11.8053 13.3156 11.176C12.9743 10.5467 12.8036 9.82133 12.8036 9C12.8036 8.17867 12.9743 7.45333 13.3156 6.824C13.657 6.19467 14.1263 5.704 14.7236 5.352C15.3316 4.98933 16.025 4.808 16.8036 4.808C17.5396 4.808 18.185 4.99467 18.7396 5.368C19.2943 5.73067 19.7263 6.25333 20.0356 6.936C20.3556 7.608 20.5156 8.40267 20.5156 9.32H14.0516L14.3396 9.08C14.3396 9.64533 14.4516 10.136 14.6756 10.552C14.8996 10.968 15.2036 11.288 15.5876 11.512C15.9716 11.7253 16.409 11.832 16.8996 11.832C17.433 11.832 17.8756 11.7093 18.2276 11.464C18.5903 11.208 18.873 10.888 19.0756 10.504L20.3876 11.112C20.1743 11.528 19.897 11.896 19.5556 12.216C19.2143 12.5253 18.809 12.7653 18.3396 12.936C17.881 13.1067 17.3636 13.192 16.7876 13.192ZM14.4356 8.36L14.1316 8.12H19.1876L18.8996 8.36C18.8996 7.89067 18.8036 7.49067 18.6116 7.16C18.4196 6.81867 18.1636 6.56267 17.8436 6.392C17.5236 6.21067 17.1663 6.12 16.7716 6.12C16.3876 6.12 16.0143 6.21067 15.6516 6.392C15.2996 6.56267 15.0063 6.81333 14.7716 7.144C14.5476 7.47467 14.4356 7.88 14.4356 8.36ZM26.6093 13L26.5453 11.608V8.824C26.5453 8.23733 26.4759 7.74667 26.3373 7.352C26.2093 6.95733 26.0066 6.65867 25.7293 6.456C25.4626 6.25333 25.1053 6.152 24.6573 6.152C24.2413 6.152 23.8786 6.23733 23.5693 6.408C23.2706 6.57867 23.0199 6.84533 22.8173 7.208L21.4733 6.696C21.6653 6.33333 21.9053 6.01333 22.1933 5.736C22.4813 5.448 22.8279 5.224 23.2333 5.064C23.6386 4.89333 24.1133 4.808 24.6573 4.808C25.4146 4.808 26.0439 4.95733 26.5453 5.256C27.0466 5.55467 27.4199 5.98667 27.6653 6.552C27.9213 7.11733 28.0439 7.816 28.0333 8.648L28.0173 13H26.6093ZM24.2573 13.192C23.3079 13.192 22.5666 12.9787 22.0333 12.552C21.5106 12.1147 21.2493 11.512 21.2493 10.744C21.2493 9.92267 21.5213 9.29867 22.0653 8.872C22.6199 8.43467 23.3879 8.216 24.3693 8.216H26.5933V9.416H24.7853C24.0493 9.416 23.5319 9.53333 23.2333 9.768C22.9346 9.992 22.7853 10.3067 22.7853 10.712C22.7853 11.0853 22.9239 11.3787 23.2013 11.592C23.4893 11.7947 23.8839 11.896 24.3853 11.896C24.8226 11.896 25.2013 11.8053 25.5213 11.624C25.8413 11.432 26.0919 11.1653 26.2733 10.824C26.4546 10.4827 26.5453 10.0933 26.5453 9.656H27.0733C27.0733 10.744 26.8386 11.608 26.3693 12.248C25.9106 12.8773 25.2066 13.192 24.2573 13.192ZM32.7153 13.192C31.9153 13.192 31.2966 12.9893 30.8593 12.584C30.4219 12.168 30.2033 11.576 30.2033 10.808V2.504H31.7233V10.584C31.7233 10.9787 31.8193 11.2827 32.0113 11.496C32.2139 11.6987 32.5019 11.8 32.8753 11.8C32.9819 11.8 33.0993 11.7787 33.2273 11.736C33.3553 11.6933 33.5099 11.608 33.6913 11.48L34.2673 12.664C33.9899 12.8453 33.7233 12.9787 33.4673 13.064C33.2219 13.1493 32.9713 13.192 32.7153 13.192ZM28.8433 6.312V5H33.9953V6.312H28.8433ZM39.4021 13V1.8H43.1781C43.9248 1.8 44.5808 1.95467 45.1461 2.264C45.7221 2.56267 46.1701 2.984 46.4901 3.528C46.8208 4.06133 46.9861 4.68533 46.9861 5.4C46.9861 6.09333 46.8368 6.712 46.5381 7.256C46.2395 7.8 45.8235 8.22667 45.2901 8.536C44.7675 8.84533 44.1648 9 43.4821 9H40.9701V13H39.4021ZM40.9701 7.544H43.4661C44.0315 7.544 44.4955 7.34667 44.8581 6.952C45.2208 6.54667 45.4021 6.02933 45.4021 5.4C45.4021 4.74933 45.1888 4.22667 44.7621 3.832C44.3461 3.43733 43.8128 3.24 43.1621 3.24H40.9701V7.544ZM53.4666 13L53.3706 11.528V5H54.8746V13H53.4666ZM47.8346 9.096V5H49.3546V9.096H47.8346ZM49.3546 9.096C49.3546 9.81067 49.4346 10.36 49.5946 10.744C49.7653 11.128 50 11.3947 50.2986 11.544C50.5973 11.6933 50.9333 11.7733 51.3066 11.784C51.9573 11.784 52.464 11.5547 52.8266 11.096C53.1893 10.6373 53.3706 9.992 53.3706 9.16H54.0266C54.0266 10.0027 53.8986 10.728 53.6426 11.336C53.3973 11.9333 53.0453 12.392 52.5866 12.712C52.128 13.032 51.568 13.192 50.9066 13.192C50.288 13.192 49.744 13.064 49.2746 12.808C48.816 12.552 48.4586 12.152 48.2026 11.608C47.9573 11.064 47.8346 10.36 47.8346 9.496V9.096H49.3546ZM56.6754 13V5H58.0994L58.1634 6.104C58.4194 5.67733 58.7394 5.35733 59.1234 5.144C59.5074 4.92 59.95 4.808 60.4514 4.808C61.0914 4.808 61.6354 4.95733 62.0834 5.256C62.5314 5.544 62.8567 5.98667 63.0594 6.584C63.294 6.008 63.6247 5.57067 64.0514 5.272C64.478 4.96267 64.9847 4.808 65.5714 4.808C66.478 4.808 67.1874 5.10667 67.6994 5.704C68.2114 6.29067 68.462 7.19733 68.4514 8.424V13H66.9474V8.904C66.9474 8.17867 66.8674 7.62933 66.7074 7.256C66.558 6.872 66.3554 6.60533 66.0994 6.456C65.8434 6.30667 65.5447 6.22667 65.2034 6.216C64.606 6.216 64.142 6.44533 63.8114 6.904C63.4914 7.36267 63.3314 8.008 63.3314 8.84V13H61.8114V8.904C61.8114 8.17867 61.7367 7.62933 61.5874 7.256C61.438 6.872 61.23 6.60533 60.9634 6.456C60.7074 6.30667 60.4087 6.22667 60.0674 6.216C59.47 6.216 59.006 6.44533 58.6754 6.904C58.3554 7.36267 58.1954 8.008 58.1954 8.84V13H56.6754ZM70.1541 16.2V5H71.5781L71.6741 6.472V16.2H70.1541ZM74.2981 13.192C73.6261 13.192 73.0395 13.016 72.5381 12.664C72.0475 12.312 71.6688 11.8213 71.4021 11.192C71.1355 10.5627 71.0021 9.832 71.0021 9C71.0021 8.15733 71.1355 7.42667 71.4021 6.808C71.6688 6.17867 72.0475 5.688 72.5381 5.336C73.0395 4.984 73.6261 4.808 74.2981 4.808C75.0128 4.808 75.6421 4.984 76.1861 5.336C76.7301 5.688 77.1515 6.17867 77.4501 6.808C77.7595 7.42667 77.9141 8.15733 77.9141 9C77.9141 9.832 77.7595 10.5627 77.4501 11.192C77.1515 11.8213 76.7301 12.312 76.1861 12.664C75.6421 13.016 75.0128 13.192 74.2981 13.192ZM73.9301 11.816C74.4101 11.816 74.8315 11.6987 75.1941 11.464C75.5568 11.2187 75.8395 10.888 76.0421 10.472C76.2555 10.0453 76.3621 9.55467 76.3621 9C76.3621 8.44533 76.2608 7.96 76.0581 7.544C75.8555 7.11733 75.5728 6.78667 75.2101 6.552C74.8475 6.30667 74.4261 6.184 73.9461 6.184C73.5088 6.184 73.1141 6.30667 72.7621 6.552C72.4208 6.78667 72.1541 7.11733 71.9621 7.544C71.7701 7.97067 71.6741 8.456 71.6741 9C71.6741 9.55467 71.7701 10.0453 71.9621 10.472C72.1541 10.888 72.4208 11.2187 72.7621 11.464C73.1035 11.6987 73.4928 11.816 73.9301 11.816Z" fill="#062E25"/>
<path d="M96.8536 7.35355C97.0488 7.15829 97.0488 6.84171 96.8536 6.64645L93.6716 3.46447C93.4763 3.2692 93.1597 3.2692 92.9645 3.46447C92.7692 3.65973 92.7692 3.97631 92.9645 4.17157L95.7929 7L92.9645 9.82843C92.7692 10.0237 92.7692 10.3403 92.9645 10.5355C93.1597 10.7308 93.4763 10.7308 93.6716 10.5355L96.8536 7.35355ZM96.5 7L96.5 6.5L85.5 6.5L85.5 7L85.5 7.5L96.5 7.5L96.5 7Z" fill="#062E25"/>
<rect x="0.25" y="22.25" width="96.5" height="0.5" fill="white" stroke="#062E25" stroke-width="0.5"/>
</svg>
