<svg width="150" height="23" viewBox="0 0 150 23" fill="none" xmlns="http://www.w3.org/2000/svg">
<path d="M6.692 13.192C5.62533 13.192 4.676 12.9467 3.844 12.456C3.012 11.9547 2.36133 11.272 1.892 10.408C1.42267 9.53333 1.188 8.53067 1.188 7.4C1.188 6.26933 1.42267 5.272 1.892 4.408C2.36133 3.53333 3.00667 2.85067 3.828 2.36C4.64933 1.85867 5.59333 1.608 6.66 1.608C7.35333 1.608 8.01467 1.736 8.644 1.992C9.27333 2.23733 9.83333 2.584 10.324 3.032C10.8253 3.46933 11.2093 3.98133 11.476 4.568L10.068 5.208C9.86533 4.77067 9.588 4.392 9.236 4.072C8.884 3.752 8.484 3.50133 8.036 3.32C7.59867 3.13867 7.14 3.048 6.66 3.048C5.91333 3.048 5.24667 3.23467 4.66 3.608C4.07333 3.98133 3.61467 4.49333 3.284 5.144C2.95333 5.79467 2.788 6.54667 2.788 7.4C2.788 8.25333 2.95333 9.01067 3.284 9.672C3.62533 10.3333 4.08933 10.8507 4.676 11.224C5.27333 11.5867 5.95067 11.768 6.708 11.768C7.19867 11.768 7.66267 11.672 8.1 11.48C8.53733 11.2773 8.92667 11.0053 9.268 10.664C9.62 10.312 9.90267 9.912 10.116 9.464L11.524 10.088C11.2573 10.696 10.8787 11.2347 10.388 11.704C9.89733 12.1733 9.332 12.5413 8.692 12.808C8.06267 13.064 7.396 13.192 6.692 13.192ZM12.7989 13V1.8H14.3029V13H12.7989ZM18.3349 13V8.904H19.8389V13H18.3349ZM18.3349 8.904C18.3349 8.17867 18.2495 7.62933 18.0789 7.256C17.9082 6.872 17.6735 6.60533 17.3749 6.456C17.0869 6.30667 16.7562 6.22667 16.3829 6.216C15.7215 6.216 15.2095 6.44533 14.8469 6.904C14.4842 7.36267 14.3029 8.008 14.3029 8.84H13.6629C13.6629 7.99733 13.7855 7.27733 14.0309 6.68C14.2869 6.072 14.6442 5.608 15.1029 5.288C15.5722 4.968 16.1269 4.808 16.7669 4.808C17.3962 4.808 17.9402 4.936 18.3989 5.192C18.8575 5.448 19.2149 5.848 19.4709 6.392C19.7269 6.92533 19.8495 7.62933 19.8389 8.504V8.904H18.3349ZM26.3436 13L26.2796 11.608V8.824C26.2796 8.23733 26.2103 7.74667 26.0716 7.352C25.9436 6.95733 25.741 6.65867 25.4636 6.456C25.197 6.25333 24.8396 6.152 24.3916 6.152C23.9756 6.152 23.613 6.23733 23.3036 6.408C23.005 6.57867 22.7543 6.84533 22.5516 7.208L21.2076 6.696C21.3996 6.33333 21.6396 6.01333 21.9276 5.736C22.2156 5.448 22.5623 5.224 22.9676 5.064C23.373 4.89333 23.8476 4.808 24.3916 4.808C25.149 4.808 25.7783 4.95733 26.2796 5.256C26.781 5.55467 27.1543 5.98667 27.3996 6.552C27.6556 7.11733 27.7783 7.816 27.7676 8.648L27.7516 13H26.3436ZM23.9916 13.192C23.0423 13.192 22.301 12.9787 21.7676 12.552C21.245 12.1147 20.9836 11.512 20.9836 10.744C20.9836 9.92267 21.2556 9.29867 21.7996 8.872C22.3543 8.43467 23.1223 8.216 24.1036 8.216H26.3276V9.416H24.5196C23.7836 9.416 23.2663 9.53333 22.9676 9.768C22.669 9.992 22.5196 10.3067 22.5196 10.712C22.5196 11.0853 22.6583 11.3787 22.9356 11.592C23.2236 11.7947 23.6183 11.896 24.1196 11.896C24.557 11.896 24.9356 11.8053 25.2556 11.624C25.5756 11.432 25.8263 11.1653 26.0076 10.824C26.189 10.4827 26.2796 10.0933 26.2796 9.656H26.8076C26.8076 10.744 26.573 11.608 26.1036 12.248C25.645 12.8773 24.941 13.192 23.9916 13.192ZM30.2896 8.696C30.2896 7.832 30.455 7.128 30.7856 6.584C31.1163 6.04 31.543 5.63467 32.0656 5.368C32.5883 5.10133 33.1376 4.968 33.7136 4.968V6.408C33.2336 6.408 32.775 6.48267 32.3376 6.632C31.911 6.77067 31.559 7.00533 31.2816 7.336C31.015 7.656 30.8816 8.09333 30.8816 8.648L30.2896 8.696ZM29.3616 13V5H30.8816V13H29.3616ZM37.9318 16.408C37.3984 16.408 36.9131 16.3547 36.4758 16.248C36.0384 16.152 35.6704 16.04 35.3718 15.912C35.0731 15.784 34.8491 15.672 34.6998 15.576L35.2758 14.344C35.4144 14.4293 35.6118 14.5253 35.8678 14.632C36.1238 14.7493 36.4224 14.8453 36.7638 14.92C37.1051 15.0053 37.4838 15.048 37.8998 15.048C38.3904 15.048 38.8278 14.9467 39.2118 14.744C39.5958 14.552 39.8944 14.248 40.1078 13.832C40.3318 13.416 40.4438 12.8827 40.4438 12.232V5H41.9638V12.2C41.9638 13.1173 41.7878 13.8853 41.4358 14.504C41.0944 15.1333 40.6198 15.608 40.0118 15.928C39.4144 16.248 38.7211 16.408 37.9318 16.408ZM37.7878 12.888C37.0624 12.888 36.4278 12.7227 35.8838 12.392C35.3504 12.0507 34.9291 11.5813 34.6198 10.984C34.3211 10.376 34.1718 9.67733 34.1718 8.888C34.1718 8.06667 34.3211 7.352 34.6198 6.744C34.9291 6.136 35.3504 5.66133 35.8838 5.32C36.4278 4.97867 37.0624 4.808 37.7878 4.808C38.4491 4.808 39.0251 4.97867 39.5158 5.32C40.0171 5.66133 40.4011 6.14133 40.6678 6.76C40.9451 7.368 41.0838 8.08267 41.0838 8.904C41.0838 9.69333 40.9451 10.392 40.6678 11C40.4011 11.5973 40.0171 12.0613 39.5158 12.392C39.0251 12.7227 38.4491 12.888 37.7878 12.888ZM38.1718 11.608C38.6198 11.608 39.0091 11.4907 39.3398 11.256C39.6704 11.0107 39.9318 10.6853 40.1238 10.28C40.3158 9.864 40.4118 9.38933 40.4118 8.856C40.4118 8.32267 40.3158 7.85333 40.1238 7.448C39.9318 7.04267 39.6651 6.728 39.3238 6.504C38.9931 6.26933 38.6038 6.152 38.1558 6.152C37.6864 6.152 37.2704 6.26933 36.9078 6.504C36.5558 6.728 36.2784 7.04267 36.0758 7.448C35.8731 7.85333 35.7718 8.32267 35.7718 8.856C35.7718 9.38933 35.8731 9.864 36.0758 10.28C36.2891 10.6853 36.5718 11.0107 36.9238 11.256C37.2864 11.4907 37.7024 11.608 38.1718 11.608ZM43.8489 13V5H45.3689V13H43.8489ZM44.6169 3.304C44.3715 3.304 44.1582 3.21333 43.9769 3.032C43.7955 2.84 43.7049 2.62133 43.7049 2.376C43.7049 2.12 43.7955 1.90667 43.9769 1.736C44.1582 1.55467 44.3715 1.464 44.6169 1.464C44.8729 1.464 45.0862 1.55467 45.2569 1.736C45.4382 1.90667 45.5289 2.12 45.5289 2.376C45.5289 2.62133 45.4382 2.84 45.2569 3.032C45.0862 3.21333 44.8729 3.304 44.6169 3.304ZM47.2766 13V5H48.7006L48.7966 6.472V13H47.2766ZM52.8126 13V8.904H54.3326V13H52.8126ZM52.8126 8.904C52.8126 8.17867 52.7273 7.62933 52.5566 7.256C52.3966 6.872 52.1673 6.60533 51.8686 6.456C51.5806 6.30667 51.2446 6.22667 50.8606 6.216C50.21 6.216 49.7033 6.44533 49.3406 6.904C48.978 7.36267 48.7966 8.008 48.7966 8.84H48.1406C48.1406 7.99733 48.2633 7.27733 48.5086 6.68C48.7646 6.072 49.122 5.608 49.5806 5.288C50.05 4.968 50.6046 4.808 51.2446 4.808C51.874 4.808 52.418 4.936 52.8766 5.192C53.346 5.448 53.7033 5.848 53.9486 6.392C54.2046 6.92533 54.3326 7.62933 54.3326 8.504V8.904H52.8126ZM59.2374 16.408C58.704 16.408 58.2187 16.3547 57.7814 16.248C57.344 16.152 56.976 16.04 56.6774 15.912C56.3787 15.784 56.1547 15.672 56.0054 15.576L56.5814 14.344C56.72 14.4293 56.9174 14.5253 57.1734 14.632C57.4294 14.7493 57.728 14.8453 58.0694 14.92C58.4107 15.0053 58.7894 15.048 59.2054 15.048C59.696 15.048 60.1334 14.9467 60.5174 14.744C60.9014 14.552 61.2 14.248 61.4134 13.832C61.6374 13.416 61.7494 12.8827 61.7494 12.232V5H63.2694V12.2C63.2694 13.1173 63.0934 13.8853 62.7414 14.504C62.4 15.1333 61.9254 15.608 61.3174 15.928C60.72 16.248 60.0267 16.408 59.2374 16.408ZM59.0934 12.888C58.368 12.888 57.7334 12.7227 57.1894 12.392C56.656 12.0507 56.2347 11.5813 55.9254 10.984C55.6267 10.376 55.4774 9.67733 55.4774 8.888C55.4774 8.06667 55.6267 7.352 55.9254 6.744C56.2347 6.136 56.656 5.66133 57.1894 5.32C57.7334 4.97867 58.368 4.808 59.0934 4.808C59.7547 4.808 60.3307 4.97867 60.8214 5.32C61.3227 5.66133 61.7067 6.14133 61.9734 6.76C62.2507 7.368 62.3894 8.08267 62.3894 8.904C62.3894 9.69333 62.2507 10.392 61.9734 11C61.7067 11.5973 61.3227 12.0613 60.8214 12.392C60.3307 12.7227 59.7547 12.888 59.0934 12.888ZM59.4774 11.608C59.9254 11.608 60.3147 11.4907 60.6454 11.256C60.976 11.0107 61.2374 10.6853 61.4294 10.28C61.6214 9.864 61.7174 9.38933 61.7174 8.856C61.7174 8.32267 61.6214 7.85333 61.4294 7.448C61.2374 7.04267 60.9707 6.728 60.6294 6.504C60.2987 6.26933 59.9094 6.152 59.4614 6.152C58.992 6.152 58.576 6.26933 58.2134 6.504C57.8614 6.728 57.584 7.04267 57.3814 7.448C57.1787 7.85333 57.0774 8.32267 57.0774 8.856C57.0774 9.38933 57.1787 9.864 57.3814 10.28C57.5947 10.6853 57.8774 11.0107 58.2294 11.256C58.592 11.4907 59.008 11.608 59.4774 11.608ZM72.6288 13.192C72.0314 13.192 71.4874 13.1227 70.9968 12.984C70.5168 12.8453 70.0954 12.6587 69.7328 12.424C69.3808 12.1787 69.0874 11.9067 68.8528 11.608C68.6181 11.3093 68.4528 10.9947 68.3568 10.664L69.8768 10.168C70.0368 10.6053 70.3408 10.984 70.7888 11.304C71.2368 11.624 71.7861 11.7893 72.4368 11.8C73.2261 11.8 73.8448 11.6453 74.2928 11.336C74.7514 11.016 74.9808 10.5947 74.9808 10.072C74.9808 9.592 74.7834 9.20267 74.3888 8.904C73.9941 8.59467 73.4714 8.36 72.8208 8.2L71.5248 7.864C71.0128 7.72533 70.5434 7.528 70.1168 7.272C69.7008 7.016 69.3701 6.69067 69.1248 6.296C68.8794 5.90133 68.7568 5.42667 68.7568 4.872C68.7568 3.848 69.0874 3.048 69.7488 2.472C70.4208 1.896 71.3861 1.608 72.6448 1.608C73.3701 1.608 73.9994 1.72533 74.5328 1.96C75.0661 2.184 75.5034 2.48267 75.8448 2.856C76.1968 3.22933 76.4474 3.64 76.5968 4.088L75.0768 4.6C74.8954 4.12 74.5861 3.736 74.1488 3.448C73.7114 3.14933 73.1728 3 72.5328 3C71.8608 3 71.3274 3.16 70.9328 3.48C70.5488 3.8 70.3568 4.23733 70.3568 4.792C70.3568 5.26133 70.5061 5.624 70.8048 5.88C71.1141 6.12533 71.5248 6.312 72.0368 6.44L73.3328 6.76C74.3781 7.016 75.1834 7.44267 75.7488 8.04C76.3248 8.62667 76.6128 9.272 76.6128 9.976C76.6128 10.584 76.4581 11.1333 76.1488 11.624C75.8501 12.104 75.4021 12.488 74.8048 12.776C74.2181 13.0533 73.4928 13.192 72.6288 13.192ZM81.7376 13.192C80.9376 13.192 80.2336 13.016 79.6256 12.664C79.0176 12.3013 78.5376 11.8053 78.1856 11.176C77.8443 10.5467 77.6736 9.82133 77.6736 9C77.6736 8.17867 77.8443 7.45333 78.1856 6.824C78.527 6.19467 79.0016 5.704 79.6096 5.352C80.2176 4.98933 80.9163 4.808 81.7056 4.808C82.495 4.808 83.1936 4.98933 83.8016 5.352C84.4096 5.704 84.8843 6.19467 85.2256 6.824C85.567 7.45333 85.7376 8.17867 85.7376 9C85.7376 9.82133 85.567 10.5467 85.2256 11.176C84.8843 11.8053 84.4096 12.3013 83.8016 12.664C83.2043 13.016 82.5163 13.192 81.7376 13.192ZM81.7376 11.8C82.2176 11.8 82.6443 11.6827 83.0176 11.448C83.391 11.2027 83.679 10.872 83.8816 10.456C84.095 10.04 84.2016 9.55467 84.2016 9C84.2016 8.44533 84.095 7.96 83.8816 7.544C83.679 7.128 83.3856 6.80267 83.0016 6.568C82.6176 6.32267 82.1856 6.2 81.7056 6.2C81.215 6.2 80.783 6.32267 80.4096 6.568C80.0363 6.80267 79.743 7.128 79.5296 7.544C79.3163 7.96 79.2096 8.44533 79.2096 9C79.2096 9.55467 79.3163 10.04 79.5296 10.456C79.743 10.872 80.0416 11.2027 80.4256 11.448C80.8096 11.6827 81.247 11.8 81.7376 11.8ZM87.0829 13V1.8H88.6029V13H87.0829ZM95.8279 13L95.7319 11.528V5H97.2359V13H95.8279ZM90.1959 9.096V5H91.7159V9.096H90.1959ZM91.7159 9.096C91.7159 9.81067 91.7959 10.36 91.9559 10.744C92.1265 11.128 92.3612 11.3947 92.6599 11.544C92.9585 11.6933 93.2945 11.7733 93.6679 11.784C94.3185 11.784 94.8252 11.5547 95.1879 11.096C95.5505 10.6373 95.7319 9.992 95.7319 9.16H96.3879C96.3879 10.0027 96.2599 10.728 96.0039 11.336C95.7585 11.9333 95.4065 12.392 94.9479 12.712C94.4892 13.032 93.9292 13.192 93.2679 13.192C92.6492 13.192 92.1052 13.064 91.6359 12.808C91.1772 12.552 90.8199 12.152 90.5639 11.608C90.3185 11.064 90.1959 10.36 90.1959 9.496V9.096H91.7159ZM102.125 13.192C101.325 13.192 100.706 12.9893 100.269 12.584C99.8313 12.168 99.6126 11.576 99.6126 10.808V2.504H101.133V10.584C101.133 10.9787 101.229 11.2827 101.421 11.496C101.623 11.6987 101.911 11.8 102.285 11.8C102.391 11.8 102.509 11.7787 102.637 11.736C102.765 11.6933 102.919 11.608 103.101 11.48L103.677 12.664C103.399 12.8453 103.133 12.9787 102.877 13.064C102.631 13.1493 102.381 13.192 102.125 13.192ZM98.2526 6.312V5H103.405V6.312H98.2526ZM104.953 13V5H106.473V13H104.953ZM105.721 3.304C105.476 3.304 105.263 3.21333 105.081 3.032C104.9 2.84 104.809 2.62133 104.809 2.376C104.809 2.12 104.9 1.90667 105.081 1.736C105.263 1.55467 105.476 1.464 105.721 1.464C105.977 1.464 106.191 1.55467 106.361 1.736C106.543 1.90667 106.633 2.12 106.633 2.376C106.633 2.62133 106.543 2.84 106.361 3.032C106.191 3.21333 105.977 3.304 105.721 3.304ZM111.997 13.192C111.197 13.192 110.493 13.016 109.885 12.664C109.277 12.3013 108.797 11.8053 108.445 11.176C108.104 10.5467 107.933 9.82133 107.933 9C107.933 8.17867 108.104 7.45333 108.445 6.824C108.786 6.19467 109.261 5.704 109.869 5.352C110.477 4.98933 111.176 4.808 111.965 4.808C112.754 4.808 113.453 4.98933 114.061 5.352C114.669 5.704 115.144 6.19467 115.485 6.824C115.826 7.45333 115.997 8.17867 115.997 9C115.997 9.82133 115.826 10.5467 115.485 11.176C115.144 11.8053 114.669 12.3013 114.061 12.664C113.464 13.016 112.776 13.192 111.997 13.192ZM111.997 11.8C112.477 11.8 112.904 11.6827 113.277 11.448C113.65 11.2027 113.938 10.872 114.141 10.456C114.354 10.04 114.461 9.55467 114.461 9C114.461 8.44533 114.354 7.96 114.141 7.544C113.938 7.128 113.645 6.80267 113.261 6.568C112.877 6.32267 112.445 6.2 111.965 6.2C111.474 6.2 111.042 6.32267 110.669 6.568C110.296 6.80267 110.002 7.128 109.789 7.544C109.576 7.96 109.469 8.44533 109.469 9C109.469 9.55467 109.576 10.04 109.789 10.456C110.002 10.872 110.301 11.2027 110.685 11.448C111.069 11.6827 111.506 11.8 111.997 11.8ZM117.342 13V5H118.766L118.862 6.472V13H117.342ZM122.878 13V8.904H124.398V13H122.878ZM122.878 8.904C122.878 8.17867 122.793 7.62933 122.622 7.256C122.462 6.872 122.233 6.60533 121.934 6.456C121.646 6.30667 121.31 6.22667 120.926 6.216C120.276 6.216 119.769 6.44533 119.406 6.904C119.044 7.36267 118.862 8.008 118.862 8.84H118.206C118.206 7.99733 118.329 7.27733 118.574 6.68C118.83 6.072 119.188 5.608 119.646 5.288C120.116 4.968 120.67 4.808 121.31 4.808C121.94 4.808 122.484 4.936 122.942 5.192C123.412 5.448 123.769 5.848 124.014 6.392C124.27 6.92533 124.398 7.62933 124.398 8.504V8.904H122.878ZM128.855 13.192C128.29 13.192 127.783 13.1067 127.335 12.936C126.898 12.7653 126.524 12.536 126.215 12.248C125.916 11.96 125.692 11.6347 125.543 11.272L126.855 10.696C127.026 11.0267 127.282 11.2987 127.623 11.512C127.964 11.7253 128.343 11.832 128.759 11.832C129.218 11.832 129.596 11.7467 129.895 11.576C130.194 11.4053 130.343 11.1653 130.343 10.856C130.343 10.5573 130.231 10.3227 130.007 10.152C129.783 9.98133 129.458 9.84267 129.031 9.736L128.279 9.544C127.532 9.34133 126.951 9.03733 126.535 8.632C126.13 8.22667 125.927 7.768 125.927 7.256C125.927 6.47733 126.178 5.87467 126.679 5.448C127.18 5.02133 127.922 4.808 128.903 4.808C129.383 4.808 129.82 4.87733 130.215 5.016C130.62 5.15467 130.962 5.352 131.239 5.608C131.527 5.864 131.73 6.168 131.847 6.52L130.567 7.096C130.439 6.776 130.22 6.54133 129.911 6.392C129.602 6.232 129.239 6.152 128.823 6.152C128.396 6.152 128.06 6.248 127.815 6.44C127.57 6.62133 127.447 6.87733 127.447 7.208C127.447 7.38933 127.548 7.56533 127.751 7.736C127.964 7.896 128.274 8.02933 128.679 8.136L129.543 8.344C130.066 8.472 130.498 8.66933 130.839 8.936C131.18 9.192 131.436 9.48533 131.607 9.816C131.778 10.136 131.863 10.472 131.863 10.824C131.863 11.304 131.73 11.7253 131.463 12.088C131.207 12.44 130.85 12.712 130.391 12.904C129.943 13.096 129.431 13.192 128.855 13.192Z" fill="#062E25"/>
<path d="M149.854 7.35355C150.049 7.15829 150.049 6.84171 149.854 6.64645L146.672 3.46447C146.476 3.2692 146.16 3.2692 145.964 3.46447C145.769 3.65973 145.769 3.97631 145.964 4.17157L148.793 7L145.964 9.82843C145.769 10.0237 145.769 10.3403 145.964 10.5355C146.16 10.7308 146.476 10.7308 146.672 10.5355L149.854 7.35355ZM149.5 7L149.5 6.5L138.5 6.5L138.5 7L138.5 7.5L149.5 7.5L149.5 7Z" fill="#062E25"/>
<rect x="0.25" y="22.25" width="149.5" height="0.5" fill="white" stroke="#062E25" stroke-width="0.5"/>
</svg>
