<svg width="48" height="48" viewBox="0 0 48 48" fill="none" xmlns="http://www.w3.org/2000/svg">
<circle cx="24" cy="24" r="24" transform="rotate(-180 24 24)" fill="#FDFFF5"/>
<path d="M19 25C18.4477 25 18 24.5523 18 24C18 23.4477 18.4477 23 19 23L19 24L19 25ZM30.7071 23.2929C31.0976 23.6834 31.0976 24.3166 30.7071 24.7071L24.3431 31.0711C23.9526 31.4616 23.3195 31.4616 22.9289 31.0711C22.5384 30.6805 22.5384 30.0474 22.9289 29.6569L28.5858 24L22.9289 18.3431C22.5384 17.9526 22.5384 17.3195 22.9289 16.9289C23.3195 16.5384 23.9526 16.5384 24.3431 16.9289L30.7071 23.2929ZM19 24L19 23L30 23L30 24L30 25L19 25L19 24Z" fill="#062E25"/>
</svg>
