<svg width="170" height="21" viewBox="0 0 170 21" fill="none" xmlns="http://www.w3.org/2000/svg">
<path d="M31.189 20.7997C29.3914 16.0602 27.672 11.5217 25.8652 6.7577C24.063 11.5125 22.342 16.0556 20.5904 20.677C20.2453 20.3503 20.2024 19.9684 20.0705 19.6355C17.7207 13.6552 15.3709 7.67492 13.0211 1.69615C12.6622 0.785067 12.6591 0.7866 13.6714 0.7866C15.2405 0.7866 15.2451 0.786601 15.8049 2.24372C17.2575 6.02761 18.7054 9.81304 20.1564 13.5985C20.2453 13.8316 20.3527 14.0571 20.5444 14.4988C22.339 9.74402 24.063 5.17021 25.8667 0.392413C27.6643 5.16255 29.3853 9.72562 31.1231 14.3378C31.4804 14.0709 31.5449 13.6813 31.6737 13.3439C33.1584 9.49094 34.6508 5.63956 36.0895 1.76977C36.3579 1.04735 36.6601 0.717579 37.4945 0.763593C39.0421 0.849486 39.0528 0.792736 38.4654 2.29893C36.1923 8.11819 33.9146 13.9374 31.6369 19.7552C31.5264 20.0359 31.3991 20.3104 31.1875 20.8012L31.189 20.7997Z" fill="#062E25"/>
<path d="M158.688 10.5609C158.688 13.472 158.673 16.3832 158.7 19.2944C158.707 19.9094 158.518 20.1119 157.912 20.0505C154.239 19.6748 151.627 17.7805 150.1 14.4583C148.369 10.6851 149.278 6.23862 152.314 3.42255C153.852 1.99458 155.703 1.18166 157.802 0.942388C158.38 0.876434 158.682 0.960794 158.673 1.67401C158.636 4.63579 158.658 7.59757 158.658 10.5609C158.667 10.5609 158.676 10.5609 158.685 10.5609H158.688Z" fill="#062E25"/>
<path d="M86.0228 20.4475C80.4504 20.4536 76.142 16.096 76.1205 10.4317C76.1006 4.96216 80.5854 0.417492 86.0043 0.415958C91.5 0.414424 95.9373 4.89927 95.9327 10.4532C95.9281 16.096 91.6181 20.4413 86.0228 20.4475ZM93.5752 10.3995C93.5645 6.06343 90.2668 2.66452 86.0565 2.65071C81.814 2.63537 78.478 6.06803 78.4933 10.4317C78.5071 14.7509 81.9091 18.2372 86.0856 18.2158C90.21 18.1928 93.5844 14.6711 93.5752 10.401V10.3995Z" fill="#062E25"/>
<path d="M139.089 20.0607C138.25 20.0607 137.445 20.0545 136.64 20.0637C136.287 20.0683 136.17 19.7999 136.015 19.5729C134.402 17.2139 132.791 14.8549 131.178 12.4944C131.092 12.3686 131.008 12.2398 130.911 12.1217C130.676 11.8303 130.348 11.8962 130.06 11.9576C129.751 12.0235 129.847 12.3257 129.847 12.5358C129.839 14.7844 129.816 17.0329 129.859 19.2799C129.871 19.9364 129.664 20.0913 129.04 20.0775C127.457 20.0422 127.457 20.0714 127.455 18.4609C127.455 12.841 127.465 7.22117 127.44 1.59977C127.437 0.978583 127.576 0.746978 128.236 0.773053C130.146 0.849743 132.069 0.65495 133.953 1.1519C136.23 1.75315 137.75 3.73023 137.795 6.17665C137.842 8.75344 136.373 10.8885 134.048 11.5082C133.33 11.6999 133.431 11.93 133.775 12.407C135.434 14.7031 137.071 17.0176 138.71 19.329C138.853 19.53 139.055 19.7033 139.091 20.0607H139.089ZM129.84 6.40212H129.837C129.837 7.39756 129.843 8.39146 129.834 9.3869C129.831 9.71207 129.885 9.936 130.284 9.9222C131.379 9.88539 132.477 9.88386 133.528 9.49734C134.853 9.00959 135.549 7.98654 135.568 6.49415C135.586 4.96801 134.949 3.99711 133.595 3.45721C132.555 3.04308 131.466 2.9802 130.365 2.95873C129.971 2.95106 129.827 3.0983 129.834 3.49709C129.856 4.46646 129.84 5.43582 129.84 6.40519V6.40212Z" fill="#062E25"/>
<path d="M107.162 20.0606C110.174 13.3594 113.139 6.76561 116.18 0C116.584 0.875803 116.921 1.59056 117.245 2.31144C119.797 7.98346 122.339 13.6601 124.909 19.3244C125.188 19.9395 125.093 20.0116 124.431 20.0928C123.082 20.2616 122.316 19.8275 121.934 18.4854C121.664 17.5391 121.142 16.6648 120.751 15.7506C120.605 15.4117 120.421 15.2476 120.015 15.2506C117.461 15.269 114.907 15.266 112.353 15.2476C111.949 15.2445 111.766 15.4224 111.619 15.7629C111.071 17.0268 110.488 18.2738 109.952 19.5422C109.789 19.9257 109.597 20.099 109.162 20.0714C108.534 20.03 107.902 20.0606 107.16 20.0606H107.162ZM116.251 5.43734C116.18 5.49869 116.124 5.52323 116.105 5.56465C115.084 7.90063 114.067 10.2397 113.044 12.5757C112.887 12.9315 113.03 13.0297 113.369 13.0281C115.234 13.022 117.099 13.0174 118.964 13.0281C119.36 13.0297 119.481 12.9024 119.322 12.5312C118.299 10.1707 117.277 7.8086 116.251 5.43581V5.43734Z" fill="#062E25"/>
<path d="M5.94265 20.4462C2.93333 20.44 0.511449 18.3955 0.0236991 15.5932C-0.0422545 15.2144 0.00989485 14.992 0.433225 14.9736C0.4593 14.9736 0.483841 14.9674 0.508381 14.9613C1.03141 14.8447 1.59278 14.5518 2.06826 14.6545C2.67258 14.7849 2.39343 15.5487 2.60203 16.0104C3.22782 17.3816 4.59597 18.2804 6.14512 18.213C7.61297 18.1501 8.88602 17.0795 9.32776 15.5395C9.75569 14.0487 9.27254 12.6928 7.98568 11.774C7.14669 11.1743 6.18806 10.8154 5.24937 10.4166C4.49628 10.0961 3.76005 9.74942 3.07137 9.30461C-0.151155 7.21864 0.0727806 2.8519 3.4993 1.08188C6.14972 -0.287803 9.2572 0.419281 10.883 2.73379C11.1806 3.15712 11.2496 3.44241 10.7067 3.66328C10.6361 3.69242 10.5732 3.7369 10.5073 3.77678C10.156 3.98231 9.82011 4.31821 9.44893 4.36116C9.04094 4.40871 8.96578 3.8458 8.69737 3.58812C7.36909 2.31046 5.03771 2.38255 3.8076 3.76604C2.9456 4.73387 2.98088 6.09743 3.90423 7.00391C4.63585 7.72173 5.58221 8.05303 6.51016 8.41194C7.87065 8.93957 9.2388 9.47947 10.2818 10.5424C12.0165 12.3078 12.2021 14.4337 11.4291 16.6531C10.6499 18.8878 8.94584 20.0643 6.639 20.4048C6.36292 20.4462 6.07916 20.4385 5.94265 20.4462Z" fill="#062E25"/>
<path d="M68.1783 20.4426C65.1536 20.4212 62.7563 18.4073 62.2792 15.6602C62.2026 15.2216 62.2378 14.9593 62.7501 14.9654C62.7992 14.9654 62.8498 14.9455 62.8989 14.9332C63.3713 14.8259 63.879 14.5574 64.3085 14.6495C64.8698 14.7691 64.606 15.4624 64.7824 15.8842C65.4051 17.3597 66.8193 18.3107 68.3991 18.2186C69.8501 18.1327 71.1416 17.0514 71.5342 15.5912C71.976 13.947 71.4759 12.608 70.0694 11.6693C69.278 11.1417 68.3807 10.8318 67.5279 10.43C66.8592 10.1155 66.1812 9.81491 65.5416 9.4468C63.7072 8.39001 62.7931 6.82399 63.0799 4.67667C63.3406 2.72873 64.8545 1.14585 66.8837 0.624353C69.3746 -0.0167779 71.7229 0.779267 73.0834 2.69192C73.3901 3.12446 73.4852 3.41588 72.9085 3.68276C72.4944 3.87449 72.1385 4.28248 71.7183 4.34536C71.252 4.41592 71.1477 3.78706 70.8363 3.50944C69.4881 2.3054 67.1721 2.42657 66.0003 3.7978C65.0738 4.88066 65.2257 6.32857 66.376 7.23659C67.0663 7.78109 67.8807 8.09092 68.6906 8.40074C69.7167 8.7934 70.729 9.21213 71.6401 9.83639C73.7398 11.2751 74.4116 13.3089 73.9408 15.7247C73.4914 18.0284 72.0665 19.5224 69.8271 20.2248C69.2381 20.4089 68.6277 20.4626 68.1798 20.4457L68.1783 20.4426Z" fill="#062E25"/>
<path d="M53.5935 20.4501C50.7053 20.4072 48.3678 18.4424 47.808 15.6033C47.7374 15.2428 47.7619 15.0281 48.1945 14.9637C48.7482 14.8793 49.3326 14.548 49.831 14.6554C50.44 14.7873 50.1854 15.5803 50.4062 16.0542C51.0243 17.381 52.3848 18.2598 53.911 18.2077C55.3788 18.1571 56.5798 17.1754 57.0737 15.6248C57.5399 14.1584 57.1258 12.8072 55.9172 11.8685C55.0582 11.2028 54.0337 10.8562 53.0582 10.4221C52.2422 10.0586 51.4216 9.70274 50.6884 9.18431C47.6806 7.05846 47.9506 2.86043 51.2038 1.12263C53.8511 -0.290004 57.0583 0.40481 58.6658 2.70705C58.9955 3.181 58.9894 3.46475 58.4372 3.68102C58.3682 3.70863 58.3084 3.76384 58.244 3.80219C57.5936 4.19893 57.0041 4.13093 56.4755 3.59819C55.1641 2.27605 52.7453 2.37882 51.5474 3.80986C50.716 4.80223 50.7943 6.14584 51.7422 7.04772C52.3465 7.6229 53.1119 7.91892 53.8634 8.23795C54.707 8.59533 55.5675 8.9251 56.385 9.33616C59.0661 10.6874 60.1505 13.1599 59.405 16.1324C58.7624 18.7 56.3528 20.4885 53.5965 20.447L53.5935 20.4501Z" fill="#062E25"/>
<path d="M98.2534 10.4387C98.2534 7.47697 98.2702 4.51672 98.2395 1.55648C98.2334 0.950625 98.4006 0.768102 99.0095 0.777305C100.637 0.800312 100.635 0.772704 100.635 2.374C100.635 7.2745 100.648 12.1765 100.62 17.0771C100.617 17.7136 100.786 17.8992 101.422 17.8792C102.876 17.8332 104.332 17.8792 105.786 17.8593C106.2 17.8532 106.356 17.9498 106.364 18.4084C106.392 20.068 106.412 20.068 104.755 20.068C102.841 20.068 100.925 20.045 99.0126 20.0802C98.4251 20.091 98.2303 19.9499 98.238 19.3256C98.2733 16.3654 98.2534 13.4036 98.2534 10.4433V10.4387Z" fill="#062E25"/>
<path d="M43.9043 10.4122C43.9043 13.4016 43.892 16.3925 43.9165 19.3819C43.9211 19.9156 43.7724 20.0767 43.2325 20.0767C41.5269 20.0751 41.5269 20.0966 41.5253 18.4278C41.5253 12.8571 41.5376 7.28474 41.5085 1.71396C41.5054 0.997674 41.6542 0.736927 42.4226 0.767603C43.9027 0.827421 43.9027 0.779873 43.9027 2.28454C43.9027 4.99324 43.9027 7.70194 43.9027 10.4106H43.9058L43.9043 10.4122Z" fill="#062E25"/>
<path d="M169.998 10.4706C169.219 11.2206 168.37 11.6025 167.253 11.5534C165.241 11.4675 163.222 11.5136 161.207 11.5381C160.739 11.5442 160.604 11.4261 160.607 10.946C160.616 9.44599 160.593 9.44599 162.055 9.44599C163.842 9.44599 165.63 9.51041 167.412 9.41838C168.494 9.36316 169.25 9.83404 170 10.4706H169.998Z" fill="#062E25"/>
<path d="M168.449 6.12324C167.627 6.84566 166.817 7.31041 165.687 7.23218C164.19 7.12788 162.679 7.19077 161.174 7.21378C160.739 7.21991 160.619 7.08187 160.61 6.6524C160.575 5.10173 160.558 5.10019 162.089 5.09713C163.363 5.09406 164.644 5.16001 165.912 5.07258C166.968 5.0005 167.678 5.53579 168.449 6.12324Z" fill="#062E25"/>
<path d="M168.448 14.6294C167.655 15.3242 166.863 15.7812 165.759 15.7122C164.234 15.6156 162.699 15.6739 161.17 15.6954C160.743 15.7015 160.613 15.5773 160.607 15.1386C160.587 13.5894 160.569 13.5894 162.093 13.5894C163.369 13.5894 164.649 13.6631 165.918 13.571C166.98 13.4943 167.685 14.0342 168.448 14.6309V14.6294Z" fill="#062E25"/>
<path d="M144.48 1.00929C145.649 0.822167 146.717 0.931067 147.781 0.921865C147.965 0.920331 148.172 1.03843 148.333 1.15194C148.79 1.4725 149.237 1.81147 149.675 2.15811C150.981 3.19036 150.971 3.18883 149.907 4.48489C149.682 4.75945 149.51 4.80393 149.214 4.58459C147.708 3.46338 146.188 2.36057 144.675 1.2501C144.62 1.20869 144.583 1.13966 144.48 1.01083V1.00929Z" fill="#062E25"/>
<path d="M144.373 20.0832C145.053 19.2688 145.855 18.7764 146.583 18.2043C147.402 17.5601 148.252 16.9573 149.09 16.3377C149.171 16.2779 149.269 16.1705 149.341 16.1843C150.059 16.3193 150.048 17.1015 150.481 17.5049C150.7 17.7089 150.59 17.9559 150.341 18.146C149.574 18.7335 148.821 19.3409 148.06 19.936C147.982 19.9973 147.884 20.0771 147.795 20.0771C146.689 20.0863 145.583 20.0832 144.372 20.0832H144.373Z" fill="#062E25"/>
<path d="M144.409 4.10775C144.565 4.16297 144.711 4.20898 144.852 4.26573C146.031 4.74121 147.203 5.2351 148.389 5.69064C148.918 5.89463 149.077 6.16765 148.875 6.72902C148.36 8.1616 148.683 8.22602 147.117 7.59869C146.338 7.28579 145.565 6.95909 144.778 6.67074C144.212 6.46368 143.984 6.10323 144.066 5.50505C144.116 5.15381 144.091 4.79336 144.112 4.43752C144.123 4.255 144.158 4.06941 144.407 4.10775H144.409Z" fill="#062E25"/>
<path d="M148.863 14.4312C148.916 14.9313 148.709 15.0601 148.449 15.1491C147.174 15.5847 145.896 16.0172 144.625 16.4605C144.309 16.5709 144.132 16.528 144.119 16.1537C144.105 15.7196 144.073 15.2871 144.053 14.853C144.036 14.4742 144.204 14.2272 144.57 14.1015C145.655 13.7257 146.738 13.3438 147.821 12.9634C148.206 12.8284 148.456 12.9128 148.556 13.3484C148.653 13.7702 148.791 14.1828 148.863 14.4297V14.4312Z" fill="#062E25"/>
<path d="M146.203 11.4352C146.025 11.4352 145.847 11.4322 145.668 11.4352C143.465 11.4782 144.166 11.4475 144.096 9.68977C144.082 9.34927 144.267 9.23883 144.562 9.2327C145.626 9.21276 146.691 9.18975 147.755 9.18055C148.07 9.17748 148.286 9.30172 148.284 9.67903C148.281 10.1346 148.31 10.5916 148.329 11.0487C148.344 11.4352 148.054 11.4291 147.806 11.4352C147.272 11.449 146.737 11.4398 146.201 11.4398V11.4368L146.203 11.4352Z" fill="#062E25"/>
<path d="M162.46 3.04804C162.218 3.04804 162.165 3.04804 162.115 3.04804C160.494 3.04958 160.377 2.91153 160.612 1.30564C160.639 1.11391 160.661 0.929857 160.898 0.943661C162.234 1.02189 163.645 0.574014 164.84 1.63234C165.235 1.98051 165.141 2.04493 164.817 2.32255C164.067 2.96675 163.231 3.20449 162.46 3.04958V3.04804Z" fill="#062E25"/>
<path d="M162.466 17.864C163.205 17.7351 164.035 17.9023 164.781 18.5174C165.126 18.8011 165.245 18.8625 164.82 19.2521C163.632 20.3426 162.224 19.8733 160.892 19.9607C160.704 19.973 160.625 19.8487 160.625 19.6693C160.625 19.1601 160.624 18.6508 160.625 18.1416C160.625 17.8287 160.862 17.8671 161.06 17.8655C161.468 17.8609 161.874 17.8655 162.466 17.8655V17.864Z" fill="#062E25"/>
<path d="M153.121 20.1085H150.735C151.269 18.7526 151.894 18.7403 153.121 20.1085Z" fill="#062E25"/>
<path d="M150.962 0.869599C151.603 0.869599 152.159 0.86193 152.715 0.8742C152.884 0.878802 153.076 0.84199 153.214 0.993837C151.864 2.30371 151.679 2.30371 150.962 0.868065V0.869599Z" fill="#062E25"/>
</svg>
