<svg width="226" height="34" viewBox="0 0 226 34" fill="none" xmlns="http://www.w3.org/2000/svg">
<path d="M109.951 11.5385C110.035 11.397 110.075 11.3594 110.08 11.3181C110.17 10.5333 110.632 10.1409 111.467 10.1409C112.32 10.1409 112.747 10.5596 112.747 11.397C112.747 15.1582 112.741 18.9176 112.748 22.6788C112.752 24.3524 112.268 25.8056 110.971 26.9381C110.138 27.6656 109.13 28.1154 108.088 28.2426C106.047 28.4935 103.986 28.5042 102.137 27.3556C101.114 26.7195 100.485 25.82 100.35 24.5907C100.309 24.2216 100.42 24.1177 100.759 24.1284C101.187 24.141 101.619 24.1553 102.047 24.1266C102.681 24.0836 103.18 24.1105 103.328 24.9348C103.425 25.4741 103.988 25.7573 104.481 25.9185C105.756 26.3325 107.048 26.3737 108.321 25.863C109.333 25.4562 109.799 24.6373 109.971 23.6177C110.089 22.9135 110.023 22.2021 110.017 21.5176C109.758 21.3814 109.659 21.5803 109.555 21.6735C107.174 23.8346 102.574 23.3615 100.719 19.9121C99.6693 17.9589 99.6962 15.8606 100.368 13.7533C101.25 10.9866 104.156 9.4259 106.9 9.89538C108.07 10.0943 109.082 10.6318 109.951 11.5368V11.5385ZM106.448 20.7238C108.091 20.7238 109.245 20.0196 109.797 18.5574C110.363 17.054 110.367 15.5112 109.704 14.0347C108.656 11.6998 105.271 11.3056 103.714 13.3322C102.59 14.7944 102.518 16.4788 103.026 18.156C103.563 19.9354 104.721 20.7238 106.446 20.722L106.448 20.7238Z" fill="#062E25"/>
<path d="M82.7695 17.5444C81.2661 17.5444 79.7627 17.5624 78.2611 17.5355C77.7217 17.5265 77.6142 17.7129 77.7128 18.2146C78.2521 20.9741 80.5601 22.0475 83.1225 21.0942C83.7551 20.8594 84.2962 20.3559 84.5489 19.6678C84.6851 19.2969 84.9055 19.1571 85.2997 19.1786C85.8713 19.2091 86.4447 19.2019 87.0163 19.1804C87.4679 19.1625 87.5467 19.3453 87.432 19.7449C86.9643 21.3773 85.9071 22.4972 84.3356 23.0491C82.0115 23.868 79.6892 23.8895 77.5497 22.4919C76.0606 21.5189 75.2202 20.0692 74.9712 18.315C74.577 15.5357 74.9479 12.9679 77.3472 11.1223C79.08 9.7891 81.0798 9.53107 83.1709 10.022C86.8371 10.8822 87.8943 14.0359 87.8137 17.0821C87.8012 17.557 87.5324 17.5444 87.2027 17.5426C85.7244 17.5373 84.2442 17.5409 82.7659 17.5426L82.7695 17.5444ZM81.4077 15.5913C82.4075 15.5913 83.4074 15.5644 84.4055 15.602C84.9682 15.6217 85.0416 15.3834 84.952 14.9139C84.6223 13.1543 83.2372 11.9663 81.4686 11.9519C79.6874 11.9376 78.0927 13.2761 77.7791 15.0089C77.6966 15.4622 77.8077 15.6092 78.2647 15.6002C79.3111 15.5805 80.3594 15.5931 81.4059 15.5931L81.4077 15.5913Z" fill="#062E25"/>
<path d="M52.2483 17.54C50.7449 17.54 49.2415 17.5508 47.7381 17.5328C47.2597 17.5275 47.0662 17.6905 47.1808 18.1636C47.8421 20.8998 49.8669 21.966 52.3756 21.1758C53.1658 20.9267 53.7231 20.3999 54.0743 19.6652C54.2355 19.3265 54.438 19.1527 54.8412 19.1778C55.3877 19.2119 55.9396 19.2136 56.4862 19.1778C57.0865 19.1384 57.1098 19.3964 56.9395 19.8623C56.4109 21.3191 55.4738 22.3728 54.0241 22.9856C52.2752 23.7256 50.4726 23.7579 48.6968 23.2777C46.93 22.7992 45.6255 21.6273 44.9625 19.9125C43.9411 17.273 44.0486 14.6855 45.6989 12.2933C47.1988 10.118 50.2486 9.44242 52.6569 10.0015C55.8357 10.7398 57.2101 13.3721 57.2907 16.0563C57.3337 17.5382 57.3499 17.5382 55.8285 17.54C54.6351 17.54 53.4417 17.54 52.2483 17.54ZM50.8076 15.5922V15.5886C51.8792 15.5886 52.9508 15.5779 54.0223 15.594C54.3879 15.5994 54.5671 15.4901 54.5061 15.1048C54.3234 13.9437 53.8001 12.9886 52.7447 12.4098C50.7073 11.2935 47.9245 12.227 47.2919 15.0188C47.1773 15.5241 47.3045 15.5994 47.7381 15.5958C48.7613 15.5851 49.7863 15.5922 50.8094 15.5922H50.8076Z" fill="#062E25"/>
<path d="M129.759 17.5447C128.28 17.5447 126.8 17.5662 125.322 17.5321C124.772 17.5196 124.664 17.7418 124.75 18.2095C125.381 21.6338 128.854 22.1337 130.807 20.6859C131.095 20.4726 131.386 20.2343 131.491 19.8831C131.679 19.2542 132.104 19.1018 132.694 19.1843C132.88 19.2111 133.075 19.1879 133.265 19.1879C134.779 19.1879 134.814 19.204 134.158 20.5927C133.588 21.8004 132.629 22.6534 131.359 23.0727C129.022 23.8432 126.705 23.897 124.575 22.4724C122.854 21.322 122.078 19.6 121.935 17.5787C121.752 15.0056 122.268 12.6779 124.49 11.0616C126.207 9.81264 128.149 9.55102 130.196 10.0223C133.887 10.8717 134.973 14.0594 134.83 17.1254C134.81 17.559 134.57 17.5501 134.265 17.5483C132.762 17.5429 131.26 17.5465 129.757 17.5447H129.759ZM128.404 15.5933C129.452 15.5933 130.502 15.5843 131.55 15.5987C131.903 15.6041 132.115 15.5216 132.038 15.122C131.809 13.934 131.33 12.9001 130.169 12.3464C127.913 11.2695 125.48 12.479 124.842 14.9393C124.705 15.4643 124.781 15.6184 125.329 15.6023C126.352 15.5718 127.379 15.5933 128.404 15.5933Z" fill="#062E25"/>
<path d="M63.1251 11.7435C64.0426 10.6612 65.2055 10.0305 66.5996 9.86384C69.748 9.48575 71.9753 11.3099 72.0703 14.4672C72.1527 17.25 72.0846 20.0364 72.0971 22.8211C72.0989 23.2207 71.9645 23.3819 71.5596 23.364C71.0363 23.3425 70.5077 23.3282 69.9863 23.3676C69.4738 23.407 69.3394 23.2045 69.343 22.7153C69.3645 20.359 69.3537 18.0026 69.3519 15.6463C69.3519 15.1714 69.334 14.6984 69.2122 14.2307C68.9093 13.0552 68.2141 12.2811 66.9777 12.1431C65.7538 12.007 64.6823 12.3349 63.91 13.3813C63.2917 14.2199 63.0463 15.1679 63.0427 16.1874C63.0355 18.3771 63.0283 20.5668 63.0498 22.7565C63.0534 23.2135 62.9387 23.4052 62.4531 23.3694C61.9317 23.33 61.4031 23.3425 60.8799 23.364C60.4588 23.3819 60.2885 23.2422 60.2903 22.796C60.3047 18.7499 60.3047 14.7038 60.2921 10.6577C60.2921 10.2437 60.4337 10.1165 60.8315 10.1362C61.3547 10.1613 61.8833 10.1685 62.4048 10.1344C62.8617 10.104 62.9943 10.2885 62.9549 10.7132C62.9262 11.0339 62.9495 11.3601 62.9495 11.6826C63.0086 11.7041 63.0678 11.7238 63.1287 11.7453L63.1251 11.7435Z" fill="#062E25"/>
<path d="M182.317 21.5975C182.675 20.4077 183.039 19.2179 183.39 18.0245C184.093 15.6395 184.809 13.2598 185.472 10.8659C185.652 10.2208 186.066 10.2871 186.549 10.2423C187.087 10.1921 187.243 10.4537 187.366 10.8892C188.313 14.1791 189.277 17.4636 190.23 20.7518C190.309 21.0241 190.397 21.2858 190.612 21.5563C191.165 20.6192 191.303 19.5781 191.601 18.6015C192.409 15.9513 193.149 13.2796 193.907 10.6132C194.084 9.98605 194.582 10.2638 194.914 10.2925C195.351 10.3283 195.093 10.6723 195.029 10.8927C193.885 14.808 192.74 18.7216 191.586 22.6333C191.479 22.997 191.429 23.4271 190.827 23.3805C190.316 23.3393 189.909 23.4002 189.716 22.7157C188.897 19.811 187.997 16.9297 187.144 14.0357C186.945 13.3638 186.564 12.7599 186.442 11.9464C185.969 12.6846 185.917 13.4552 185.695 14.1594C184.96 16.4835 184.279 18.8255 183.582 21.1603C183.412 21.7266 183.22 22.291 183.098 22.868C182.964 23.5005 182.496 23.3214 182.091 23.3697C181.631 23.4253 181.439 23.1744 181.33 22.8017C180.729 20.7733 180.136 18.7431 179.536 16.7164C178.962 14.7812 178.378 12.8477 177.816 10.9089C177.757 10.7064 177.473 10.3444 177.923 10.2925C178.265 10.253 178.769 10.0237 178.941 10.6168C179.538 12.6721 180.129 14.7274 180.726 16.7827C181.195 18.3936 181.67 20.001 182.143 21.6119L182.319 21.6029L182.317 21.5975Z" fill="#062E25"/>
<path d="M203.476 17.2055C201.972 17.2055 200.469 17.2109 198.966 17.2019C198.582 17.2001 198.328 17.2396 198.38 17.7413C198.75 21.3663 201.843 23.4915 205.287 21.8412C206.088 21.4577 206.599 20.8108 206.88 20.0027C207.108 19.3486 207.606 19.4974 208.054 19.5278C208.391 19.5511 208.289 19.8504 208.228 20.0313C207.613 21.8322 206.423 23.0507 204.515 23.3965C202.282 23.7997 200.22 23.4825 198.668 21.619C197.536 20.2607 197.106 18.648 197.102 16.9134C197.097 14.575 197.682 12.4624 199.697 11.0253C202.214 9.22977 206.565 9.80318 207.921 13.2436C208.334 14.2883 208.432 15.3545 208.592 16.4296C208.678 17.003 208.468 17.2342 207.846 17.2163C206.391 17.1751 204.934 17.2037 203.479 17.2037L203.476 17.2055ZM202.771 16.1142C204.083 16.1142 205.397 16.1178 206.708 16.1107C206.952 16.1107 207.23 16.1913 207.289 15.7792C207.531 14.0769 205.828 11.6435 204.089 11.3066C200.885 10.6884 198.892 12.5985 198.396 15.5175C198.311 16.0139 198.518 16.1304 198.978 16.1214C200.243 16.0981 201.506 16.1142 202.771 16.1142Z" fill="#062E25"/>
<path d="M93.5157 12.3268C94.5317 10.6335 95.9366 9.90776 97.7249 9.82712C98.3306 9.80025 98.6173 9.9651 98.5581 10.6209C98.508 11.1872 98.714 11.8538 98.4793 12.3089C98.1854 12.8805 97.4454 12.4523 96.906 12.5329C94.7432 12.8572 93.591 14.1779 93.5677 16.5217C93.548 18.5447 93.548 20.5696 93.5766 22.5926C93.5856 23.1606 93.453 23.4366 92.8276 23.3667C92.403 23.3201 91.9675 23.3273 91.541 23.3667C90.9676 23.4187 90.7508 23.2449 90.7544 22.6231C90.7813 18.6952 90.7813 14.7674 90.7544 10.8395C90.7508 10.2697 90.9121 10.0816 91.4747 10.13C92.0661 10.1819 92.8061 9.94718 93.2219 10.2249C93.6824 10.5313 93.3132 11.3198 93.401 11.8914C93.4154 11.9792 93.444 12.0652 93.5121 12.3268H93.5157Z" fill="#062E25"/>
<path d="M166.322 12.2661C167.034 11.6157 167.518 10.9455 168.313 10.5746C171.351 9.1536 175.11 10.5567 175.325 14.4809C175.479 17.2816 175.37 20.0967 175.398 22.9046C175.404 23.3866 175.13 23.3508 174.802 23.3669C174.366 23.3866 174.221 23.22 174.225 22.7846C174.243 20.4515 174.244 18.1185 174.23 15.7872C174.225 14.7192 174.182 13.6602 173.587 12.6998C172.755 11.3576 170.593 10.7233 169.163 11.4096C167.199 12.3539 166.263 13.9021 166.285 16.0703C166.306 18.2833 166.285 20.4981 166.294 22.7111C166.294 23.1017 166.301 23.3849 165.751 23.3795C165.24 23.3741 165.12 23.2075 165.122 22.7219C165.138 16.9376 165.133 11.1534 165.129 5.36911C165.129 4.98922 165.099 4.67743 165.667 4.69535C166.168 4.71148 166.306 4.86738 166.301 5.35836C166.276 7.52476 166.29 9.69117 166.292 11.8558C166.292 11.9436 166.305 12.0332 166.322 12.2661Z" fill="#062E25"/>
<path d="M143.2 23.5156C141.471 23.5676 139.956 23.2128 138.835 21.8653C138.469 21.4245 138.145 20.9443 138.084 20.3565C138.057 20.1021 137.758 19.6899 138.272 19.6236C138.645 19.5753 139.111 19.4176 139.268 20.0788C139.559 21.2883 140.447 21.9692 141.61 22.2219C143.341 22.6 145.06 22.6287 146.386 21.1898C147.438 20.0483 146.905 18.3639 145.422 17.8927C144.167 17.4949 142.861 17.3551 141.589 17.0469C140.679 16.8265 139.777 16.5487 139.154 15.8069C137.867 14.2766 138.216 12.0045 139.921 10.8917C141.766 9.68756 144.891 9.71265 146.61 11.2143C147.31 11.8271 147.631 12.6245 147.851 13.4846C147.893 13.6441 147.9 13.8734 147.669 13.8681C147.335 13.8609 146.941 14.0688 146.681 13.6889C146.59 13.5545 146.531 13.3914 146.484 13.2337C146.128 12.0332 145.201 11.5063 144.074 11.2895C143.006 11.0835 141.947 11.139 140.947 11.6694C140.033 12.155 139.505 13.0348 139.612 13.9881C139.709 14.8411 140.349 15.4467 141.35 15.7496C142.7 16.1581 144.11 16.2746 145.465 16.6563C147.411 17.2064 148.308 18.4714 148.079 20.3942C147.916 21.7524 146.619 23.0157 145.051 23.3562C144.416 23.4941 143.777 23.5407 143.196 23.5174L143.2 23.5156Z" fill="#062E25"/>
<path d="M150.661 16.7898C150.679 14.5302 151.247 12.4803 153.175 11.088C155.981 9.06311 160.809 9.88918 161.823 13.8188C161.879 14.032 162.11 14.4083 161.699 14.4424C161.343 14.4711 160.802 14.7524 160.628 14.1037C160.088 12.0932 158.293 11.165 156.467 11.2134C154.356 11.2707 152.842 12.491 152.24 14.5159C151.579 16.7378 151.715 18.8702 153.111 20.7714C154.155 22.1941 155.704 22.5955 157.383 22.3303C158.952 22.083 160.088 21.2122 160.585 19.6371C160.741 19.1425 161.3 18.8773 161.741 19.0888C162.058 19.2411 161.9 19.5063 161.844 19.7124C161.316 21.6781 160.062 22.9485 158.073 23.3875C155.229 24.0147 152.885 23.0238 151.525 20.6424C150.851 19.4615 150.631 18.1462 150.659 16.7898H150.661Z" fill="#062E25"/>
<path d="M221.11 10.2605C222.445 10.2605 223.781 10.2498 225.116 10.2695C225.398 10.2731 225.813 10.0831 225.937 10.472C226.046 10.8196 226.028 11.2138 225.763 11.5543C224.475 13.201 223.201 14.8568 221.92 16.5071C220.567 18.247 219.212 19.9852 217.856 21.7233C217.77 21.8326 217.628 21.9312 217.703 22.0853C217.798 22.2752 217.999 22.2 218.153 22.2018C220.443 22.2071 222.733 22.2161 225.021 22.1964C225.469 22.1928 225.649 22.2896 225.645 22.7769C225.641 23.2411 225.516 23.379 225.039 23.3754C222.321 23.3521 219.601 23.3683 216.883 23.3557C216.594 23.3557 216.162 23.5278 216.042 23.207C215.89 22.7985 215.899 22.3182 216.212 21.9204C217.266 20.5819 218.321 19.2433 219.368 17.8976C220.913 15.9086 222.448 13.9142 223.989 11.9234C224.1 11.7801 224.328 11.6743 224.208 11.4539C224.097 11.2497 223.866 11.3375 223.688 11.3357C221.447 11.3303 219.205 11.3339 216.961 11.3321C216.594 11.3321 216.202 11.4468 216.205 10.8053C216.211 10.1871 216.576 10.2605 216.96 10.2605C218.343 10.2623 219.726 10.2605 221.11 10.2605Z" fill="#062E25"/>
<path d="M116.235 16.7211C116.235 14.7213 116.25 12.7216 116.224 10.7236C116.219 10.2559 116.35 10.0982 116.823 10.1341C117.509 10.1842 118.427 9.91186 118.83 10.2577C119.296 10.6573 118.979 11.598 118.982 12.3023C118.998 15.7535 118.977 19.2046 119 22.6558C119.004 23.2149 118.853 23.4299 118.28 23.3726C117.832 23.326 117.369 23.3224 116.922 23.3726C116.321 23.4425 116.217 23.1791 116.224 22.6469C116.251 20.6722 116.235 18.6957 116.235 16.7211Z" fill="#062E25"/>
<path d="M211.799 16.777C211.799 14.8274 211.81 12.876 211.79 10.9264C211.785 10.4659 211.867 10.2401 212.405 10.2419C212.915 10.2437 212.982 10.4605 212.98 10.887C212.967 14.8346 212.967 18.7821 212.98 22.7297C212.98 23.1543 212.917 23.3747 212.406 23.3801C211.865 23.3855 211.786 23.1543 211.792 22.6956C211.81 20.7227 211.799 18.7481 211.799 16.7734V16.777Z" fill="#062E25"/>
<path d="M17.729 3.06179C17.729 3.84485 17.7093 4.62791 17.7344 5.41097C17.7523 5.94137 17.4871 6.06322 17.0284 6.03455C16.6037 6.00947 16.1396 6.1134 16.1468 5.43068C16.1647 3.81797 16.1647 2.20347 16.1504 0.590765C16.145 -0.0399838 16.5679 0.00839742 16.9764 0.00122983C17.3724 -0.00414587 17.7541 -0.0166891 17.7362 0.569262C17.7111 1.39891 17.7308 2.23035 17.729 3.06V3.06179Z" fill="#062E25"/>
<path d="M17.7293 30.6792C17.7293 31.4641 17.715 32.2489 17.7329 33.0338C17.7455 33.5409 17.5716 33.7738 17.0251 33.7487C16.5485 33.7272 16.1578 33.6968 16.1596 33.0839C16.1632 31.4659 16.174 29.8496 16.1525 28.2315C16.1435 27.5577 16.6112 27.71 16.9911 27.6832C17.405 27.6563 17.7544 27.6724 17.7347 28.253C17.706 29.0611 17.7275 29.8693 17.7275 30.6792H17.7293Z" fill="#062E25"/>
<path d="M3.09653 17.6042C2.33318 17.6042 1.56983 17.5755 0.808277 17.6131C0.229494 17.6436 0.00729872 17.468 0.000131128 16.857C-0.00703647 16.2047 0.279667 15.9843 0.853075 16.0381C1.97122 16.1438 3.09295 16.0793 4.21109 16.0954C4.63756 16.1026 5.06583 16.0811 5.4923 16.0578C6.20548 16.0201 6.19293 16.4789 6.19652 16.9949C6.19831 17.606 5.81843 17.6114 5.38479 17.6078C4.62144 17.6006 3.85809 17.606 3.09653 17.6078V17.6042Z" fill="#062E25"/>
<path d="M1.84217 9.82635C2.2991 10.0038 2.72199 10.1561 3.13771 10.3299C4.32036 10.8226 5.48331 11.3656 6.68567 11.8064C7.51174 12.111 6.96162 12.5644 6.87919 12.9443C6.77347 13.4317 6.46527 13.3779 6.06209 13.2059C4.62499 12.5984 3.1628 12.0483 1.7239 11.4409C1.49992 11.3459 1.07703 11.3083 1.13974 10.9284C1.20067 10.561 1.36194 10.2009 1.6146 9.90699C1.66656 9.84786 1.78483 9.84606 1.84217 9.82635Z" fill="#062E25"/>
<path d="M13.3463 6.38034C13.3212 6.91432 12.789 6.79426 12.5023 6.986C12.2156 7.17952 12.0077 6.986 11.8913 6.71363C11.454 5.68866 11.0222 4.66011 10.5868 3.63156C10.3646 3.10833 10.1549 2.57972 9.91838 2.06365C9.6908 1.56909 10.0241 1.42036 10.3753 1.29493C10.7122 1.17308 11.1172 0.864872 11.3465 1.4114C12.0006 2.96498 12.6259 4.52931 13.2603 6.09184C13.2961 6.17964 13.314 6.27461 13.3463 6.38213V6.38034Z" fill="#062E25"/>
<path d="M7.16774 21.4849C7.1749 21.7913 6.91866 21.8719 6.71259 21.9597C5.58191 22.4417 4.44226 22.9076 3.30799 23.3825C2.93706 23.5366 2.5751 23.7104 2.20418 23.8609C1.53222 24.1333 1.49279 23.5653 1.29389 23.1854C1.08066 22.7786 1.25626 22.5726 1.62181 22.4202C3.06608 21.8218 4.50139 21.2 5.95462 20.623C6.66959 20.3381 7.14982 20.7054 7.16774 21.4831V21.4849Z" fill="#062E25"/>
<path d="M29.3532 28.228C29.1722 28.6115 28.8694 28.8767 28.563 29.1257C28.2817 29.3533 28.1401 29.0594 27.9842 28.9053C26.7998 27.7388 25.6261 26.5615 24.4363 25.4004C24.1442 25.1155 24.137 24.8341 24.4542 24.6317C24.7552 24.4399 24.9344 23.7411 25.4702 24.2625C26.6958 25.4523 27.9 26.6637 29.1095 27.8714C29.2081 27.97 29.2708 28.1026 29.355 28.228H29.3532Z" fill="#062E25"/>
<path d="M27.3391 13.3139C26.9987 13.0685 26.9879 12.6276 26.798 12.2926C26.6564 12.0417 26.841 11.8948 27.056 11.8034C28.6508 11.1242 30.2474 10.4523 31.8386 9.76778C32.3851 9.53304 32.446 9.98818 32.5643 10.2856C32.6826 10.5813 32.9657 10.9594 32.4371 11.1834C30.819 11.8661 29.1991 12.5434 27.5792 13.2226C27.5147 13.2494 27.4466 13.2727 27.3373 13.3139H27.3391Z" fill="#062E25"/>
<path d="M23.9974 1.75497C23.8576 2.09184 23.7214 2.41797 23.5852 2.74589C23.0727 3.99125 22.5262 5.22587 22.0567 6.48916C21.7378 7.34569 21.2396 6.84933 20.7952 6.72569C20.2075 6.56263 20.5121 6.20067 20.6411 5.88708C21.245 4.41952 21.8507 2.95375 22.4474 1.4826C22.5692 1.18156 22.7341 0.952195 23.0799 1.13138C23.4025 1.29982 23.9311 1.1941 23.9956 1.75317L23.9974 1.75497Z" fill="#062E25"/>
<path d="M27.3964 20.2702C28.3444 20.65 29.2045 20.9923 30.0628 21.3417C30.8566 21.6643 31.645 21.9976 32.4371 22.3255C32.9925 22.5566 32.7184 22.9544 32.6037 23.2859C32.4872 23.6228 32.3349 23.9812 31.8368 23.7697C30.285 23.1121 28.7314 22.4545 27.1743 21.8076C26.8875 21.6876 26.7066 21.5352 26.8822 21.2217C27.0632 20.9009 26.9951 20.4117 27.3964 20.2702Z" fill="#062E25"/>
<path d="M13.4984 27.3168C13.398 27.5587 13.3049 27.7773 13.2153 27.9959C12.6401 29.3954 12.0362 30.7859 11.5004 32.2015C11.246 32.8771 10.8625 32.5688 10.4862 32.4345C10.0866 32.2911 9.868 32.1245 10.1027 31.5976C10.7657 30.1068 11.3517 28.5801 11.9645 27.0659C12.0864 26.7631 12.253 26.566 12.6078 26.738C12.9304 26.8939 13.3622 26.8957 13.5002 27.3168H13.4984Z" fill="#062E25"/>
<path d="M24.085 31.959C24.0348 32.4338 23.4758 32.3532 23.1389 32.5503C22.8343 32.7277 22.7017 32.4392 22.6175 32.2349C21.9706 30.6849 21.356 29.1206 20.6912 27.5796C20.4833 27.0958 20.684 26.9434 21.0854 26.8395C21.4366 26.7499 21.8075 26.3467 22.0691 27.0026C22.5601 28.2318 23.1102 29.4378 23.5976 30.6688C23.7535 31.0648 24.0402 31.4071 24.085 31.9608V31.959Z" fill="#062E25"/>
<path d="M25.0867 9.55938C24.7283 9.49308 24.5186 9.12037 24.2785 8.82291C24.0922 8.59176 24.3305 8.39107 24.4989 8.22263C25.6225 7.09911 26.7513 5.98096 27.8659 4.84848C28.21 4.49906 28.5002 4.40409 28.864 4.8216C29.1615 5.16206 29.5485 5.41472 29.0289 5.90929C27.8444 7.03818 26.6976 8.2065 25.5364 9.35869C25.4325 9.46083 25.325 9.55222 25.0849 9.55938H25.0867Z" fill="#062E25"/>
<path d="M9.78563 25.074C9.69425 25.1779 9.62436 25.2693 9.54373 25.3499C8.34853 26.5379 7.13721 27.7116 5.9653 28.9194C5.64993 29.2455 5.43849 29.2598 5.18583 28.914C4.95647 28.5986 4.3293 28.3961 4.88121 27.8496C6.06386 26.6777 7.23934 25.4986 8.422 24.3267C8.56893 24.1816 8.74096 23.9701 8.96853 24.1655C9.27136 24.4253 9.57777 24.6923 9.78742 25.0757L9.78563 25.074Z" fill="#062E25"/>
<path d="M116.235 6.50209C116.233 5.60017 116.672 5.14861 117.554 5.14742C118.51 5.14742 118.988 5.61331 118.988 6.5451C118.988 7.4518 118.543 7.90395 117.653 7.90157C116.709 7.89918 116.236 7.43269 116.233 6.50209H116.235Z" fill="#062E25"/>
<path d="M9.71223 8.60555C9.57963 8.98723 9.27859 9.19509 9.02593 9.43341C8.79298 9.65381 8.58333 9.47821 8.40952 9.3026C7.25016 8.14324 6.10155 6.96955 4.92965 5.82273C4.50139 5.40522 4.79705 5.15256 5.08017 4.89274C5.31491 4.67771 5.53531 4.36592 5.90982 4.7458C7.07635 5.93383 8.259 7.10753 9.43448 8.28839C9.53304 8.38873 9.62084 8.49804 9.71402 8.60376L9.71223 8.60555Z" fill="#062E25"/>
<path d="M30.8352 17.5262C30.027 17.5262 29.2189 17.5154 28.4107 17.5297C27.9843 17.5369 27.8069 17.3577 27.8194 16.9348C27.832 16.5424 27.7961 16.1392 28.3641 16.1374C30.0288 16.1339 31.6917 16.1303 33.3564 16.1303C33.8939 16.1303 33.8491 16.5263 33.8635 16.8847C33.8796 17.2628 33.8061 17.5351 33.3313 17.5262C32.4999 17.51 31.6666 17.5208 30.8352 17.5208C30.8352 17.5208 30.8352 17.5244 30.8352 17.5262Z" fill="#062E25"/>
<path d="M212.985 6.68953C212.881 6.96549 213.25 7.50485 212.528 7.53889C212.007 7.56398 211.697 7.4493 211.795 6.84722C211.818 6.70924 211.806 6.5641 211.795 6.42254C211.768 5.99248 211.763 5.66098 212.392 5.66098C213.028 5.66098 213.005 6.00861 212.983 6.4315C212.98 6.50138 212.983 6.57306 212.983 6.68774L212.985 6.68953Z" fill="#062E25"/>
</svg>
