<svg width="96" height="37" viewBox="0 0 96 37" fill="none" xmlns="http://www.w3.org/2000/svg">
<path d="M62.622 4.60896C58.1669 5.43163 54.7142 9.64149 54.7115 14.2613C54.7088 18.2445 54.7106 22.2277 54.7115 26.2108C54.7115 26.3729 54.7133 26.5358 54.7301 26.697C54.8372 27.6941 55.8282 28.4388 56.8164 28.2688C57.8118 28.0979 58.3803 27.409 58.3989 26.3481C58.4219 25.0375 58.3546 23.7251 58.4334 22.4145C58.4564 22.3897 58.4786 22.3649 58.5007 22.3401C58.5609 22.3817 58.622 22.4225 58.6814 22.4659C61.2902 24.3468 64.1496 24.9241 67.2445 24.0014C72.6189 22.4003 75.5606 16.5381 73.7276 11.1593C72.1309 6.47303 67.4562 3.71634 62.622 4.60896ZM66.2961 20.4708C65.7037 20.6665 65.0953 20.7382 64.4781 20.7683C61.3309 20.7249 58.7425 18.2489 58.4414 15.0964C58.1297 11.8376 60.1407 9.33243 62.3546 8.49648C65.462 7.32226 68.8102 8.83919 70.1004 12.0006C71.4907 15.4072 69.7223 19.339 66.2961 20.4708Z" fill="#062E25"/>
<path d="M19.5732 23.3204C19.5812 20.5478 19.5927 17.7743 19.5679 15.0016C19.5581 13.9284 19.3846 12.8692 19.0507 11.8411C17.2805 6.39152 11.4094 3.56754 6.19888 5.66627C1.41342 7.59232 -1.11302 13.1234 0.472981 18.2037C2.2662 23.9491 8.54999 26.7731 13.9048 24.2405C14.5814 23.9208 15.1986 23.501 15.8637 23.0043C15.8637 23.2646 15.8575 23.4275 15.8645 23.5887C15.915 24.7071 17.0591 25.5369 18.1395 25.2402C19.0543 24.9887 19.5696 24.3184 19.5732 23.3195V23.3204ZM15.869 15.0937C15.7459 17.6414 14.7036 19.6658 12.3791 20.8586C9.79683 22.1842 6.79219 21.4014 4.99543 19.0184C2.97552 16.3406 3.36427 12.3893 5.86592 10.1772C9.09548 7.32046 14.1112 8.72669 15.4944 12.8808C15.6095 13.227 15.7043 13.5839 15.7645 13.9434C15.8274 14.3198 15.8982 14.6997 15.869 15.0928V15.0937Z" fill="#062E25"/>
<path d="M94.5917 9.06188C91.7925 4.32867 85.9948 2.76038 81.3661 5.48253C77.7283 7.62111 75.6925 12.0656 76.6763 16.5367C77.6486 20.9547 81.6008 24.4225 86.2295 24.3534C87.3754 24.38 88.4805 24.1648 89.5494 23.7654C95.3266 21.6073 97.7787 14.4504 94.5917 9.06188ZM92.2866 14.2715C92.2405 16.4978 91.3807 18.3291 89.5405 19.6166C86.9486 21.4293 83.4569 20.8475 81.5149 18.3291C79.4843 15.6963 79.7137 11.8841 82.0409 9.59764C85.1562 6.5381 90.2162 7.68398 91.8297 11.8168C92.1369 12.6032 92.3185 13.4152 92.2866 14.2715Z" fill="#062E25"/>
<path d="M46.4041 15.2766C47.9202 13.4497 49.6824 11.8557 51.2914 10.1165C52.4028 8.91486 53.4902 7.69104 54.0632 6.11655C54.3386 5.35942 54.4413 4.5828 54.2119 3.79024C54.1951 3.69018 54.188 3.58657 54.1588 3.49004C53.6231 1.70568 51.1648 -0.216826 48.4373 0.981309C46.9337 1.64192 45.7453 2.7152 44.6269 3.87614C42.9479 5.61888 41.5115 7.56973 39.9317 9.39748C38.8213 10.6815 37.6683 11.9222 36.2408 12.8697C34.4706 14.0448 32.6154 14.1847 30.7708 13.1371C29.5249 12.4296 28.4206 11.5033 27.427 10.4513C25.7321 8.65717 24.3613 6.64965 23.3163 4.4172C22.8638 4.63062 22.5167 4.96447 22.1829 5.31337C22.5167 4.96358 22.8638 4.62973 23.3163 4.4172C23.3199 4.30563 23.273 4.16217 23.4687 4.16837C25.2495 5.22482 26.8426 6.52479 28.3781 7.90712C29.3867 8.81479 30.2492 9.87301 31.303 10.7302C32.6641 11.8363 34.0154 11.7229 35.2215 10.4584C35.4456 10.2237 35.4332 10.0873 35.2322 9.84202C33.8977 8.20643 32.4657 6.66559 30.9134 5.23544C29.4514 3.88854 27.9336 2.61424 26.2271 1.58171C26.0536 1.36829 25.7932 1.28062 25.5647 1.15665C24.4383 0.541196 23.2969 -0.0273208 21.9579 0.00101652C20.4578 0.032896 19.0711 1.12122 19.1959 3.04107C19.2889 4.47565 19.8264 5.78005 20.5163 7.026C21.0423 8.1347 21.6843 9.17521 22.3998 10.1697C24.2276 12.7067 26.3343 14.9569 29.1441 16.4269C31.597 17.7109 34.1279 17.9748 36.7084 16.7873C38.0606 16.1648 39.2313 15.273 40.3214 14.2697C42.1721 12.5668 43.7422 10.6098 45.338 8.67754C46.5078 7.26156 47.7927 5.96867 49.3202 4.93524C49.6125 4.73777 49.9153 4.54295 50.2748 4.49779C50.552 4.46325 50.7026 4.55446 50.5901 4.87946C50.4422 5.30629 50.1819 5.66139 49.9144 6.01206C48.881 7.36428 47.6563 8.54028 46.4688 9.75081C45.0023 11.2465 43.5173 12.7262 42.3723 14.4964C41.8923 15.2376 41.454 16.0054 41.2831 16.8909C41.2521 16.9547 41.2078 17.0158 41.191 17.0831C40.7588 18.8976 41.237 20.5243 42.2226 22.0448C42.8487 23.1543 43.6652 24.1222 44.5312 25.0441C46.0446 26.6549 47.5952 28.2311 49.1104 29.8402C49.655 30.4184 50.1677 31.033 50.5139 31.76C50.5839 31.907 50.7282 32.0947 50.5795 32.2471C50.4307 32.4003 50.2146 32.3232 50.0375 32.2586C49.6904 32.1302 49.3796 31.9318 49.0785 31.7175C47.6156 30.6735 46.3829 29.393 45.2308 28.0213C43.8556 26.3839 42.429 24.7935 40.8314 23.3651C40.2992 22.8196 39.6838 22.3768 39.0887 21.9057C38.2811 21.2664 37.4416 20.6925 36.4976 20.2763C35.3198 19.6255 34.0473 19.3262 32.7128 19.2916C30.4131 19.2323 28.4348 20.1302 26.623 21.4408C23.8769 23.428 21.7879 26.0013 20.1284 28.9316C19.3004 30.3945 18.5477 31.9026 18.3981 33.6152C18.1776 36.1434 20.3312 37.2645 22.3192 36.642C22.4707 36.6721 22.6061 36.6199 22.7487 36.5747C23.5262 36.3294 24.2506 35.9681 24.9502 35.5572C26.9958 34.3529 28.7943 32.8315 30.5078 31.2048C31.9096 29.8738 33.2193 28.4552 34.4387 26.9533C34.6273 26.7204 34.6291 26.5787 34.4201 26.3697C34.1297 26.0802 33.7719 25.8942 33.4452 25.6595C33.0573 25.3815 32.6278 25.2761 32.1558 25.3416C30.9834 25.4833 30.2129 26.2706 29.4549 27.0551C27.5846 28.99 25.586 30.7691 23.3146 32.224C23.0799 32.3746 22.8452 32.5552 22.538 32.5402C22.5583 32.2639 22.6991 32.031 22.8151 31.791C23.7963 29.7622 25.1069 27.9655 26.6531 26.3325C27.4864 25.4532 28.3949 24.6518 29.4168 24.0107C30.568 23.2881 31.8335 22.8639 33.23 23.0038C34.2572 23.2597 35.2171 23.6626 36.1009 24.2568C36.8217 24.7412 37.4708 25.3142 38.1518 25.8473C38.1899 25.8765 38.2271 25.9048 38.2651 25.934C38.2944 25.9624 38.3236 25.9916 38.3528 26.0199C38.3519 26.0199 38.3502 26.0199 38.3493 26.0199C38.6902 26.3635 39.0303 26.708 39.373 27.0507C41.1272 28.8005 42.63 30.7735 44.3028 32.596C45.3318 33.7171 46.4316 34.7593 47.775 35.5059C48.8066 36.0797 49.8896 36.3746 51.0771 36.1009C53.0962 35.636 54.4466 33.8614 54.3058 31.8007C54.2261 30.6301 53.6487 29.6533 52.9864 28.7253C51.9981 27.3394 50.7761 26.1616 49.5947 24.9476C48.1097 23.4227 46.5556 21.9589 45.3681 20.1718C45.2432 19.923 45.1175 19.6751 44.9935 19.4262C44.6649 18.7665 44.6587 18.1068 44.9669 17.4338C45.3326 16.6359 45.848 15.9407 46.4033 15.2713L46.4041 15.2766Z" fill="#062E25"/>
</svg>
