<svg width="184" height="46" viewBox="0 0 184 46" fill="none" xmlns="http://www.w3.org/2000/svg">
<g clip-path="url(#clip0_3494_1949)">
<path d="M112.082 38.5852H111.428V39.3646H112.082V38.5852Z" fill="#191919"/>
<path d="M112.055 14.9929L111.485 15.0153C111.433 14.7572 111.445 14.5564 111.466 14.2508C111.672 14.2072 111.884 14.2209 112.073 14.2671L112.056 14.9941L112.055 14.9929Z" fill="#191919"/>
<path d="M86.3463 38.5839L85.7626 38.5852L85.7644 39.3584L86.348 39.3571L86.3463 38.5839Z" fill="#191919"/>
<path d="M85.7601 26.3959L85.757 27.1579L86.3407 27.1603L86.3437 26.3983L85.7601 26.3959Z" fill="#191919"/>
<path d="M117.569 27.0875C117.476 26.9316 117.483 26.5961 117.603 26.4876C117.76 26.3467 117.98 26.4527 118.033 26.5512C118.096 26.6647 118.133 26.9603 118.072 27.0974C118.02 27.2159 117.645 27.2122 117.569 27.0875Z" fill="#191919"/>
<path d="M64.6136 44.6313C63.899 45.2798 62.6008 45.4694 61.9211 44.5627C61.2065 43.6087 61.1803 42.0049 61.8862 41.0396C62.5409 40.1454 63.8404 40.2851 64.6261 41.0346L64.7059 38.5179C64.7097 38.4094 65.0489 38.3782 65.2634 38.4343L65.2784 44.9244C65.2784 45.1564 65.014 45.1289 64.893 45.1102C64.7209 45.0853 64.661 44.9394 64.6136 44.6313ZM64.4565 43.8918C64.7945 43.0774 64.7583 42.1745 64.3143 41.4674C64.0238 41.0047 63.5062 40.8413 62.9936 40.9685C62.0745 41.1955 61.8251 42.6347 62.1468 43.7396C62.3065 44.2896 62.7205 44.6226 63.2306 44.6725C63.7407 44.7224 64.227 44.4443 64.4565 43.8918Z" fill="#191919"/>
<path d="M122.575 44.9606C122.031 44.6712 121.973 44.0976 122.019 43.5962C122.119 42.49 123.528 42.2555 124.861 42.293C124.955 41.8577 124.861 41.279 124.452 41.0845C123.836 40.7914 123.169 40.9959 122.545 41.3177C122.512 41.1182 122.53 40.9411 122.569 40.7153C123.101 40.4934 123.683 40.3936 124.258 40.446C124.953 40.5083 125.452 40.9448 125.464 41.6594L125.517 45.0853C125.339 45.1202 125.2 45.1214 125.096 45.0853C124.977 45.0441 124.911 44.872 124.801 44.6488C124.235 45.1925 123.327 45.3609 122.575 44.9618V44.9606ZM124.574 44.2547C124.934 43.812 124.931 43.2557 124.852 42.7756C123.872 42.7681 122.847 42.9053 122.677 43.5812C122.594 43.9117 122.613 44.2534 122.908 44.4704C123.381 44.8159 124.174 44.7498 124.576 44.2547H124.574Z" fill="#191919"/>
<path d="M76.3083 44.9931C75.7021 44.7063 75.6049 44.0515 75.7021 43.5215C75.9042 42.419 77.2174 42.2818 78.5232 42.2893C78.6179 41.8528 78.5194 41.2779 78.1079 41.0796C77.498 40.7853 76.8595 41.0123 76.211 41.2954L76.2359 40.7117C76.7622 40.491 77.3371 40.3924 77.917 40.4436C78.5955 40.5034 79.1143 40.9337 79.1255 41.6396L79.1804 45.0879C78.8175 45.1752 78.6217 45.0218 78.3922 44.7437C77.7936 45.1827 76.9954 45.3186 76.3083 44.9931ZM78.2338 44.256C78.5955 43.8096 78.5992 43.2546 78.5132 42.7757C77.5267 42.7632 76.4791 42.9179 76.3457 43.5826C76.2808 43.9056 76.2833 44.2523 76.5701 44.4668C77.0366 44.8172 77.8347 44.7487 78.2338 44.256Z" fill="#191919"/>
<path d="M36.5722 44.0124C38.0825 45.4528 40.1951 43.6457 39.5728 44.9764C38.8108 45.2183 37.9179 45.2445 37.1172 45.025C35.9886 44.7158 35.3164 43.6956 35.158 42.5632C34.9759 41.2637 35.3775 39.8619 36.541 39.181C37.4726 38.636 38.5988 38.7295 39.6115 38.9328C39.6888 39.1735 39.6788 39.378 39.6115 39.5788C38.6312 39.2508 37.4814 39.1436 36.6396 39.8869C35.4822 40.912 35.4498 42.9423 36.5722 44.0124Z" fill="#191919"/>
<path d="M44.9429 44.5883C44.1958 45.3877 42.7367 45.3853 42.0134 44.6445C41.1317 43.7428 41.0843 42.1764 41.83 41.1737C42.5708 40.176 44.2707 40.1486 45.0427 41.1251C45.8146 42.1016 45.8121 43.6592 44.9429 44.5883ZM44.7832 43.6966C45.1798 42.6066 44.8319 41.2011 43.7918 40.9704C43.2493 40.8494 42.6868 41.0153 42.3638 41.473C41.9248 42.0941 41.8824 42.8636 42.0857 43.5819C42.2665 44.2217 42.7567 44.6382 43.3802 44.6706C43.9564 44.7006 44.5438 44.3564 44.7832 43.6979V43.6966Z" fill="#191919"/>
<path d="M59.5204 44.3685C59.6501 44.4134 59.6751 44.8724 59.5142 44.9422C58.9068 45.2078 58.1661 45.2228 57.5151 45.0781C56.036 44.7477 55.7766 42.1736 56.7905 40.9975C57.3679 40.3291 58.5078 40.2218 59.1937 40.7681C59.8796 41.3143 59.9756 42.2023 59.8921 42.973L56.9202 42.9954C56.8092 43.619 57.1284 44.3074 57.7283 44.5456C58.2958 44.7701 58.8844 44.6167 59.5192 44.3685H59.5204ZM59.2772 42.4467C59.3059 41.5974 58.9605 41.116 58.4504 40.9701C57.8593 40.8005 57.3267 41.0873 57.0536 41.6423C56.9214 41.9104 56.7817 42.1524 56.899 42.4841L59.2772 42.4467Z" fill="#191919"/>
<path d="M70.2756 44.3322C70.3716 44.5155 70.3492 44.7413 70.2943 44.9657C68.9387 45.3636 67.5244 45.2476 67.1204 43.9868C66.8323 43.0876 66.8435 42.0886 67.3349 41.2443C67.9173 40.2441 69.4525 40.1256 70.1808 41.0124C70.641 41.5723 70.641 42.3081 70.6335 42.9741L67.6055 42.9866C67.5718 43.6962 67.911 44.3796 68.5945 44.5841C69.1407 44.7475 69.6495 44.5966 70.2756 44.3322ZM70.0125 42.4628C70.0524 41.8093 69.8017 41.3216 69.3727 41.0111C68.8402 40.8328 68.3775 40.94 68.027 41.2955C67.7215 41.606 67.5244 42.0026 67.6117 42.5039L70.0125 42.464V42.4628Z" fill="#191919"/>
<path d="M91.3744 40.5507C91.5764 40.5033 91.7697 40.5095 91.9842 40.5432L91.9892 45.0827C91.8296 45.1176 91.6737 45.1214 91.5777 45.0852C91.4604 45.0403 91.3856 44.8794 91.2946 44.6325C90.9055 45.0465 90.4428 45.165 89.8704 45.1738C89.0996 45.1862 88.4299 44.6836 88.4174 43.8742L88.3651 40.5419L88.9824 40.5344L88.9936 43.4889C88.9949 43.8543 89.1158 44.2209 89.4064 44.4479C89.7519 44.7173 90.2432 44.7136 90.6785 44.5078C90.9753 44.3681 91.322 43.9441 91.3295 43.459L91.3744 40.5519V40.5507Z" fill="#191919"/>
<path d="M96.6563 41.239C96.256 40.8674 95.7247 40.8948 95.3144 41.0894C94.9377 41.2677 94.6297 41.7055 94.6222 42.1993L94.5811 45.0839L94.0223 45.0864L93.9986 40.5381C94.1658 40.5169 94.4102 40.4883 94.4925 40.5419C94.5898 40.6067 94.5112 40.8674 94.6347 41.1218C95.0375 40.5095 95.7135 40.3336 96.4206 40.4658C97.0067 40.5756 97.5156 40.9771 97.5243 41.6194L97.5679 45.0939C97.3459 45.1213 97.205 45.1089 96.9706 45.0602L96.9656 42.1507C96.9656 41.8476 96.9144 41.4797 96.6563 41.2403V41.239Z" fill="#191919"/>
<path d="M50.0062 41.3112C49.6084 40.8759 49.0372 40.8822 48.6045 41.0842C48.1717 41.2862 47.8986 41.7589 47.8924 42.3002L47.8612 45.0501C47.714 45.1224 47.5382 45.1149 47.3174 45.09L47.27 40.9794C47.2688 40.8385 47.1578 40.5679 47.2937 40.5367C47.4521 40.5005 47.6878 40.4793 47.7751 40.5467C47.8749 40.624 47.7988 40.8884 47.9173 41.1116C48.4623 40.2935 49.6708 40.1825 50.4103 40.8373C50.7034 41.0967 50.8343 41.5469 50.8356 41.9185L50.8481 45.0962H50.2544L50.2494 42.1468C50.2494 41.8811 50.2095 41.5344 50.005 41.3099L50.0062 41.3112Z" fill="#191919"/>
<path d="M84.0913 45.0981L80.764 45.1018C80.6904 44.8499 80.6891 44.5693 80.8438 44.3635L83.3193 41.0774L80.8326 41.0424C80.8014 40.8479 80.8064 40.6858 80.8401 40.5224L84.0539 40.5299C84.2734 40.8017 84.0102 41.1696 83.8194 41.4191L81.4935 44.4695L84.1163 44.5269L84.0913 45.0981Z" fill="#191919"/>
<path d="M117.029 45.1026L113.68 45.1001C113.645 44.8893 113.624 44.6374 113.747 44.4727L116.294 41.0606L113.782 41.0257L113.791 40.5243H117.042C117.083 40.7376 117.093 40.9795 116.953 41.1691L114.536 44.4441L117.023 44.5264C117.069 44.6898 117.093 44.8369 117.029 45.1026Z" fill="#191919"/>
<path d="M53.8612 41.1025L53.8525 45.0496C53.6243 45.112 53.4796 45.112 53.2888 45.0995L53.2726 41.0763L52.4021 41.0476C52.3559 40.8381 52.3547 40.6972 52.4208 40.5064C52.6253 40.5425 53.0506 40.6174 53.2027 40.4403C53.4035 39.7706 53.1416 38.8539 53.83 38.4735C54.2004 38.269 54.6319 38.2528 55.0148 38.4137C55.0198 38.6207 55.0011 38.7554 54.9475 38.8963C54.5883 38.7541 54.3039 38.8015 54.1032 38.9874C53.7876 39.2792 53.7964 40.2694 53.8986 40.4128C54.0882 40.6797 54.728 40.4365 54.8514 40.5637C54.9487 40.6623 54.9163 41.0139 54.7903 41.0239L53.8612 41.105V41.1025Z" fill="#191919"/>
<path d="M105.175 44.0051C105.069 45.1774 103.55 45.4094 102.375 44.9991C102.192 44.9355 102.297 44.4279 102.439 44.4603C103.418 44.6786 104.358 44.822 104.497 43.9864C104.547 43.6846 104.386 43.3691 104.053 43.2032L103.011 42.6857C102.601 42.4824 102.378 42.1045 102.363 41.7204C102.347 41.3051 102.47 40.8649 102.882 40.6491C103.529 40.3099 104.274 40.4072 104.94 40.6167L104.917 41.1517C104.007 40.8324 103.065 40.8823 102.975 41.4859C102.928 41.8052 103.066 42.0621 103.383 42.2155L104.516 42.763C105.001 42.9975 105.221 43.4975 105.175 44.0051Z" fill="#191919"/>
<path d="M109.396 40.5355C109.621 40.5155 109.791 40.4931 110.004 40.5629L108.442 45.0027C108.342 45.1524 107.932 45.1299 107.737 45.0763L106.218 40.5617C106.406 40.4943 106.633 40.5043 106.86 40.5592L108.077 44.2981L109.397 40.5355H109.396Z" fill="#191919"/>
<path d="M72.9782 45.0935L72.3846 45.091L72.3497 40.5439C72.5218 40.5115 72.745 40.4878 72.8411 40.5352C72.9446 40.5863 72.9047 40.8495 73.0518 41.0478C73.426 40.5527 73.9547 40.2533 74.4623 40.5065C74.5534 40.6375 74.5035 40.9892 74.4648 41.1176C74.1131 41.0365 73.7789 41.0465 73.537 41.2336C73.2763 41.4344 73.0431 41.796 73.0356 42.1764L72.9795 45.0947L72.9782 45.0935Z" fill="#191919"/>
<path d="M119.314 45.0519C119.144 45.1267 118.945 45.1143 118.712 45.0818L118.689 40.536C118.88 40.5186 119.078 40.4911 119.202 40.536C119.318 40.5772 119.216 40.8977 119.33 41.1247C119.684 40.6134 120.206 40.2604 120.807 40.4862L120.809 41.1247C120.45 41.0324 120.121 41.0499 119.879 41.2332C119.613 41.434 119.381 41.7969 119.374 42.176L119.314 45.0544V45.0519Z" fill="#191919"/>
<path d="M86.3486 40.5243H85.7587V45.0988H86.3486V40.5243Z" fill="#191919"/>
<path d="M112.016 45.0071C111.921 45.1356 111.641 45.1306 111.456 45.0857L111.425 40.5586C111.607 40.5037 111.769 40.5175 112.015 40.5287V45.0071H112.016Z" fill="#191919"/>
<path d="M56.2716 4.05136C56.349 3.82065 56.8902 3.9067 56.8328 4.08504L55.4149 8.47617C55.1417 8.53603 54.9085 8.53354 54.6579 8.48116L53.4793 4.74726L52.2447 8.45123C52.0576 8.56222 51.7259 8.54102 51.5101 8.45747L50.0884 3.97903C50.2867 3.89423 50.4862 3.92665 50.7257 3.95533L51.9154 7.79649L53.1613 3.95533C53.4145 3.91543 53.614 3.91667 53.8547 3.95533L55.032 7.73288L56.2716 4.05261V4.05136Z" fill="#191919"/>
<path d="M118.031 10.2001C117.876 10.1515 117.921 9.66139 118.061 9.64892C118.718 9.83973 119.432 10.053 120.063 9.73248C120.777 9.37081 120.951 8.50655 120.808 7.80941C120.319 8.48909 119.671 8.59759 118.973 8.44669C117.659 8.16234 117.368 6.59346 117.694 5.15676C117.896 4.26382 118.633 3.83107 119.522 3.86225C120.051 3.88095 120.486 3.95952 120.807 4.39228C120.843 4.10918 120.898 3.96825 121.056 3.92585C121.161 3.89717 121.443 3.89093 121.442 4.0992L121.413 8.56267C121.408 9.3758 120.857 10.1191 120.08 10.3024C119.41 10.4596 118.736 10.4196 118.028 10.2001H118.031ZM120.546 4.86743C120.143 4.21518 119.003 4.18401 118.579 4.84374C118.056 5.6606 118.079 6.76431 118.583 7.55749C118.849 7.97527 119.339 8.04761 119.8 7.9653C120.847 7.77823 121.202 5.92874 120.546 4.86743Z" fill="#191919"/>
<path d="M115.145 8.03602C114.723 8.51617 114.188 8.64337 113.62 8.59473C112.215 8.47252 111.764 6.97846 112.027 5.42079C112.143 4.73363 112.612 4.10882 113.141 3.95916C113.928 3.73468 114.559 3.88184 115.182 4.46175L115.246 1.88893C115.393 1.81285 115.78 1.80662 115.815 1.9438L115.81 8.49871C115.575 8.52614 115.404 8.53737 115.305 8.48125C115.226 8.43635 115.209 8.25053 115.142 8.03602H115.145ZM115.002 7.36881C115.354 6.62303 115.32 5.81114 115.01 5.09779C114.791 4.58896 114.293 4.33205 113.802 4.36822C113.266 4.40813 112.89 4.75982 112.729 5.31728C112.368 6.57189 112.707 8.01482 113.781 8.10461C114.289 8.14701 114.747 7.90632 115.003 7.36881H115.002Z" fill="#191919"/>
<path d="M107.398 5.59465L105.19 5.61335L105.194 7.90682L107.64 7.92179C107.682 8.18618 107.677 8.34706 107.64 8.50794H104.528L104.527 2.30597L107.527 2.30348C107.567 2.50426 107.562 2.67387 107.531 2.8597L105.188 2.87217L105.179 5.01972L107.409 5.06587C107.441 5.24296 107.45 5.37515 107.399 5.59589L107.398 5.59465Z" fill="#191919"/>
<path d="M170.502 8.49125L170.465 5.44826C170.46 5.09782 170.305 4.7561 170.121 4.60146C169.813 4.34331 169.4 4.32585 169.013 4.45056C168.461 4.6289 168.153 5.21629 168.144 5.79746L168.1 8.49125C167.892 8.51744 167.718 8.51744 167.514 8.48751V1.88147L168.089 1.84905L168.155 4.55282C168.538 4.04774 168.942 3.89559 169.49 3.85817C170.373 3.79956 171.015 4.30714 171.027 5.21754L171.074 8.47878C170.938 8.51245 170.798 8.52368 170.501 8.49125H170.502Z" fill="#191919"/>
<path d="M93.8126 8.49143L93.7889 5.43472C93.7864 5.08802 93.5981 4.74256 93.4123 4.58792C93.1679 4.38464 92.7526 4.32727 92.4196 4.42829C91.8197 4.61037 91.4643 5.19153 91.458 5.81135L91.4306 8.50515H90.8519V1.85671L91.4331 1.85297L91.4605 4.52681C91.8983 4.02921 92.3959 3.84089 93.0282 3.86209C93.7864 3.88703 94.3414 4.40584 94.3564 5.1828L94.415 8.48769L93.8126 8.49143Z" fill="#191919"/>
<path d="M48.083 8.4884L48.0531 5.42171C48.0494 5.09871 47.9234 4.80189 47.76 4.64226C47.5118 4.40031 47.1552 4.34544 46.7898 4.40406C46.1013 4.5138 45.7334 5.16106 45.726 5.83202L45.6948 8.50336L45.1224 8.50087L45.1161 1.85742L45.6948 1.85493L45.731 4.51754C46.3271 3.84908 47.2587 3.6483 48.0257 4.09103C48.4297 4.32424 48.6181 4.8418 48.6243 5.297L48.6704 8.49588L48.0818 8.48965L48.083 8.4884Z" fill="#191919"/>
<path d="M38.6485 7.15337C38.4677 8.55764 36.7704 8.87566 35.2738 8.38055C35.2177 8.14359 35.2052 7.93283 35.3237 7.70959C36.0458 8.07625 36.8651 8.22341 37.5274 7.78567C37.8603 7.56617 38.0312 7.16335 38.025 6.82538C38.0187 6.45997 37.7581 6.17562 37.4151 5.96735L35.9946 5.10309C35.4796 4.79006 35.1429 4.27874 35.2027 3.6876C35.2576 3.14635 35.613 2.57641 36.2204 2.35817C36.9001 2.11498 37.6695 2.19105 38.3779 2.3644C38.4028 2.59637 38.353 2.77096 38.2869 2.97674C37.2056 2.56394 36.0632 2.74103 35.8662 3.56788C35.7714 3.96571 35.9585 4.35232 36.3114 4.55685L37.7593 5.39617C38.424 5.78153 38.7433 6.41757 38.6498 7.15337H38.6485Z" fill="#191919"/>
<path d="M173.286 8.3348C172.82 8.04173 172.755 7.46306 172.827 6.99664C173 5.88545 174.264 5.68466 175.613 5.72332C175.718 5.40031 175.654 4.78673 175.314 4.57097C174.72 4.19309 174.006 4.44127 173.35 4.70442C173.271 4.60215 173.257 4.22552 173.395 4.13697C174.012 3.8651 174.708 3.79401 175.37 3.9499C175.879 4.06963 176.217 4.56349 176.224 5.08105L176.273 8.49943C176.067 8.52063 175.909 8.53809 175.805 8.48321C175.725 8.44081 175.698 8.24252 175.632 8.0542C175.012 8.61915 174.073 8.83116 173.286 8.3373V8.3348ZM175.225 7.84344C175.677 7.4244 175.717 6.82204 175.658 6.26582C174.665 6.15857 173.583 6.36185 173.469 7.07521C173.412 7.43064 173.458 7.80976 173.832 7.99683C174.206 8.1839 174.871 8.17018 175.225 7.84219V7.84344Z" fill="#191919"/>
<path d="M124.355 7.79665C125.266 8.51375 126.384 7.65573 126.51 7.91388C126.572 8.04109 126.537 8.34664 126.379 8.404C125.92 8.56863 125.429 8.61352 124.951 8.59232C124.037 8.55117 123.362 7.99245 123.189 7.10574C123.02 6.24523 123.065 5.3685 123.564 4.6065C124.109 3.77342 125.387 3.59134 126.148 4.24109C126.768 4.76987 126.857 5.57552 126.823 6.3874L123.841 6.40361C123.706 6.9511 123.944 7.47614 124.355 7.7979V7.79665ZM126.171 5.88855C126.23 5.06295 125.833 4.3683 125.084 4.36331C124.285 4.35832 123.759 5.13279 123.756 5.90601L126.171 5.88855Z" fill="#191919"/>
<path d="M72.9108 8.04149L73.7439 7.78084L73.7177 8.38944C72.3933 8.796 70.979 8.68875 70.5525 7.45409C70.0162 5.90142 70.6186 4.09558 71.8258 3.90601C72.5541 3.79252 73.2126 3.90601 73.6279 4.48094C74.0208 5.02469 74.1006 5.68317 74.0769 6.3853L71.08 6.40276C70.9067 6.87168 71.1648 7.37926 71.4716 7.68356C71.8408 8.04897 72.3384 8.21983 72.9096 8.04024L72.9108 8.04149ZM73.4246 5.89144C73.4758 5.08205 73.1054 4.50214 72.4294 4.34251C71.5963 4.35124 70.9778 5.06584 70.9965 5.9089L73.4234 5.89144H73.4246Z" fill="#191919"/>
<path d="M148.923 7.79063C149.996 8.6736 151.359 7.20199 151.08 8.35433C150.392 8.62995 149.549 8.70976 148.814 8.42916C147.433 7.90287 147.333 5.244 148.496 4.25627C149.138 3.71128 150.259 3.71876 150.861 4.32736C151.404 4.8736 151.456 5.64058 151.433 6.38886L148.407 6.40383C148.307 6.9376 148.535 7.47261 148.923 7.79188V7.79063ZM150.772 5.88627C150.843 5.14922 150.511 4.47701 149.844 4.38098C148.996 4.25877 148.27 5.07938 148.403 5.90373L150.772 5.88627Z" fill="#191919"/>
<path d="M59.548 8.00145C60.411 8.35314 61.7367 7.40532 61.3364 8.26459C61.1692 8.62252 59.1863 8.90312 58.4829 8.0027C57.7434 7.05613 57.7808 5.50969 58.4767 4.52196C59.0217 3.74874 60.2626 3.65022 60.9597 4.2027C61.6194 4.72649 61.7192 5.59948 61.6681 6.38517L58.6276 6.40513C58.6002 7.02994 58.8957 7.73456 59.5492 8.0002L59.548 8.00145ZM61.0533 5.89505C61.0607 5.12682 60.7664 4.5943 60.1703 4.38353C59.2561 4.25508 58.5802 4.97467 58.6376 5.915L61.0533 5.89505Z" fill="#191919"/>
<path d="M137.42 8.02252C136.671 8.82941 135.172 8.81569 134.465 8.03125C133.565 7.0323 133.603 5.31251 134.55 4.36719C135.241 3.67628 136.609 3.6663 137.315 4.33476C138.301 5.26886 138.384 6.98366 137.421 8.02252H137.42ZM137.337 6.95872C137.527 6.18176 137.445 5.40106 136.962 4.80119C136.656 4.42206 136.089 4.30608 135.646 4.40211C134.572 4.63407 134.191 6.06328 134.653 7.22935C134.907 7.86787 135.493 8.16843 136.153 8.10109C136.68 8.04746 137.175 7.61595 137.336 6.95747L137.337 6.95872Z" fill="#191919"/>
<path d="M97.3821 7.8038C98.5257 8.66556 99.7554 7.18398 99.491 8.35129C98.3648 8.80399 96.872 8.70796 96.3969 7.62671C95.6885 6.01043 96.3806 4.03248 97.6989 3.88782C98.406 3.81049 98.9909 3.92897 99.4012 4.49392C99.789 5.02769 99.8826 5.68867 99.8526 6.38581L96.8047 6.41949C96.7086 7.00439 97.0005 7.51696 97.3821 7.8038ZM99.1967 5.89195C99.2441 5.08506 98.8737 4.5014 98.2089 4.34551C97.3472 4.34426 96.7436 5.05014 96.771 5.91315L99.1954 5.89195H99.1967Z" fill="#191919"/>
<path d="M131.523 8.50268L131.508 5.55322C131.507 5.20652 131.386 4.82116 131.113 4.60166C130.763 4.31981 130.289 4.31981 129.849 4.52808C129.552 4.66776 129.201 5.09303 129.193 5.57941L129.139 8.49395C128.929 8.52263 128.755 8.52014 128.549 8.4927L128.538 3.95066C128.704 3.91449 128.853 3.91449 128.953 3.94941C129.074 3.99182 129.14 4.16143 129.246 4.37344C129.829 3.82969 130.789 3.66382 131.5 4.1078C131.914 4.36595 132.092 4.95585 132.095 5.41853L132.111 8.48397L131.523 8.50392V8.50268Z" fill="#191919"/>
<path d="M156.126 5.60515C156.126 5.21604 156.007 4.85812 155.766 4.63613C155.42 4.31562 154.868 4.32061 154.421 4.53137C154.119 4.67354 153.8 5.12376 153.79 5.59642L153.731 8.48227C153.591 8.51969 153.401 8.51345 153.174 8.50472L153.15 4.4765C153.15 4.31188 153.054 4.14227 153.159 4.03003C153.256 3.92527 153.438 3.89534 153.535 3.93649C153.726 4.01631 153.732 4.21585 153.787 4.53511C154.14 4.04 154.524 3.89409 155.102 3.86166C155.871 3.81926 156.647 4.23456 156.664 5.08135L156.733 8.4935L156.131 8.49724L156.127 5.60515H156.126Z" fill="#191919"/>
<path d="M69.0573 8.50494L65.6376 8.50744C65.6015 8.26549 65.6264 8.00734 65.7736 7.81279L68.2317 4.55778L65.7686 4.49044C65.7237 4.30087 65.7262 4.1375 65.7598 3.92923L68.9774 3.95043C69.2082 4.21108 68.97 4.57774 68.8028 4.79973L66.4196 7.95745L69.0336 7.99487L69.056 8.50494H69.0573Z" fill="#191919"/>
<path d="M142.227 7.64228C142.065 8.59383 140.616 8.80086 139.426 8.42298C139.398 8.18478 139.4 8.01392 139.463 7.82062C140.407 8.23965 141.411 8.14736 141.575 7.52629C141.659 7.21202 141.557 6.84287 141.241 6.68698L140.191 6.16817C139.742 5.94618 139.461 5.57953 139.454 5.10063C139.446 4.67411 139.698 4.12538 140.185 3.98071C140.771 3.80611 141.417 3.8323 141.991 4.03309C142.183 4.10043 142.082 4.56187 141.926 4.53194C140.982 4.34736 140.125 4.24385 140.046 5.01084C140.019 5.28271 140.236 5.49597 140.513 5.63939L141.684 6.24549C142.211 6.51861 142.331 7.03991 142.229 7.64103L142.227 7.64228Z" fill="#191919"/>
<path d="M179.243 4.46983L179.226 8.49431C179.013 8.5205 178.849 8.52424 178.631 8.49182L178.614 4.55962C178.485 4.39001 178.057 4.46858 177.839 4.45736C177.651 4.44863 177.672 3.99842 177.815 3.99343L178.594 3.9635L178.678 2.75503C178.726 2.08407 179.216 1.68873 179.917 1.73987C180.044 1.7486 180.255 1.71368 180.312 1.81345C180.383 1.93941 180.409 2.09156 180.307 2.29234C180.047 2.25119 179.578 2.20255 179.394 2.50685C179.136 2.93462 179.19 3.48834 179.277 3.96599L180.217 3.98844L180.221 4.45486L179.243 4.46858V4.46983Z" fill="#191919"/>
<path d="M146.351 7.64184C146.187 8.60213 144.739 8.79792 143.543 8.42379C143.518 8.18434 143.518 8.01598 143.574 7.82516C144.525 8.23672 145.522 8.15441 145.695 7.52835C145.783 7.20534 145.68 6.83495 145.367 6.6828L144.384 6.2039C143.944 5.98939 143.623 5.65017 143.573 5.18375C143.53 4.77968 143.759 4.19103 144.222 4.01768C144.839 3.78696 145.572 3.82313 146.155 4.06383C146.251 4.14115 146.218 4.51903 146.107 4.54397C145.101 4.2908 144.248 4.28956 144.171 5.01289C144.142 5.27978 144.348 5.49553 144.626 5.6377L145.812 6.24381C146.328 6.5082 146.449 7.06317 146.351 7.64184Z" fill="#191919"/>
<path d="M160.729 8.32333C159.987 8.74611 159.155 8.62015 158.42 8.42435C158.375 8.18365 158.377 8.00656 158.455 7.82448C159.47 8.26721 160.458 8.13003 160.583 7.41418C160.636 7.10738 160.463 6.79186 160.159 6.6447L159.184 6.17079C158.662 5.91762 158.368 5.45619 158.435 4.92242C158.499 4.41858 158.883 3.96712 159.464 3.90476C159.967 3.84989 160.512 3.84739 160.974 4.0382C161.067 4.10804 161.044 4.43479 160.971 4.55451C160.07 4.3001 159.213 4.28389 159.056 4.89872C158.985 5.17558 159.121 5.46741 159.409 5.60584L160.543 6.14959C160.943 6.34165 161.188 6.73574 161.224 7.08992C161.271 7.54762 161.196 8.05894 160.729 8.32458V8.32333Z" fill="#191919"/>
<path d="M84.5826 7.47566C84.3943 8.63923 83.0075 8.8026 81.7279 8.41599C81.7067 8.19026 81.6905 8.02938 81.7828 7.83608C82.7156 8.24763 83.7183 8.13913 83.8805 7.53677C83.9777 7.17635 83.8642 6.83588 83.5387 6.675L82.5697 6.19361C82.122 5.97038 81.8102 5.65111 81.7803 5.23457C81.7441 4.73946 81.8913 4.22066 82.4051 4.02486C83.0124 3.79414 83.7445 3.81659 84.3219 4.06601C84.4155 4.14708 84.3905 4.51373 84.277 4.54616C83.2694 4.28177 82.4038 4.3117 82.354 5.01258C82.3353 5.27822 82.5211 5.47776 82.7992 5.62742L84.0451 6.29712C84.4691 6.52535 84.6487 7.04914 84.5801 7.47441L84.5826 7.47566Z" fill="#191919"/>
<path d="M183.102 7.98419C183.496 8.25606 184.143 7.75721 183.971 8.38826C183.905 8.63145 183.05 8.71251 182.626 8.43815C182.381 8.27976 182.267 7.92932 182.267 7.5901L182.264 4.81649C182.264 4.16673 181.154 4.8751 181.371 4.05699C181.441 3.79135 181.973 4.04701 182.146 3.90484C182.401 3.69407 182.154 3.08547 182.286 2.90339C182.363 2.79739 182.603 2.72755 182.863 2.78367C182.876 3.06053 182.723 3.55065 182.95 3.84871C183.102 4.04826 183.601 3.93227 183.789 3.91107C183.903 4.14304 183.883 4.30516 183.812 4.52216C183.504 4.49348 183.233 4.44235 182.861 4.55958L182.849 7.48908C182.849 7.70359 182.959 7.88442 183.105 7.98419H183.102Z" fill="#191919"/>
<path d="M163.931 7.8018C164.979 8.57128 166.184 7.38775 165.917 8.38046C165.866 8.57127 164.276 8.88555 163.338 8.14102C162.349 7.35657 162.24 5.42352 163.263 4.4358C164.127 3.60147 165.767 3.83593 165.899 4.09783C165.956 4.21007 165.954 4.58795 165.768 4.53931C165.096 4.36222 164.474 4.27492 163.885 4.68522C163.019 5.28883 162.929 7.0635 163.933 7.8018H163.931Z" fill="#191919"/>
<path d="M87.1455 7.71471C88.0733 8.59269 89.4539 7.47651 89.2169 8.36072C89.1471 8.62137 87.5071 8.83463 86.6578 8.15744C86.0879 7.70349 85.9258 6.98888 85.8983 6.27303C85.8597 5.24664 86.3797 4.25019 87.3961 3.96085C87.9873 3.79249 88.6445 3.86233 89.2007 4.007C89.2294 4.23896 89.2294 4.41231 89.1596 4.58941C88.4699 4.34622 87.688 4.23896 87.1292 4.75153C86.3161 5.49607 86.3224 6.93525 87.1467 7.71471H87.1455Z" fill="#191919"/>
<path d="M41.4258 7.72489C42.3075 8.46319 43.3975 7.83464 43.4549 7.9793C43.4823 8.04665 43.4611 8.18258 43.511 8.42702C42.8288 8.65649 41.9347 8.71885 41.2151 8.33972C39.9679 7.68249 39.7484 5.47756 40.8908 4.39381C41.6827 3.64179 43.3115 3.83136 43.4736 4.08328C43.5447 4.19302 43.5023 4.59834 43.3476 4.55219C42.6705 4.35265 42.0806 4.2878 41.5169 4.65945C40.6065 5.25932 40.5104 6.95915 41.4258 7.72614V7.72489Z" fill="#191919"/>
<path d="M76.3915 8.46577C76.197 8.53811 75.9787 8.52688 75.8203 8.477L75.7929 4.06216C75.9313 3.95491 76.1221 3.94618 76.3329 4.00604C76.3454 4.26919 76.3005 4.51487 76.3853 4.74434C76.6871 4.06965 77.2121 3.72544 77.8831 3.91376L77.8906 4.53358C77.5152 4.44628 77.1984 4.48743 76.9527 4.66328C76.707 4.83912 76.4701 5.20827 76.4614 5.57119L76.3915 8.46453V8.46577Z" fill="#191919"/>
<path d="M64.0399 8.4687C63.8192 8.5348 63.6496 8.51609 63.4164 8.49489L63.4351 4.00398C63.4351 3.85807 64.0063 3.89798 64.0075 4.05761L64.0399 8.46995V8.4687Z" fill="#191919"/>
<path d="M80.0517 8.12904C80.0542 8.34728 79.9183 8.45454 79.846 8.49943C79.7736 8.54433 79.4868 8.52937 79.4855 8.4271L79.4631 4.06714C79.4631 3.93619 79.9782 3.92622 80.0019 4.06215L80.0517 8.12904Z" fill="#191919"/>
<path d="M110.132 3.98212H109.584V8.46928H110.132V3.98212Z" fill="#191919"/>
<path d="M64.0412 1.98812H63.4139V2.83243H64.0412V1.98812Z" fill="#191919"/>
<path d="M110.175 2.04296H109.584V2.77503H110.175V2.04296Z" fill="#191919"/>
<path d="M80.0468 2.04296H79.4619V2.77628H80.0468V2.04296Z" fill="#191919"/>
<path d="M64.6485 20.1447C64.2295 20.676 63.6109 20.9029 62.93 20.7882C61.2601 20.5076 61.0268 17.9697 61.8038 16.7675C62.4211 15.8134 63.8591 15.8271 64.6335 16.735L64.7096 14.1098C64.7134 13.9839 65.1349 13.9714 65.2708 14.0974V20.6647C65.0675 20.7321 64.8954 20.7221 64.7844 20.7034C64.6921 20.6872 64.6585 20.449 64.6485 20.1459V20.1447ZM64.3791 19.6471C64.7907 18.8589 64.7707 17.9734 64.3978 17.2227C64.1372 16.6989 63.657 16.4706 63.0958 16.5592C62.6631 16.6278 62.2815 16.9707 62.1455 17.4933C61.8088 18.7866 62.1318 20.2195 63.2043 20.3018C63.6807 20.338 64.1185 20.1447 64.3791 19.6471Z" fill="#191919"/>
<path d="M76.0212 20.3931C75.4425 19.8431 75.5872 18.7806 76.1871 18.369C76.8605 17.9063 77.6138 18.0011 78.4256 17.8939C78.6726 17.8265 78.5491 17.2142 78.4032 16.9897C77.9779 16.3374 77.0912 16.4996 76.2132 16.9311C76.1883 16.6979 76.207 16.547 76.2494 16.3424C76.878 16.0943 77.5439 15.9858 78.2024 16.1367C78.7948 16.2726 79.1265 16.7403 79.1315 17.3564L79.1627 20.665C78.9133 20.8121 78.5603 20.6962 78.4381 20.342C77.7285 20.8658 76.7508 21.089 76.0212 20.3944V20.3931ZM76.5238 20.0464C77.0052 20.5141 77.9368 20.3308 78.2772 19.8419C78.5915 19.3892 78.5878 18.8754 78.508 18.3915L76.9353 18.6122C76.3916 18.8005 76.0287 19.565 76.5238 20.0464Z" fill="#191919"/>
<path d="M36.647 19.7116C37.4813 20.4524 38.5925 20.2529 39.554 20.0621C39.6775 20.0371 39.7187 20.4425 39.6301 20.546C39.3657 20.8565 37.1521 21.1371 36.0434 20.0134C34.7576 18.7089 34.7788 16.3544 36.1406 15.1023C37.0972 14.2218 38.5052 14.3103 39.6289 14.5847C39.685 14.8541 39.6775 15.0012 39.6151 15.197C38.6174 14.8877 37.4402 14.7668 36.5971 15.5512C35.4684 16.6013 35.451 18.6491 36.6482 19.7104L36.647 19.7116Z" fill="#191919"/>
<path d="M45.1137 20.0112C44.3243 21.1386 42.5184 21.0813 41.7826 19.9938C41.1491 19.0572 41.1391 17.6791 41.8425 16.7737C42.5808 15.8221 44.2569 15.7947 45.0351 16.73C45.7572 17.598 45.7909 19.0435 45.1137 20.0112ZM44.5824 19.7107C45.07 18.9524 45.0401 17.9722 44.6485 17.2713C44.3629 16.7587 43.8803 16.5105 43.3627 16.5467C42.9013 16.5791 42.4673 16.8223 42.2303 17.3125C41.8612 18.0732 41.8599 19.036 42.3713 19.7618C42.8826 20.4876 44.0748 20.5014 44.5837 19.7107H44.5824Z" fill="#191919"/>
<path d="M58.4953 20.2722L59.5391 20.0078C59.6377 20.1487 59.6514 20.3632 59.5591 20.5166C59.402 20.7773 57.4652 21.1863 56.6595 20.1151C55.8476 19.0363 56.0646 16.6855 57.4265 16.1953C58.1174 15.9459 58.8807 16.0345 59.3658 16.5545C59.8509 17.0746 59.9544 17.8241 59.9108 18.5836L56.9339 18.5973C56.8204 19.07 56.9863 19.5327 57.2993 19.8831C57.5575 20.1724 58.0426 20.3869 58.4953 20.2722ZM59.2635 18.0847C59.3271 17.3227 58.9817 16.6119 58.2833 16.5533C57.439 16.4809 56.8503 17.3015 56.8391 18.1034L59.2635 18.0847Z" fill="#191919"/>
<path d="M124.492 20.2622L125.351 20.0428C125.467 20.1039 125.476 20.3982 125.387 20.5241C125.205 20.7811 123.461 21.1278 122.658 20.2959C121.538 19.1348 121.904 16.5296 123.42 16.1417C124.163 15.9522 124.941 16.118 125.366 16.7291C125.742 17.2679 125.788 17.9226 125.753 18.5849L122.706 18.6198C122.641 19.1336 122.843 19.5913 123.143 19.8856C123.479 20.2161 123.956 20.4019 124.493 20.2635L124.492 20.2622ZM125.116 18.101C125.127 17.541 124.986 17.2218 124.759 16.8676C124.337 16.4311 123.664 16.4373 123.23 16.8576C122.878 17.1981 122.659 17.6034 122.664 18.111L125.116 18.101Z" fill="#191919"/>
<path d="M70.2496 19.9999C70.3805 20.152 70.3481 20.3678 70.2982 20.5723C69.0474 21.0275 67.6581 20.9115 67.1842 19.7517C66.81 18.8375 66.82 17.7388 67.3438 16.8608C67.9287 15.8793 69.4427 15.7746 70.1648 16.6363C70.6 17.1564 70.6337 17.8186 70.6424 18.5594L67.6331 18.6305C67.5421 19.2566 67.88 19.9362 68.4724 20.1757C69.0324 20.4027 69.5924 20.258 70.2496 20.0023V19.9999ZM70.0239 18.083C70.0139 17.3871 69.7408 16.7436 69.1384 16.5964C68.2492 16.3769 67.5171 17.2362 67.5994 18.1042L70.0239 18.0843V18.083Z" fill="#191919"/>
<path d="M90.6276 20.2571C89.8718 21.0503 88.4638 21.0079 87.7442 20.2371C86.8388 19.2681 86.8239 17.5621 87.758 16.5993C88.4875 15.8473 89.9342 15.861 90.6463 16.613C91.5679 17.5857 91.5879 19.2507 90.6276 20.2571ZM90.2722 19.7782C90.8384 18.985 90.8084 17.9374 90.3345 17.1829C89.8893 16.4733 88.9003 16.29 88.2743 16.9086C87.526 17.6481 87.5073 18.9763 88.162 19.8194C88.6746 20.4778 89.7658 20.4853 90.2709 19.777L90.2722 19.7782Z" fill="#191919"/>
<path d="M108.817 16.2008C109.09 16.1347 109.258 16.1759 109.397 16.2071L109.414 20.683C109.236 20.7291 109.1 20.7266 108.96 20.7104C108.838 20.6955 108.791 20.4909 108.727 20.2527C108.095 20.9175 107.019 21.0559 106.317 20.4348C105.947 20.1093 105.848 19.5631 105.848 19.0904L105.845 16.1983C106.071 16.1659 106.238 16.1696 106.432 16.2008L106.455 19.1815C106.457 19.5905 106.63 19.9696 106.931 20.1368C107.282 20.3313 107.727 20.36 108.12 20.1368C108.563 19.8848 108.777 19.3536 108.783 18.8323L108.818 16.2021L108.817 16.2008Z" fill="#191919"/>
<path d="M48.5195 16.7564C48.0943 17.0195 47.8885 17.5258 47.8835 18.001L47.8548 20.701L47.2986 20.6848L47.2487 16.3473C47.2462 16.1328 47.4308 16.1403 47.5992 16.1602C47.8511 16.1889 47.8823 16.3735 47.906 16.7214C48.2901 16.2363 48.7465 16.058 49.3464 16.0617C50.1134 16.0667 50.803 16.5518 50.813 17.3537L50.8567 20.6923H50.2568L50.2406 17.6281C50.2381 17.224 50.0049 16.8661 49.7168 16.6965C49.3826 16.5007 48.9423 16.4945 48.5208 16.7551L48.5195 16.7564Z" fill="#191919"/>
<path d="M115.569 20.7365C114.942 20.8973 114.316 20.8213 113.767 20.6005C113.686 20.4658 113.719 20.1453 113.798 20.0406C114.742 20.4209 115.699 20.3561 115.897 19.7151C115.987 19.4257 115.857 19.0653 115.564 18.9082L114.317 18.2347C113.849 17.9816 113.69 17.4989 113.782 17.0113C113.964 16.051 115.186 15.8752 116.321 16.2456C116.411 16.3553 116.366 16.6633 116.279 16.7793C115.772 16.5773 115.307 16.4888 114.816 16.6409C114.543 16.7257 114.38 16.9739 114.374 17.2034C114.368 17.4328 114.51 17.6735 114.762 17.8007L115.878 18.3669C116.391 18.6263 116.612 19.074 116.579 19.6128C116.548 20.1117 116.199 20.5743 115.569 20.7352V20.7365Z" fill="#191919"/>
<path d="M53.8819 16.6679L53.852 20.6812C53.6575 20.7248 53.4854 20.7174 53.2871 20.6962L53.2671 16.7602C53.1611 16.5869 52.6835 16.6629 52.4889 16.6542C52.3056 16.6455 52.3218 16.194 52.4515 16.1903L53.2384 16.1641L53.3095 15.0679C53.337 14.6401 53.5116 14.2635 53.8395 14.0839C54.19 13.8931 54.7163 13.8295 55.0181 14.0889C55.1702 14.8184 54.1912 14.1712 53.973 14.7698C53.8084 15.2213 53.8109 15.6989 53.9081 16.1653L54.8797 16.1865V16.6505L53.8807 16.6679H53.8819Z" fill="#191919"/>
<path d="M120.687 19.7193C120.55 20.7707 119.133 21.0662 117.86 20.6148C117.842 20.3915 117.857 20.2132 117.911 20.0349C118.929 20.4589 119.923 20.3279 120.044 19.6158C120.095 19.314 119.905 19.0297 119.608 18.8576L118.239 18.0631C117.855 17.8399 117.819 17.3423 117.927 16.9245C118.15 16.064 119.348 15.8919 120.464 16.2349C120.491 16.4082 120.484 16.5728 120.456 16.7724C119.562 16.4431 118.647 16.478 118.515 17.0916C118.452 17.3835 118.589 17.6553 118.877 17.8012L120.072 18.4024C120.584 18.6593 120.758 19.1731 120.687 19.7193Z" fill="#191919"/>
<path d="M103.76 20.4283C103.024 20.9696 102.098 20.8873 101.34 20.6042C101.301 20.3697 101.298 20.2226 101.358 20.0292C102.327 20.4146 103.313 20.3847 103.489 19.7374C103.59 19.3645 103.407 19.0091 103.063 18.8308L102.04 18.2995C101.535 18.0376 101.317 17.6385 101.379 17.096C101.496 16.0671 102.747 15.8564 103.957 16.2592C103.984 16.45 103.966 16.5897 103.893 16.7767C102.944 16.3901 102.009 16.5311 101.957 17.212C101.938 17.4489 102.071 17.6622 102.321 17.7819L103.297 18.2521C103.703 18.4479 104.017 18.7684 104.1 19.0814C104.23 19.5653 104.191 20.1103 103.76 20.4271V20.4283Z" fill="#191919"/>
<path d="M82.1433 19.9178C82.152 20.5726 83.4815 19.9178 83.2121 20.5888C83.1198 20.817 82.3528 20.9317 81.9113 20.6798C81.6968 20.5576 81.5335 20.2433 81.5297 19.9228L81.491 16.7102L80.6255 16.6528C80.6006 16.4745 80.5931 16.3573 80.6118 16.2538C80.6455 16.0692 81.385 16.2999 81.4773 16.0742C81.5908 15.7936 81.39 15.2922 81.5908 15.0303C81.6756 14.9193 82.0099 14.8507 82.0722 14.9804L82.1146 16.1702L83.0811 16.1827L83.0786 16.6516L82.0959 16.674L82.1408 19.9191L82.1433 19.9178Z" fill="#191919"/>
<path d="M72.9805 20.6866C72.771 20.7253 72.5441 20.7278 72.3782 20.6716L72.3595 16.1845C72.579 16.1645 72.7972 16.1508 72.8633 16.1994C72.9494 16.263 72.8908 16.4987 72.9918 16.727C73.3709 16.2344 73.8448 15.9425 74.4833 16.1121C74.5145 16.3204 74.517 16.5237 74.4746 16.7332C73.7126 16.5262 73.0516 17.0213 73.0367 17.782L72.9805 20.6854V20.6866Z" fill="#191919"/>
<path d="M84.7464 16.1697L84.7385 20.7117L85.3545 20.7128L85.3625 16.1707L84.7464 16.1697Z" fill="#191919"/>
<path d="M112.061 20.6521C111.865 20.7419 111.674 20.7144 111.456 20.6957V16.1986C111.67 16.1475 111.879 16.1599 112.061 16.2061V20.6521Z" fill="#191919"/>
<path d="M96.5464 20.5284L96.0201 20.5159L96.0089 17.4654C96.0089 17.3931 96.0563 17.2933 96.0289 17.2197C96.0027 17.1499 95.9116 17.1013 95.8144 17.1187C95.767 16.7658 95.3991 16.5538 95.0811 16.5538C95.0449 16.5026 94.9738 16.4141 94.899 16.4203C94.8154 16.4266 94.7568 16.5263 94.7256 16.5737C94.4425 16.585 94.1457 16.7795 93.9013 16.979C93.9063 16.9242 93.7978 16.7695 93.7641 16.7271C93.9773 16.2183 94.5373 16.0661 95.0761 16.0637C95.8954 16.0587 96.524 16.5638 96.529 17.3968L96.5464 20.5296V20.5284Z" fill="#191919"/>
<path d="M93.7627 16.7276C93.7964 16.77 93.9036 16.9246 93.8999 16.9795C93.7215 17.4784 93.6105 18.0358 93.6105 18.5908L93.613 20.7034L93.0444 20.686L93.0256 16.1988C93.2339 16.1614 93.3911 16.1614 93.5557 16.2038C93.542 16.4595 93.648 16.5829 93.7615 16.7288L93.7627 16.7276Z" fill="#191919"/>
<path d="M68.8965 15.5324C68.7456 15.7157 68.5373 15.8043 68.2804 15.7058L69.0574 14.4711C69.2195 14.3664 69.6098 14.3863 69.7944 14.4449L68.8965 15.5324Z" fill="#191919"/>
<path d="M59.0204 14.4414C58.6126 15.1248 57.9965 15.9043 57.5575 15.7147L58.317 14.4975C58.4206 14.3329 58.872 14.4015 59.0204 14.4426V14.4414Z" fill="#191919"/>
<path d="M85.3536 14.2263H84.7375V15.032H85.3536V14.2263Z" fill="#191919"/>
<path d="M96.5464 20.5303C96.5464 20.7123 96.5152 20.7647 96.3506 20.7822C96.1273 20.8071 96.0213 20.7485 96.0201 20.5178L96.5464 20.5303Z" fill="#191919"/>
<path d="M95.0798 16.5538C95.0623 16.6323 94.985 16.6697 94.9015 16.6635C94.8403 16.6585 94.7668 16.6398 94.7244 16.5737C94.7568 16.5263 94.8142 16.4265 94.8977 16.4203C94.9713 16.4153 95.0436 16.5039 95.0798 16.5538Z" fill="#191919"/>
<path d="M96.009 17.4681C95.9229 17.4244 95.8468 17.3658 95.8381 17.306L95.8132 17.1214C95.9105 17.1027 96.0015 17.1526 96.0277 17.2224C96.0551 17.2972 96.0077 17.397 96.0077 17.4681H96.009Z" fill="#191919"/>
<path d="M64.5763 32.4189C64.0999 32.8866 63.6397 33.0512 62.9738 32.9614C61.451 32.7556 61.1043 30.85 61.5845 29.3622C61.7965 28.7062 62.3352 28.3508 62.9251 28.2435C63.5674 28.1275 64.1136 28.3558 64.6449 28.9531L64.7048 26.3142C64.7073 26.1845 65.1201 26.1621 65.271 26.298L65.2785 32.8068C65.2435 32.8866 64.9617 32.9028 64.8856 32.8778C64.7821 32.8442 64.6811 32.7269 64.5763 32.4189ZM64.4204 31.7704C64.8058 30.9423 64.7671 30.0157 64.3094 29.2736C64.0189 28.801 63.5275 28.6526 63.0124 28.7785C62.6146 28.8758 62.2729 29.2038 62.1407 29.6964C61.8065 30.9473 62.1207 32.4139 63.2045 32.4912C63.7133 32.5274 64.1673 32.3154 64.4204 31.7704Z" fill="#191919"/>
<path d="M76.0974 32.6505C75.6309 32.3001 75.611 31.704 75.727 31.2338C75.8529 30.7212 76.2695 30.3122 76.8457 30.2373L78.4744 30.0241C78.7026 29.7659 78.4594 29.0314 78.1277 28.8767C77.5241 28.5974 76.9167 28.8069 76.3119 29.0151C75.7108 28.3567 77.6825 27.8865 78.6428 28.5038C78.9483 28.7009 79.1304 29.1448 79.1354 29.5227L79.1753 32.855C78.7837 32.9374 78.5879 32.8164 78.3659 32.5483C77.7049 33.0371 76.8008 33.1793 76.0961 32.6493L76.0974 32.6505ZM76.4715 32.1966C76.9167 32.6655 77.8259 32.562 78.2212 32.0993C78.5879 31.6703 78.5966 31.0879 78.5143 30.5728L77.2136 30.7087C76.8481 30.7474 76.5214 30.9657 76.4166 31.2088C76.2957 31.4882 76.2046 31.9172 76.4715 32.1978V32.1966Z" fill="#191919"/>
<path d="M45.1074 32.2059C44.2793 33.3196 42.4647 33.2298 41.7426 32.1299C41.1627 31.2469 41.2114 30.0709 41.6803 29.1842C42.007 28.5668 42.678 28.2762 43.2828 28.2276C43.9451 28.174 44.6921 28.3835 45.1074 28.9958C45.7085 29.8838 45.8133 31.2569 45.1074 32.2059ZM44.6709 31.7196C45.0775 30.9438 45.0388 29.9112 44.5075 29.2228C43.98 28.5406 42.8638 28.5768 42.3724 29.269C41.8811 29.9611 41.8748 30.8815 42.1854 31.6497C42.3999 32.1785 42.8725 32.4491 43.3639 32.4878C43.8765 32.5289 44.3753 32.2858 44.6709 31.7208V31.7196Z" fill="#191919"/>
<path d="M38.0199 32.4012C38.6273 32.4336 39.1261 32.345 39.6237 32.2266C39.6723 32.4386 39.6748 32.5271 39.6324 32.7566C38.4327 33.1357 36.8701 33.1183 35.9372 32.0944C34.8086 30.8547 34.8447 28.8044 35.896 27.5423C36.9474 26.2802 39.3593 26.5197 39.6 26.8178C39.6985 26.9387 39.7123 27.2967 39.5576 27.3578C38.6983 27.0609 37.6557 26.9924 36.8688 27.5174C35.9534 28.1285 35.6653 29.2247 35.795 30.2773C35.9384 31.4384 36.7603 32.3351 38.0174 32.4012H38.0199Z" fill="#191919"/>
<path d="M91.7725 32.2993C90.9482 33.2346 89.4267 33.1997 88.6086 32.3304C88.1147 31.8054 88.0698 31.1157 88.0698 30.441C88.0698 29.149 88.9577 28.2124 90.1812 28.2137C91.4009 28.2149 92.3001 29.1453 92.2888 30.4435C92.2838 31.0721 92.2539 31.7543 91.7738 32.2993H91.7725ZM91.2387 31.98C91.8361 31.1444 91.8024 29.9921 91.2188 29.2164C90.7025 28.5304 89.5614 28.5741 89.0812 29.2812C88.5337 30.0869 88.5549 31.2342 89.1448 32.0137C89.6337 32.6597 90.7386 32.6809 91.24 31.98H91.2387Z" fill="#191919"/>
<path d="M58.67 32.4526L59.5853 32.1833C59.6365 32.4227 59.634 32.5961 59.5579 32.722C59.4469 32.9066 57.4789 33.3269 56.7132 32.3666C56.0348 31.516 56.056 30.2078 56.495 29.2525C56.7631 28.6713 57.3093 28.3359 57.8281 28.2386C58.4168 28.1276 59.0416 28.3408 59.427 28.8135C59.8772 29.3672 59.9458 30.0469 59.9096 30.7703L56.9277 30.7852C56.8142 31.2816 57.005 31.7231 57.3143 32.0698C57.6012 32.3903 58.1299 32.6098 58.67 32.4514V32.4526ZM59.2686 30.2864C59.3197 29.5705 59.0503 29.0243 58.5091 28.7711C58.0352 28.6713 57.585 28.7923 57.2856 29.1191C57.015 29.4159 56.8155 29.8337 56.8479 30.3051L59.2686 30.2864Z" fill="#191919"/>
<path d="M100.4 32.0813C101.045 32.7435 101.836 32.4267 102.681 32.2047C102.71 32.423 102.712 32.5988 102.636 32.721C102.529 32.8932 100.596 33.3508 99.799 32.3581C99.072 31.4515 99.1056 30.0011 99.7167 29.052C100.352 28.0668 101.691 27.9296 102.455 28.7377C102.979 29.2914 103.049 30.0235 102.992 30.773L99.9599 30.7768C99.9075 31.227 100.091 31.7645 100.4 32.0825V32.0813ZM102.377 30.2418C102.388 29.4124 102.039 28.9123 101.524 28.7714C101.009 28.6305 100.449 28.8949 100.189 29.375C100.022 29.683 99.8876 29.9424 99.93 30.3079L102.377 30.243V30.2418Z" fill="#191919"/>
<path d="M68.2155 32.2062C69.2469 33.0231 70.519 31.6251 70.3332 32.6739C69.5263 33.0917 68.1781 33.1952 67.481 32.3871C66.7439 31.534 66.8163 30.1934 67.244 29.2306C67.5234 28.6033 68.0983 28.294 68.6882 28.2267C69.3342 28.1531 69.9877 28.4499 70.3194 29.0523C70.6138 29.5848 70.6574 30.1822 70.6337 30.7708L67.5982 30.782C67.5533 31.3869 67.8165 31.8895 68.2155 32.205V32.2062ZM70.0251 30.2907C70.0363 29.6297 69.8231 29.2032 69.4427 28.8527C68.9488 28.6432 68.4575 28.7018 68.0933 29.0336C67.7491 29.3466 67.5221 29.7694 67.6094 30.3069L70.0251 30.2907Z" fill="#191919"/>
<path d="M96.5989 28.9761C96.1973 28.6494 95.7034 28.7092 95.3131 28.8913C94.9227 29.0734 94.6359 29.5224 94.6272 30.0162L94.5785 32.841C94.3852 32.8771 94.2031 32.8759 94.0073 32.8372L94.0011 28.3388C94.1782 28.3264 94.3902 28.2952 94.4663 28.3463C94.581 28.4236 94.5623 28.6631 94.6234 28.9225C95.0487 28.3538 95.6061 28.1381 96.2846 28.2303C96.8421 28.3064 97.5068 28.7043 97.518 29.4076L97.5741 32.8435C97.3521 32.8821 97.1613 32.8697 96.9643 32.8347V29.9439C96.9643 29.6147 96.8919 29.2143 96.5989 28.9749V28.9761Z" fill="#191919"/>
<path d="M49.8825 28.983C49.4722 28.6363 48.9172 28.7073 48.5206 28.9293C48.1515 29.1364 47.9008 29.6003 47.8946 30.0979L47.8596 32.8416C47.6826 32.879 47.493 32.884 47.3022 32.8391L47.2473 28.5652C47.2436 28.2833 47.367 28.3058 47.5928 28.3157C47.8721 28.3282 47.8671 28.5577 47.9058 28.9256C48.3647 28.3232 48.9858 28.11 49.6705 28.2521C50.2915 28.3806 50.8191 28.9181 50.8253 29.6464L50.8515 32.8416C50.6919 32.874 50.5372 32.8815 50.2554 32.8515L50.2504 29.9457C50.2504 29.619 50.1693 29.2237 49.8825 28.9805V28.983Z" fill="#191919"/>
<path d="M84.1175 32.8527L80.7664 32.8764C80.638 32.531 80.7777 32.2504 81.0034 31.9598L83.3929 28.8719L80.8413 28.8333C80.7851 28.6936 80.7864 28.4442 80.8912 28.3332L84.0327 28.3456C84.2659 28.5352 84.0427 28.938 83.8805 29.1488L81.4511 32.3078L84.0626 32.3826C84.1374 32.5085 84.1137 32.6407 84.1175 32.8503V32.8527Z" fill="#191919"/>
<path d="M53.866 28.8514V32.8434C53.6777 32.8821 53.4769 32.8771 53.2861 32.8447L53.2886 28.8688L52.4018 28.8401C52.3545 28.6369 52.3545 28.4934 52.4206 28.3101C52.6176 28.3525 53.0653 28.4223 53.2 28.244C53.4058 27.9484 53.2611 27.4833 53.3098 27.1652C53.4158 26.4793 53.8485 26.0665 54.5569 26.1301C54.6891 26.1426 54.9048 26.1039 54.9709 26.2087C55.0433 26.3234 55.047 26.503 54.956 26.6839C54.6841 26.6252 54.3299 26.5841 54.1067 26.7886C53.8074 27.063 53.7862 28.0382 53.8984 28.2103C54.1354 28.5733 55.0657 27.9559 54.8849 28.809L53.8647 28.8501L53.866 28.8514Z" fill="#191919"/>
<path d="M72.977 32.8456C72.7226 32.8817 72.5405 32.883 72.3846 32.8431L72.3485 28.3484C72.5468 28.3272 72.7388 28.3035 72.8498 28.3434C72.9745 28.3883 72.9359 28.6989 72.977 28.9196C73.33 28.4532 73.8313 28.0791 74.4175 28.2499C74.5347 28.331 74.5359 28.6877 74.4711 28.8585C74.1044 28.8286 73.7552 28.8211 73.4709 29.0867C73.2813 29.2651 73.0419 29.6093 73.0344 29.9772L72.977 32.8443V32.8456Z" fill="#191919"/>
<path d="M85.7662 28.3358L85.7639 32.8716L86.3488 32.8719L86.3511 28.3361L85.7662 28.3358Z" fill="#191919"/>
<path d="M109.8 32.8739C109.123 33.051 108.376 33.0136 107.756 32.7442C107.584 32.6694 107.62 32.2029 107.757 32.1069C108.394 32.4037 109.029 32.4973 109.653 32.3189C110.107 32.1892 110.336 31.8138 110.403 31.4609C110.502 30.9433 110.266 30.5867 109.82 30.3223L108.387 29.4755C107.884 29.1786 107.587 28.6461 107.621 28.0999C107.655 27.5536 108.008 27.0099 108.586 26.7667C109.27 26.4799 110.042 26.536 110.759 26.7505C110.796 26.9575 110.779 27.1408 110.713 27.3354C110.055 27.1421 109.442 27.0037 108.872 27.278C108.526 27.4439 108.285 27.7731 108.261 28.0862C108.235 28.4391 108.445 28.7783 108.782 28.9666L110.173 29.7448C110.803 30.0978 111.159 30.7413 111.087 31.401C111.01 32.1032 110.599 32.6656 109.8 32.8739Z" fill="#191919"/>
<path d="M130.387 32.2199C131.26 32.8659 132.243 32.1127 132.475 32.195C132.566 32.2274 132.549 32.5791 132.475 32.6489C132.143 32.9669 131.612 32.9532 131.143 32.9744C130.026 33.0243 129.188 32.2523 129.12 31.1574C129.084 30.5612 129.062 29.9738 129.292 29.4413C129.64 28.6332 130.331 28.1568 131.161 28.2191C131.99 28.2815 132.706 28.8676 132.756 29.7444L132.813 30.772L129.754 30.7782C129.71 31.3893 129.965 31.9081 130.386 32.2199H130.387ZM132.125 30.2956C132.295 29.5822 131.827 28.7192 131.017 28.7404C130.226 28.7604 129.668 29.571 129.775 30.2906L132.125 30.2968V30.2956Z" fill="#191919"/>
<path d="M139.086 30.2192L140.57 30.0384C140.93 29.6705 140.564 28.8748 140.048 28.7825C139.438 28.674 138.926 28.8262 138.384 29.0993C138.308 28.9696 138.294 28.6154 138.425 28.5431C138.916 28.27 139.485 28.1827 140.031 28.2263C140.741 28.2837 141.258 28.7701 141.27 29.4884L141.321 32.7571C141.323 32.8856 140.995 32.9143 140.893 32.8644C140.802 32.8207 140.736 32.691 140.644 32.4528C140.01 33.0028 139.047 33.2011 138.316 32.6973C137.816 32.3518 137.757 31.7569 137.902 31.2069C138.03 30.7268 138.45 30.2953 139.086 30.218V30.2192ZM138.704 32.2558C139.182 32.6486 139.942 32.5239 140.317 32.1672C140.726 31.7781 140.831 31.0623 140.609 30.5821L139.31 30.7268C138.929 30.7692 138.641 31.0249 138.55 31.2855C138.44 31.5985 138.4 32.0051 138.704 32.2545V32.2558Z" fill="#191919"/>
<path d="M127.777 32.8677L124.451 32.854C124.266 32.6969 124.438 32.309 124.589 32.112L127.072 28.8682L124.525 28.8382L124.52 28.3369L127.788 28.3332C127.813 28.4965 127.856 28.7534 127.755 28.8881L125.193 32.3028L127.746 32.3863C127.831 32.536 127.816 32.7206 127.778 32.869L127.777 32.8677Z" fill="#191919"/>
<path d="M123.131 32.864L119.788 32.8677C119.699 32.4449 119.903 32.1731 120.128 31.8812L122.463 28.8744L119.906 28.8395L119.898 28.3369L123.135 28.3332C123.246 28.7597 123.081 28.958 122.889 29.2111L120.522 32.3102L123.128 32.3851C123.154 32.5023 123.177 32.6021 123.131 32.8652V32.864Z" fill="#191919"/>
<path d="M115.488 28.3623C115.711 28.3062 115.932 28.2825 116.115 28.3972L114.562 32.7634C114.493 32.9418 113.928 32.9281 113.785 32.7772L112.29 28.3997C112.402 28.28 112.869 28.2638 112.924 28.4147L114.194 31.9254L115.488 28.3623Z" fill="#191919"/>
<path d="M135.12 32.7895C135 32.9055 134.695 32.893 134.542 32.8319L134.536 28.3372C134.706 28.3285 134.943 28.2973 135.029 28.3435C135.132 28.3996 135.053 28.6877 135.186 28.9246C135.503 28.4607 136.012 28.0541 136.588 28.2686C136.704 28.3734 136.669 28.74 136.624 28.8797C135.848 28.6989 135.361 29.1516 135.225 29.86L135.12 32.7895Z" fill="#191919"/>
<path d="M118.129 28.3665H117.528V32.8711H118.129V28.3665Z" fill="#191919"/>
<path d="M24.6021 12.5663C23.6505 19.5152 19.0673 25.2969 12.5735 27.8049C5.87021 25.2271 1.28452 19.196 0.466403 12.0699C0.0810406 8.70764 -0.0923102 5.41771 0.0486152 2.03426C1.95922 1.3184 3.83739 0.86445 5.84402 0.536455C10.0818 -0.138241 14.2983 -0.170667 18.5485 0.419225C20.8096 0.734748 22.9184 1.24108 25.0934 2.03176C25.2194 5.54243 25.0934 8.97203 24.6021 12.5675V12.5663ZM15.084 20.6539V14.8622L20.9031 14.8597V9.88368L15.0877 9.87994L15.0715 4.0334H10.0431L10.0331 9.86747L4.21402 9.88617V14.861L10.0306 14.8635L10.0344 20.6726L15.084 20.6551V20.6539Z" fill="#FE0303"/>
<path d="M15.0842 20.6508L10.0346 20.6696L10.0308 14.8604L4.21423 14.8567V9.8819L10.0333 9.86319L10.0433 4.02913L15.0717 4.03037L15.0879 9.87691L20.9033 9.88065V14.8567L15.0854 14.8592L15.0842 20.6508Z" fill="#FEFAFA"/>
</g>
<defs>
<clipPath id="clip0_3494_1949">
<rect width="183.473" height="45.0639" fill="white" transform="scale(1.00287)"/>
</clipPath>
</defs>
</svg>
