<svg width="153" height="160" viewBox="0 0 153 160" fill="none" xmlns="http://www.w3.org/2000/svg">
<path d="M153.001 2.67185C153.001 4.14783 151.804 5.34435 150.328 5.34435C148.852 5.34435 147.656 4.14783 147.656 2.67185C147.656 1.19587 148.852 -0.000652546 150.328 -0.000652546C151.804 -0.000652546 153.001 1.19587 153.001 2.67185ZM150.328 2.67185V3.17294H96.21V2.67185V2.17075H150.328V2.67185ZM66.1444 32.7375H66.6455V128.947H66.1444H65.6433V32.7375H66.1444ZM36.0788 159.013V159.514H0V159.013V158.512H36.0788V159.013ZM66.1444 128.947H66.6455C66.6455 145.829 52.9603 159.514 36.0788 159.514V159.013V158.512C52.4068 158.512 65.6433 145.276 65.6433 128.947H66.1444ZM96.21 2.67185V3.17294C79.882 3.17294 66.6455 16.4094 66.6455 32.7375H66.1444H65.6433C65.6433 15.8559 79.3285 2.17075 96.21 2.17075V2.67185Z" fill="#036B53"/>
</svg>
