<svg width="153" height="160" viewBox="0 0 153 160" fill="none" xmlns="http://www.w3.org/2000/svg">
<path d="M147.656 156.842C147.656 158.318 148.852 159.515 150.328 159.515C151.804 159.515 153.001 158.318 153.001 156.842C153.001 155.366 151.804 154.17 150.328 154.17C148.852 154.17 147.656 155.366 147.656 156.842ZM0 0.501094V1.00219H54.1181V0.501094V0H0V0.501094ZM84.1838 30.5667H83.6827V126.777H84.1838H84.6849V30.5667H84.1838ZM114.249 156.842V157.343H150.328V156.842V156.341H114.249V156.842ZM84.1838 126.777H83.6827C83.6827 143.658 97.3679 157.343 114.249 157.343V156.842V156.341C97.9214 156.341 84.6849 143.105 84.6849 126.777H84.1838ZM54.1181 0.501094V1.00219C70.4462 1.00219 83.6827 14.2387 83.6827 30.5667H84.1838H84.6849C84.6849 13.6852 70.9997 0 54.1181 0V0.501094Z" fill="#036B53"/>
</svg>
